<svg xmlns="http://www.w3.org/2000/svg" width="13.9" height="15.332" viewBox="0 0 13.9 15.332">
  <g id="apple-6-svgrepo-com" transform="translate(-23.907 0)">
    <path id="Path_216" data-name="Path 216" d="M138.1,1.773c.058-1.717-1.884-1.985-2.576-1.644A1.741,1.741,0,0,0,138.1,1.773Z" transform="translate(-108.27 0)" fill="#e56433"/>
    <path id="Path_217" data-name="Path 217" d="M474.969,193.572l.057.145Z" transform="translate(-437.555 -187.775)" fill="#e56433"/>
    <path id="Path_218" data-name="Path 218" d="M37.4,17.062l.017.045-.018-.046c-.135-.345-.068-.173,0,0a4.1,4.1,0,0,0-2.421-2.408,6.164,6.164,0,0,0-3.711.149,11.227,11.227,0,0,1,.127-1.981c.053-.37.308-1.135-.325-1.161-.525-.022-.527.681-.578,1.04a12.307,12.307,0,0,0-.138,2.081c-.291-.048-.578-.157-.868-.217a6.554,6.554,0,0,0-1.314-.145,4.132,4.132,0,0,0-2.392.718,4.957,4.957,0,0,0-1.867,4.232,8.633,8.633,0,0,0,1.6,4.814,6.95,6.95,0,0,0,1.56,1.677,4.35,4.35,0,0,0,2.009.749,3.08,3.08,0,0,0,.937,0c.27-.044.524-.158.792-.2.2-.034.488.125.684.169a3.06,3.06,0,0,0,1.019.052,4.593,4.593,0,0,0,3.053-1.646C37.367,22.9,38.442,19.731,37.4,17.062Zm-9.765,1.653a1.158,1.158,0,1,1,1.158-1.158A1.158,1.158,0,0,1,27.632,18.715Z" transform="translate(0 -11.31)" fill="#e56433"/>
  </g>
</svg>
