<svg xmlns="http://www.w3.org/2000/svg" xml:space="preserve" id="breakfast" x="0" y="0" enable-background="new 0 0 70 70" version="1.1" viewBox="0 0 70 70">
  <path fill="#e6e6ef" d="M48.762,62.92v0.88c0,1.06-0.28,2.05-0.77,2.9h-22.44c-1,0-1.82-0.82-1.82-1.83V31.43h0.1
						c5.18,0,9.39,4.21,9.39,9.39c0,1.19-0.22,2.33-0.62,3.38h6.48c3.5,0,6.34,2.84,6.34,6.34v9.04
						C47.262,59.59,48.762,61.08,48.762,62.92z"></path>
  <path fill="#fff" d="M66.815,24.607v40.265c0,1.004-0.822,1.826-1.826,1.826H49.796c1.004,0,1.826-0.822,1.826-1.826V24.607
					c0-0.446-0.162-0.872-0.456-1.207L37.676,8.186h15.193L66.358,23.4C66.653,23.735,66.815,24.161,66.815,24.607z"></path>
  <path fill="#5c9efe" d="M52.866,4.161v4.025h-15.19V4.161c0-0.475,0.385-0.86,0.86-0.86h13.47
					C52.481,3.301,52.866,3.686,52.866,4.161z"></path>
  <rect width="27.89" height="17.09" x="23.732" y="36.62" fill="#ff564c"></rect>
  <path fill="#f73934" d="M45.422,50.54v3.17h-21.69V36.62h8.5c0.63,1.26,0.99,2.69,0.99,4.2c0,1.19-0.22,2.33-0.62,3.38h6.48
							C42.582,44.2,45.422,47.04,45.422,50.54z"></path>
  <rect width="15.193" height="17.092" x="51.622" y="36.619" fill="#ff564c"></rect>
  <path fill="#fff" d="M43.096,45.165c0,1.658-2.43,3.005-5.416,3.005c-2.995,0-5.425-1.347-5.425-3.005
						c0-1.658,2.43-3.005,5.425-3.005C40.666,42.161,43.096,43.508,43.096,45.165z"></path>
  <g>
    <path fill="#5c9efe" d="M45.758,62.922v0.877c0,1.601-1.298,2.898-2.898,2.898H6.083c-1.601,0-2.898-1.298-2.898-2.898v-0.877
					c0-0.189,0.153-0.342,0.342-0.342h41.89C45.605,62.58,45.758,62.733,45.758,62.922z"></path>
    <path fill="#fff" d="M42.417,50.538V62.58H6.53V50.538c0-1.842,1.493-3.335,3.335-3.335h29.216
						C40.924,47.203,42.417,48.696,42.417,50.538z"></path>
    <path fill="#e6e6ef" d="M42.415,52.395v2.95h-23.23v1.02c0,0.98-0.8,1.78-1.79,1.78c-0.98,0-1.78-0.8-1.78-1.78v1.7
						c0,0.99-0.8,1.79-1.79,1.79s-1.79-0.8-1.79-1.79v-2.72h-5.5v-2.95c0-1.84,1.49-3.33,3.33-3.33h29.22
						C40.925,49.065,42.415,50.555,42.415,52.395z"></path>
    <path fill="#febc00" d="M42.415,50.538v2.95h-23.23v1.02c0,0.98-0.8,1.78-1.79,1.78c-0.98,0-1.78-0.8-1.78-1.78v1.7
						c0,0.99-0.8,1.79-1.79,1.79s-1.79-0.8-1.79-1.79v-2.72h-5.5v-2.95c0-1.84,1.49-3.33,3.33-3.33h29.22
						C40.925,47.208,42.415,48.698,42.415,50.538z"></path>
    <path fill="#84d189" d="M30.226,40.817c0,3.531-2.871,6.391-6.391,6.391c-3.531,0-6.402-2.86-6.402-6.391
					c0-3.531,2.871-6.391,6.402-6.391C27.356,34.426,30.226,37.285,30.226,40.817z"></path>
    <path fill="#525987" d="M66.92,22.902L53.616,7.898V4.161c0-0.888-0.723-1.61-1.61-1.61h-13.47c-0.888,0-1.61,0.722-1.61,1.61v3.74
			L23.637,22.896c-0.423,0.465-0.655,1.074-0.655,1.714v9.121c-0.409,0.049-0.807,0.13-1.191,0.245
			c-0.085-0.077-0.159-0.164-0.251-0.234c-0.928-0.711-2.082-1.019-3.245-0.864c-0.41,0.055-0.699,0.432-0.645,0.842
			c0.055,0.411,0.438,0.698,0.842,0.645c0.601-0.081,1.194,0.032,1.717,0.307c-2.106,1.244-3.526,3.529-3.526,6.144
			c0,2.291,1.091,4.329,2.777,5.636H9.866c-2.253,0-4.085,1.833-4.085,4.085V61.83H3.527c-0.602,0-1.092,0.49-1.092,1.092V63.8
			c0,2.012,1.637,3.648,3.648,3.648c54.028,0.002,38.007,0,58.905,0c1.421,0,2.576-1.155,2.576-2.576c0-22.696,0-17.277,0-40.266
			C67.565,24.044,67.361,23.405,66.92,22.902z M66.065,52.962H52.372V37.369h13.693V52.962z M49.795,65.948
			c-0.003,0-0.006,0.002-0.01,0.002h-3.994c0.445-0.605,0.716-1.344,0.716-2.15v-0.877c0-0.602-0.49-1.092-1.092-1.092h-2.249
			v-7.369h7.704V64.87C50.872,65.462,50.391,65.948,49.795,65.948z M12.035,52.738h-4.75v-2.2c0-1.423,1.157-2.58,2.58-2.58h29.22
			c1.423,0,2.58,1.157,2.58,2.58v2.2H19.185c-0.414,0-0.75,0.336-0.75,0.75v1.02c0,0.568-0.467,1.03-1.04,1.03
			c-0.568,0-1.03-0.462-1.03-1.03c0-0.414-0.336-0.75-0.75-0.75s-0.75,0.336-0.75,0.75v1.7c0,0.573-0.467,1.04-1.04,1.04
			s-1.04-0.467-1.04-1.04v-2.72C12.785,53.074,12.449,52.738,12.035,52.738z M65.249,23.279H52.003
			c-0.264-0.434-1.406-1.607-12.661-14.342h13.189L65.249,23.279z M37.671,9.321l12.379,13.958H25.302L37.671,9.321z M50.872,24.779
			v11.091H28.973c-1.159-1.203-2.733-2.002-4.491-2.161v-8.93H50.872z M50.872,37.369v15.592h-7.704v-2.423
			c0-2.253-1.833-4.085-4.086-4.085H28.204c1.683-1.308,2.772-3.345,2.772-5.636c0-1.25-0.325-2.424-0.891-3.447H50.872z
			 M52.372,35.869V24.779h13.693v11.091H52.372z M38.425,4.161c0-0.061,0.05-0.11,0.11-0.11h13.47c0.061,0,0.11,0.049,0.11,0.11
			v3.275h-13.69V4.161z M18.183,40.817c0-2.222,1.297-4.142,3.172-5.061c0.195,0.33,0.326,0.699,0.378,1.091
			c0.05,0.377,0.372,0.652,0.742,0.652c0.033,0,0.066-0.002,0.1-0.006c0.41-0.054,0.699-0.431,0.645-0.842
			c-0.064-0.488-0.223-0.945-0.436-1.373c0.341-0.064,0.692-0.102,1.052-0.102c3.11,0,5.641,2.531,5.641,5.641
			c0,3.078-2.479,5.584-5.544,5.636h-0.193C20.667,46.401,18.183,43.894,18.183,40.817z M7.281,54.238h4.004v1.97
			c0,1.4,1.14,2.54,2.54,2.54c1.201,0,2.21-0.838,2.474-1.96c0.332,0.161,0.704,0.25,1.097,0.25c1.4,0,2.54-1.135,2.54-2.53v-0.27
			h21.732v7.592H7.281V54.238z M3.935,63.8V63.33c9.08,0,32.673,0,41.073,0V63.8c0,1.185-0.964,2.148-2.148,2.148H6.083
			C4.899,65.948,3.935,64.984,3.935,63.8z M64.989,65.948H52.136c0.159-0.345,0.227-0.709,0.232-1.044
			c0.006-0.484,0.003-8.126,0.003-10.442h13.693v10.411C66.065,65.466,65.583,65.948,64.989,65.948z"></path>
  </g>
</svg>
