<svg xmlns="http://www.w3.org/2000/svg" width="23.625" height="23.625" viewBox="0 0 23.625 23.625">
  <g id="Icon_ion-chatbubbles-sharp" data-name="Icon ion-chatbubbles-sharp" transform="translate(-2.25 -2.25)">
    <path id="Path_204" data-name="Path 204" d="M25.48,17.038c.041-.059.08-.119.12-.176a9.2,9.2,0,0,0,1.568-5.128A9.66,9.66,0,0,0,17.3,2.25,9.8,9.8,0,0,0,7.632,9.8a9.113,9.113,0,0,0-.211,1.942,9.634,9.634,0,0,0,9.711,9.6,11.7,11.7,0,0,0,2.68-.437c.642-.176,1.278-.409,1.442-.471a1.079,1.079,0,0,1,.627-.068l4.083,1.18a.211.211,0,0,0,.264-.256l-.934-3.559C25.229,17.467,25.221,17.418,25.48,17.038Z" transform="translate(-1.293 0)" fill="#d9d9d9"/>
    <path id="Path_205" data-name="Path 205" d="M17.044,25.38a8.718,8.718,0,0,1-1.227.108,11.168,11.168,0,0,1-6.064-1.7,9.708,9.708,0,0,1-2.8-2.6,10.9,10.9,0,0,1-2.125-6.565c0-.165.006-.324.012-.483a.229.229,0,0,0-.4-.165,8.372,8.372,0,0,0-.784,10.3c.13.2.2.352.181.455L3.1,28.538a.211.211,0,0,0,.275.239L6.958,27.5a.889.889,0,0,1,.681.012,9.522,9.522,0,0,0,3.447.681,8.936,8.936,0,0,0,6.15-2.426.226.226,0,0,0-.193-.385Z" transform="translate(0 -2.913)" fill="#d9d9d9"/>
  </g>
</svg>
