<svg xmlns="http://www.w3.org/2000/svg" width="16.186" height="17.024" viewBox="0 0 16.186 17.024">
  <g id="png-transparent-fried-chicken-chicken-as-food-computer-icons-barbacoa-fried-chicken-food-chicken-chi" transform="translate(359.679 -15.555) rotate(-97)">
    <path id="Path_214" data-name="Path 214" d="M15.4-359.543a4.48,4.48,0,0,0-2.676,1.3,4.677,4.677,0,0,0-1.376,3.049,6.717,6.717,0,0,0,5.117,6.934c.693.144,2.972.737,3.6.94a5,5,0,0,0,.791.207.827.827,0,0,0,.333-.1,16.4,16.4,0,0,0,1.754-1.569c.153-.216.135-.45-.072-.8a5.89,5.89,0,0,1-.728-3.26,8.742,8.742,0,0,0-.13-1.484,6.551,6.551,0,0,0-5.873-5.212C15.823-359.552,15.486-359.552,15.4-359.543Zm1.718,1.34a5.284,5.284,0,0,1,2.424,1.848,10.007,10.007,0,0,1,1,2.051,7.875,7.875,0,0,1,.387,1.565.66.66,0,0,1-.976.5c-.207-.121-.261-.234-.4-.76-.544-2.154-1.3-3.265-2.622-3.854-.751-.337-.836-.414-.832-.778a.669.669,0,0,1,.342-.607C16.646-358.338,16.79-358.329,17.118-358.2Z" transform="translate(0 0)" fill="#ffda60"/>
    <path id="Path_215" data-name="Path 215" d="M242.841-106.155l-.841.841.247.252.252.247-.126.265a1.251,1.251,0,0,0-.126.7,1.193,1.193,0,0,0,.126.688,1.948,1.948,0,0,0,.827.823,1.152,1.152,0,0,0,.643.126,1.342,1.342,0,0,0,1.088-.445,2.706,2.706,0,0,0,.5-.845.194.194,0,0,1,.1-.1,1.562,1.562,0,0,0,1.057-2.28,1.936,1.936,0,0,0-.809-.742,1.8,1.8,0,0,0-1.282-.018,1.54,1.54,0,0,1-.261.1,1.273,1.273,0,0,1-.283-.225A2.27,2.27,0,0,0,243.7-107C243.7-107,243.3-106.622,242.841-106.155Zm2.667.346a.813.813,0,0,1,0,1.412.568.568,0,0,1-.423.081,2.985,2.985,0,0,1-.333-.058l-.108-.031.031.342a.812.812,0,0,1-.063.54.8.8,0,0,1-1.47-.081c-.135-.355-.013-.675.382-.994l.225-.184-.247-.243a1.814,1.814,0,0,1-.243-.265,2.034,2.034,0,0,1,.22-.27l.225-.247.238.234a2.153,2.153,0,0,0,.27.238,1.625,1.625,0,0,0,.27-.238A.829.829,0,0,1,245.508-105.808Z" transform="translate(-220.304 -241.193)" fill="#ffda60"/>
  </g>
</svg>
