<svg xmlns="http://www.w3.org/2000/svg" width="17.999" height="18.002" viewBox="0 0 17.999 18.002">
  <path id="Icon_fluent-drink-coffee" data-name="Icon fluent-drink-coffee" d="M7.65,4.162a.562.562,0,1,0-1.125,0,2.576,2.576,0,0,0,1.3,2.1l.045.034c.592.443.9.709.9,1.237a.562.562,0,0,0,1.125,0,2.576,2.576,0,0,0-1.3-2.1L8.55,5.4C7.958,4.957,7.65,4.691,7.65,4.162ZM18.9,10.277v1.2h1.125a3.375,3.375,0,1,1,0,6.75H18A6.75,6.75,0,0,1,5.4,14.85V10.277A1.052,1.052,0,0,1,6.452,9.225h11.4A1.052,1.052,0,0,1,18.9,10.277ZM6.525,10.35v4.5a5.625,5.625,0,1,0,11.25,0v-4.5ZM18.9,14.85a6.738,6.738,0,0,1-.384,2.25h1.509a2.25,2.25,0,0,0,0-4.5H18.9v2.25ZM10.462,3.6a.562.562,0,0,1,.562.562c0,.529.308.794.9,1.237l.045.034a2.576,2.576,0,0,1,1.3,2.1.562.562,0,1,1-1.125,0c0-.529-.308-.794-.9-1.237L11.2,6.266a2.576,2.576,0,0,1-1.3-2.1.562.562,0,0,1,.562-.562Zm3.937.562a.562.562,0,1,0-1.125,0,2.576,2.576,0,0,0,1.3,2.1l.045.034c.592.443.9.709.9,1.237a.562.562,0,1,0,1.125,0,2.576,2.576,0,0,0-1.3-2.1L15.3,5.4c-.592-.443-.9-.709-.9-1.237Z" transform="translate(-5.4 -3.6)"/>
</svg>
