<svg xmlns="http://www.w3.org/2000/svg" width="18.683" height="15.705" viewBox="0 0 18.683 15.705">
  <path id="_0605-rice-chopsticks" data-name="0605-rice-chopsticks" d="M963.064,1100.579c-.36-.016-.719-.032-1.069-.029a2.207,2.207,0,0,1-1.425-.541,2.628,2.628,0,0,0-.393-1.425,3.389,3.389,0,0,0-.541-.295,4.7,4.7,0,0,0-.54-.3c-.106-.171-.362-.195-.442-.393-.22-.059-.288-.269-.491-.344-.256-.3-.551-.563-.786-.884-.106-.173-.282-.275-.344-.491-.176-.087-.176-.348-.344-.442-.169-.388-.372-.742-.54-1.13a9.873,9.873,0,0,0-.492-1.179,14.041,14.041,0,0,1-.54-2.751v-.738c.05-.31.092-.629.147-.933a4.4,4.4,0,0,0,.344-.393,2.984,2.984,0,0,1,.688-.295c.182-.211.349-.437.541-.639a.134.134,0,0,0,.147-.1,2.859,2.859,0,0,0,.541-.246,3.028,3.028,0,0,1,.639-.049c.218.005.171-.255.344-.295.042-.155.254-.14.295-.295a4.863,4.863,0,0,0,.59-.246h.541a.131.131,0,0,0,.147-.074.132.132,0,0,1,.147-.073c.018-.13.25-.044.295-.147.11,0,.229,0,.346,0a1.244,1.244,0,0,1,.833.147c.215-.072.271-.33.491-.442a3.416,3.416,0,0,1,1.524-.393.761.761,0,0,1,.541.245,1.808,1.808,0,0,1,.688-.491c.229-.073.426.042.639.246a2.812,2.812,0,0,1,.59-.2c.6.057.881.429,1.327.639a.511.511,0,0,0,.307-.073.514.514,0,0,1,.283-.074,1.248,1.248,0,0,1,.485-.05c.052,0,.1,0,.152,0,.011.048.071.048.132.047a.518.518,0,0,1,.065,0,1.679,1.679,0,0,1,.638.983c.41.049.736.182.786.59a1.559,1.559,0,0,1,.786-.2c.138.026.255.072.393.1.126.086.212.214.343.295.092.1.08.313.2.393a1.984,1.984,0,0,1,.933.049c.8.216.93,1.516.688,2.457a10.908,10.908,0,0,1-1.524,5.9,7.824,7.824,0,0,1-3.292,3.1c-.087.232.064.224.049.491-.687.934-2.28.963-3.931.933a6.889,6.889,0,0,1-.948.057C963.719,1100.607,963.392,1100.592,963.064,1100.579Zm3.5-1.4c.01.154-.033.361.049.442a2.359,2.359,0,0,0,.933-.1c.272-.073.686,0,.688-.344-.026-.072-.136-.061-.246-.049s-.219.023-.246-.049a.3.3,0,0,1-.344-.295c.065-.328.48-.306.835-.343.121-.059.131-.229.295-.246a.256.256,0,0,1,.114.028.245.245,0,0,0,.18.02,12.33,12.33,0,0,0,1.573-1.376,8.583,8.583,0,0,0,1.228-1.72,11.679,11.679,0,0,0,1.327-4.57,28.922,28.922,0,0,1-2.948.541.413.413,0,0,1-.209-.027.409.409,0,0,0-.234-.022c-1.134.078-2.26.164-3.39.246h-3.488a32.254,32.254,0,0,1-6.535-1.179c-.01-.059-.055-.03-.1,0a5.068,5.068,0,0,0,.2,1.228,15,15,0,0,1,1.621.147c.291,0,.506.083.786.1.165.146.531.091.54.393-.062.3-.51.21-.786.295a9.61,9.61,0,0,1-2.015-.343.716.716,0,0,0,.1.442c-.02.118.09.107.049.246.053-.009.053.036.052.08s0,.109.1.067c.023.069.125.059.227.05a.53.53,0,0,1,.167,0h.442c.4.091.927.055,1.327.147.279-.034.4.088.639.1.031.1.229.032.246.148-.013.144.111.151.1.295a7.171,7.171,0,0,1-2.948-.1,2.076,2.076,0,0,0,.344.786c.783.167,1.835.065,2.309.541-.349.466-1.191.314-1.867.245,0,.147.128.167.148.295.025.055.11.051.195.046s.176-.01.2.052h.737c.044.1.277.017.295.148.155-.007.169.126.2.245-.127.255-.721.232-1.032.147.1.248.314.374.491.541.124.237.411.309.541.54.128.009.212.135.295.2.1.076.241.12.295.246.259.1.36.362.639.442.03.068.189.007.2.1.649.038,1.28.1,1.917.148h.408a8.73,8.73,0,0,1,1.754.1,1.415,1.415,0,0,1,.442.491c-.038.349.061.561.049.885h.59c-.015-.343.016-.639.295-.688.072.088.2.12.244.244Zm-3.292.393h.246c-.069-.176-.011-.48-.1-.639h-.147a.908.908,0,0,0,0,.638Zm.933-.049h.639a2.491,2.491,0,0,1-.049-.688,3.322,3.322,0,0,1-.737.1,1.12,1.12,0,0,0,.147.589Zm-1.671-.541c0,.167-.015.343.1.393-.038-.118.083-.4-.073-.4l-.026,0Zm-.639.344v-.442h-.246a.525.525,0,0,0,.245.442Zm3.734-8.943c1.47,0,2.7-.25,4.226-.2.992-.221,2.181-.243,3.1-.541-.007-.122-.009-.238.1-.246a1.678,1.678,0,0,0-.2-1.032,1.079,1.079,0,0,0-.786-.049c-.213.083-.214.376-.54.344-.37-.211.007-.542-.049-.983a.75.75,0,0,0-.343-.295,1.632,1.632,0,0,0-.688.148,1.134,1.134,0,0,1-.246.245c-.083.074-.132.209-.295.2-.324-.173.034-.724-.246-.933-.327,0-.256.4-.59.393-.391-.15-.162-.919-.393-1.228a1.538,1.538,0,0,0-.983.2c-.1.212-.067.556-.393.54-.421-.049-.106-.536-.246-.835a1.231,1.231,0,0,0-1.277-.2c-.051.157.023.445-.3.442-.272-.006-.143-.414-.295-.54a.171.171,0,0,0-.147.024.171.171,0,0,1-.148.025c-.132.2.277.338.1.59-.1,0-.063.133-.2.1-.268.023-.271-.22-.442-.295a.491.491,0,0,1-.3-.148.243.243,0,0,1-.18-.02.259.259,0,0,0-.114-.029,2.328,2.328,0,0,0-1.327.491c.043.251.21.381.246.639-.079.133-.136.29-.344.3-.259-.069-.261-.394-.442-.541a1.427,1.427,0,0,0-1.327-.049c.039.2.231.595-.049.688-.112.045-.106-.107-.147-.147-.062-.061-.146-.071-.2-.147a.3.3,0,0,1-.3-.1.3.3,0,0,0-.285-.1c-.114.033-.132.163-.246.2-.057.32.212.312.148.639a.421.421,0,0,1-.591,0c-.291,0-.506-.084-.786-.1a.926.926,0,0,1-.393.049c-.117.144-.31.214-.343.442.1.193.4.194.343.541-.21.23-.475-.081-.737-.1-.467.073-1.073.009-1.032.589,2.371.315,4.338,1.034,7.026,1.032a14.684,14.684,0,0,0,2.652,0Zm1.376,5.749c-.2-.3.206-.753.393-.393a.345.345,0,0,1-.39.393Zm-.487-1.106a.152.152,0,0,0-.1-.024c-.212-.255-.014-.66.1-.885a3.9,3.9,0,0,1,.491-.688c.017-.064.087-.076.1-.147h.2c.146.354-.144.667-.147,1.032-.2.227-.144.707-.541.737H966.6a.16.16,0,0,1-.084-.025Zm1.175-.958c-.168-.6.251-1.022.442-1.425.04-.042.135-.029.147-.1.2-.021.257.1.344.2a1.743,1.743,0,0,1-.246.835.883.883,0,0,1-.442.589c-.095-.022-.124-.105-.245-.1Zm1.326-4.521c.151-.1.248-.245.393-.344h.491c.189.133.632.238.442.59-.243.156-.409-.131-.639-.147-.331-.019-.264.358-.541.393-.249-.019-.192-.3-.148-.494Zm-3.1-.245a1.733,1.733,0,0,0-.491-.049.451.451,0,0,0-.276.087c-.1.063-.185.125-.313.061-.111-.487.465-.669,1.081-.59.3.185.88.324.688.835l-.056,0c-.308,0-.4-.232-.633-.345Zm-4.177-.393a.9.9,0,0,1,1.474-.786c.106.124.184.274.3.393a.347.347,0,0,1-.148.443c-.176-.037-.312-.114-.344-.3-.187-.01-.186-.207-.393-.2a.448.448,0,0,0-.344.246c-.081.116-.016.378-.2.393a.365.365,0,0,1-.08.01c-.158,0-.18-.134-.265-.207Zm-2.211.049a.377.377,0,0,0-.225.021.4.4,0,0,1-.168.029.838.838,0,0,0-.2-.147c.112-.564,1.274-.389,1.278.147a.206.206,0,0,1-.17.076c-.155,0-.349-.114-.519-.125Zm8.4-.688a.514.514,0,0,0-.389.141c-.133.1-.251.2-.446.1-.132-.356.309-.535.541-.688h.589c.133.145.338.219.393.442a.33.33,0,0,1-.1.541c-.359-.018-.262-.492-.589-.54Zm-2.752-.246c-.026-.122-.12-.175-.2-.246-.338.006-.274.414-.639.393-.209-.1-.135-.361-.049-.54a1.377,1.377,0,0,1,.639-.344c.349.011.475.246.639.442v.344c.015.113-.142.054-.148.147-.121-.028-.254-.042-.247-.2Z" transform="translate(-955.116 -1084.902)" fill="#2196f3"/>
</svg>
