<?xml version="1.0" encoding="UTF-8"?>
<svg version="1.1" xmlns="http://www.w3.org/2000/svg" width="512" height="512">
<path d="M0 0 C1.45108658 0.00273422 1.45108658 0.00273422 2.93148804 0.00552368 C17.26440977 0.05095174 31.21023917 0.55983928 45.3125 3.3125 C46.65803955 3.55395752 46.65803955 3.55395752 48.03076172 3.80029297 C73.20813708 8.35611563 102.82596035 16.07753481 123.73046875 31.421875 C136.17766979 40.35960732 147.70694416 40.45784083 162.59448242 40.16650391 C163.38615814 40.15519943 164.17783386 40.14389496 164.99349976 40.13224792 C166.48843109 40.10477346 167.98318232 40.05774838 169.47671509 39.98750305 C174.60821669 39.87204788 177.36537032 41.08993212 181.3125 44.3125 C185.36228642 49.52670704 185.10268567 54.97383666 184.3125 61.3125 C182.43320395 65.00628879 180.21690218 67.4413861 177.3125 70.3125 C177.75005615 70.73958252 178.1876123 71.16666504 178.63842773 71.60668945 C187.02573292 79.81983322 195.21621502 87.93759141 202.3125 97.3125 C202.72773926 97.85132812 203.14297852 98.39015625 203.57080078 98.9453125 C211.25587664 108.94179469 217.99978061 119.40260449 224.3125 130.3125 C224.70679199 130.98974121 225.10108398 131.66698242 225.50732422 132.36474609 C238.68961173 155.2833756 247.29510918 180.85822563 252.625 206.6875 C252.77243652 207.39817627 252.91987305 208.10885254 253.07177734 208.84106445 C256.05713787 224.48358366 256.6873098 240.11919606 256.625 256 C256.62226578 257.45108658 256.62226578 257.45108658 256.61947632 258.93148804 C256.57404826 273.26440977 256.06516072 287.21023917 253.3125 301.3125 C253.15152832 302.20952637 252.99055664 303.10655273 252.82470703 304.03076172 C242.00212011 363.84088904 207.94435543 421.35495829 159.3125 458.3125 C158.77222168 458.72918945 158.23194336 459.14587891 157.67529297 459.57519531 C147.6802884 467.2584873 137.22040964 474.00092968 126.3125 480.3125 C125.63525879 480.70679199 124.95801758 481.10108398 124.26025391 481.50732422 C101.3416244 494.68961173 75.76677437 503.29510918 49.9375 508.625 C49.22682373 508.77243652 48.51614746 508.91987305 47.78393555 509.07177734 C32.91581614 511.90934438 18.03844593 512.66283959 2.93701172 512.62817383 C0.07871118 512.6250179 -2.77854516 512.64857578 -5.63671875 512.67382812 C-18.87029805 512.71920177 -31.63866546 511.48145966 -44.6875 509.3125 C-46.39413818 509.03031616 -46.39413818 509.03031616 -48.13525391 508.74243164 C-107.57972909 498.05619461 -165.01938976 463.56349705 -201.6875 415.3125 C-202.10418945 414.77222168 -202.52087891 414.23194336 -202.95019531 413.67529297 C-210.6334873 403.6802884 -217.37592968 393.22040964 -223.6875 382.3125 C-224.08179199 381.63525879 -224.47608398 380.95801758 -224.88232422 380.26025391 C-246.39946876 342.85070239 -256.16324631 300.04569533 -256 257.1875 C-255.99817719 256.19393494 -255.99635437 255.20036987 -255.99447632 254.17669678 C-255.94969978 239.682808 -255.48860213 225.57113903 -252.6875 211.3125 C-252.52652832 210.41692383 -252.36555664 209.52134766 -252.19970703 208.59863281 C-241.37865541 148.78659535 -207.32070506 91.27106736 -158.6875 54.3125 C-158.14722168 53.89581055 -157.60694336 53.47912109 -157.05029297 53.04980469 C-147.0552884 45.3665127 -136.59540964 38.62407032 -125.6875 32.3125 C-125.01025879 31.91820801 -124.33301758 31.52391602 -123.63525391 31.11767578 C-100.7166244 17.93538827 -75.14177437 9.32989082 -49.3125 4 C-48.60182373 3.85256348 -47.89114746 3.70512695 -47.15893555 3.55322266 C-31.51641634 0.56786213 -15.88080394 -0.0623098 0 0 Z " fill="#B66869" transform="translate(255.6875,-0.3125)"/>
<path d="M0 0 C1.45108658 0.00273422 1.45108658 0.00273422 2.93148804 0.00552368 C17.26440977 0.05095174 31.21023917 0.55983928 45.3125 3.3125 C46.65803955 3.55395752 46.65803955 3.55395752 48.03076172 3.80029297 C73.20813708 8.35611563 102.82596035 16.07753481 123.73046875 31.421875 C136.17766979 40.35960732 147.70694416 40.45784083 162.59448242 40.16650391 C163.38615814 40.15519943 164.17783386 40.14389496 164.99349976 40.13224792 C166.48843109 40.10477346 167.98318232 40.05774838 169.47671509 39.98750305 C174.60821669 39.87204788 177.36537032 41.08993212 181.3125 44.3125 C185.36228642 49.52670704 185.10268567 54.97383666 184.3125 61.3125 C182.43320395 65.00628879 180.21690218 67.4413861 177.3125 70.3125 C177.75005615 70.73958252 178.1876123 71.16666504 178.63842773 71.60668945 C187.02573292 79.81983322 195.21621502 87.93759141 202.3125 97.3125 C202.72773926 97.85132812 203.14297852 98.39015625 203.57080078 98.9453125 C211.25587664 108.94179469 217.99978061 119.40260449 224.3125 130.3125 C224.70679199 130.98974121 225.10108398 131.66698242 225.50732422 132.36474609 C238.68961173 155.2833756 247.29510918 180.85822563 252.625 206.6875 C252.77243652 207.39817627 252.91987305 208.10885254 253.07177734 208.84106445 C256.05713787 224.48358366 256.6873098 240.11919606 256.625 256 C256.62226578 257.45108658 256.62226578 257.45108658 256.61947632 258.93148804 C256.57404826 273.26440977 256.06516072 287.21023917 253.3125 301.3125 C253.15152832 302.20952637 252.99055664 303.10655273 252.82470703 304.03076172 C242.00212011 363.84088904 207.94435543 421.35495829 159.3125 458.3125 C158.77222168 458.72918945 158.23194336 459.14587891 157.67529297 459.57519531 C147.6802884 467.2584873 137.22040964 474.00092968 126.3125 480.3125 C125.63525879 480.70679199 124.95801758 481.10108398 124.26025391 481.50732422 C101.3416244 494.68961173 75.76677437 503.29510918 49.9375 508.625 C49.22682373 508.77243652 48.51614746 508.91987305 47.78393555 509.07177734 C32.91581614 511.90934438 18.03844593 512.66283959 2.93701172 512.62817383 C0.07871118 512.6250179 -2.77854516 512.64857578 -5.63671875 512.67382812 C-18.87029805 512.71920177 -31.63866546 511.48145966 -44.6875 509.3125 C-46.39413818 509.03031616 -46.39413818 509.03031616 -48.13525391 508.74243164 C-107.57972909 498.05619461 -165.01938976 463.56349705 -201.6875 415.3125 C-202.10418945 414.77222168 -202.52087891 414.23194336 -202.95019531 413.67529297 C-210.6334873 403.6802884 -217.37592968 393.22040964 -223.6875 382.3125 C-224.08179199 381.63525879 -224.47608398 380.95801758 -224.88232422 380.26025391 C-246.39946876 342.85070239 -256.16324631 300.04569533 -256 257.1875 C-255.99817719 256.19393494 -255.99635437 255.20036987 -255.99447632 254.17669678 C-255.94969978 239.682808 -255.48860213 225.57113903 -252.6875 211.3125 C-252.52652832 210.41692383 -252.36555664 209.52134766 -252.19970703 208.59863281 C-241.37865541 148.78659535 -207.32070506 91.27106736 -158.6875 54.3125 C-158.14722168 53.89581055 -157.60694336 53.47912109 -157.05029297 53.04980469 C-147.0552884 45.3665127 -136.59540964 38.62407032 -125.6875 32.3125 C-125.01025879 31.91820801 -124.33301758 31.52391602 -123.63525391 31.11767578 C-100.7166244 17.93538827 -75.14177437 9.32989082 -49.3125 4 C-48.60182373 3.85256348 -47.89114746 3.70512695 -47.15893555 3.55322266 C-31.51641634 0.56786213 -15.88080394 -0.0623098 0 0 Z M-56.61328125 106.875 C-59.87883271 110.7124842 -62.279988 114.90602349 -64.6875 119.3125 C-65.51121094 120.63507813 -65.51121094 120.63507813 -66.3515625 121.984375 C-67.85340178 124.1542498 -67.85340178 124.1542498 -67.6875 126.3125 C-68.42613281 126.26609375 -69.16476563 126.2196875 -69.92578125 126.171875 C-80.76468814 125.7862468 -89.14623916 128.26370045 -97.54296875 135.23828125 C-101.77101594 139.32770394 -106.04051382 144.01852764 -108.6875 149.3125 C-112.15535408 148.02199346 -115.13918575 146.49492149 -118.25 144.5 C-133.18807437 135.39467598 -149.80477292 131.52962988 -167.1171875 135 C-169.80387236 135.91332063 -172.19467299 136.96081509 -174.6875 138.3125 C-175.47125 138.73660156 -176.255 139.16070312 -177.0625 139.59765625 C-187.88798486 146.16243508 -193.75018711 155.50056133 -197.6875 167.3125 C-199.49993256 186.25930962 -196.19416808 201.49347166 -185.6875 217.3125 C-184.88435236 218.68082561 -184.09139947 220.0552277 -183.3125 221.4375 C-182.77625 222.38625 -182.24 223.335 -181.6875 224.3125 C-183.0178125 224.68375 -183.0178125 224.68375 -184.375 225.0625 C-193.48477704 228.50015171 -199.52226698 236.83639644 -203.6875 245.3125 C-207.05291165 252.80818958 -205.96573025 260.19957901 -204.02734375 267.953125 C-203.44483169 271.99723168 -204.11802708 274.46415475 -206.39453125 277.85546875 C-207.08933594 278.72816406 -207.78414062 279.60085938 -208.5 280.5 C-216.08681282 290.56136467 -218.85339966 300.79583008 -217.6875 313.3125 C-215.53366446 322.33349728 -211.9724959 329.52524741 -205.6875 336.3125 C-204.86958984 337.24835938 -204.86958984 337.24835938 -204.03515625 338.203125 C-197.05503471 345.75808008 -187.29133173 350.84530196 -177.6875 354.3125 C-176.3675 354.3125 -175.0475 354.3125 -173.6875 354.3125 C-173.831875 354.87453125 -173.97625 355.4365625 -174.125 356.015625 C-179.24278741 379.1878291 -174.48148307 401.91198987 -162.4375 422.0625 C-150.00329344 440.45189196 -130.68481056 454.7370594 -108.6875 459.3125 C-86.8540357 462.5980053 -62.95155605 460.35134353 -44.5546875 447.046875 C-43.62914062 446.30953125 -42.70359375 445.5721875 -41.75 444.8125 C-38.3472405 442.18008036 -36.29951942 440.7399305 -31.9375 441.0625 C-26.74927041 442.25263152 -22.38374711 444.32379649 -18.875 448.4375 C-17.75806276 451.14166385 -17.28969132 453.38255307 -16.8125 456.25 C-15.87088999 461.39440593 -14.5667661 463.77805756 -10.6875 467.3125 C-5.1231204 470.58566447 0.01858347 471.03325496 6.3125 470.3125 C12.45969521 468.57079469 15.68766743 465.36050509 19.3125 460.3125 C20.55877931 457.81994139 20.4703086 456.04854903 20.5234375 453.26171875 C20.55179688 452.25302734 20.58015625 451.24433594 20.609375 450.20507812 C20.66116854 448.08024817 20.7055245 445.955223 20.7421875 443.83007812 C20.773125 442.81751953 20.8040625 441.80496094 20.8359375 440.76171875 C20.85575684 439.83705811 20.87557617 438.91239746 20.89599609 437.9597168 C21.60674854 433.44231424 23.95908386 430.04924924 27.625 427.375 C31.65236623 425.0959626 34.14798382 425.32406561 38.640625 426.1640625 C46.38668113 427.41956721 53.91423351 427.64452109 61.75 427.625 C63.68456055 427.64916992 63.68456055 427.64916992 65.65820312 427.67382812 C89.70976183 427.68587197 117.6632664 420.13609215 136.3125 404.3125 C137.12976563 403.68472656 137.94703125 403.05695313 138.7890625 402.41015625 C145.7635078 396.61251364 150.49405578 388.59662106 155.38500977 381.05786133 C158.29128056 376.65282862 161.45362897 372.64682831 164.9375 368.6875 C177.3809704 354.45705136 184.72114202 338.77119925 184.6875 319.75 C184.68588867 318.79125977 184.68427734 317.83251953 184.68261719 316.84472656 C184.5353601 308.19120711 183.02297001 300.50018275 180.3125 292.3125 C179.86197266 290.91837891 179.86197266 290.91837891 179.40234375 289.49609375 C173.29641939 272.6056796 160.74822741 259.38441869 146.3125 249.3125 C144.63579725 247.99180948 142.96588725 246.66226523 141.3125 245.3125 C141.83199219 244.81363281 142.35148437 244.31476563 142.88671875 243.80078125 C150.01285666 236.4638888 154.41570118 228.0587637 154.875 217.6875 C154.22941136 206.56723569 149.46894643 198.71051666 141.3125 191.3125 C138.70541329 189.3992 136.15996476 187.8656626 133.3125 186.3125 C133.77140625 185.61125 134.2303125 184.91 134.703125 184.1875 C144.65553678 168.79889692 150.53021423 153.60118739 146.62109375 135.02734375 C143.40470172 125.45891389 138.11526813 117.46491389 129.3125 112.3125 C126.02077239 110.93246115 126.02077239 110.93246115 123.3125 110.3125 C122.77625 111.240625 122.24 112.16875 121.6875 113.125 C118.96208898 116.78278848 117.54999692 117.70517358 113.3125 119.3125 C108.86311355 119.83824507 104.39886982 119.79654687 99.92382812 119.83984375 C93.13651025 119.98702751 93.13651025 119.98702751 87.3125 123.3125 C84.74650044 126.39169947 84.30404015 127.83028879 84.375 131.875 C85.39194084 135.60378308 86.27818455 136.99214113 89.3125 139.3125 C92.26273614 140.29591205 94.47923295 140.47428164 97.5625 140.625 C102.9228424 141.0929664 106.03846736 142.01793317 110.3125 145.3125 C113.39480587 149.68738575 114.21537269 154.05757803 113.3125 159.3125 C111.98553261 163.07598944 110.19881985 165.71271691 106.84155273 167.98461914 C101.99517358 169.80817197 97.61068006 169.7612223 92.47265625 169.74609375 C90.91217812 169.75395653 90.91217812 169.75395653 89.32017517 169.76197815 C87.12564993 169.76838584 84.93109028 169.76707764 82.73657227 169.75854492 C79.38951104 169.75003689 76.04415839 169.77881228 72.69726562 169.81054688 C70.55989634 169.81215917 68.42252405 169.81158082 66.28515625 169.80859375 C65.29016617 169.81982773 64.29517609 169.83106171 63.27003479 169.84263611 C57.08352096 169.78096858 53.34844775 168.98547894 48.3125 165.3125 C45.23019413 160.93761425 44.40962731 156.56742197 45.3125 151.3125 C46.6541101 147.50748152 48.55048819 144.88400885 51.8125 142.4375 C55.19308124 141.3508846 57.79259075 141.11175293 61.3125 140.9375 C65.1147414 140.69188938 67.90318497 140.49698917 71 138.1875 C73.79878789 134.70792587 74.3919749 132.76309454 74.3125 128.3125 C72.70324004 124.58579273 70.80773345 122.34389914 67.3125 120.3125 C64.61097796 120.02931162 62.14136035 119.91549923 59.44213867 119.94360352 C58.65300583 119.93983704 57.86387299 119.93607056 57.05082703 119.93218994 C55.3397204 119.92576166 53.62857807 119.92608359 51.91747093 119.93237495 C49.2055874 119.94148988 46.49439464 119.93125607 43.782547 119.91575623 C36.07338539 119.87567283 28.36427778 119.87445071 20.6550293 119.87670898 C15.93646543 119.87676018 11.21827314 119.85754176 6.49981117 119.82737541 C3.83468493 119.8165753 1.17027571 119.82866704 -1.49482727 119.84120178 C-3.13954365 119.83229301 -4.78425426 119.82221711 -6.42895508 119.81079102 C-7.16426453 119.82053452 -7.89957397 119.83027802 -8.65716553 119.84031677 C-14.18204082 119.76405076 -17.24645681 118.3744267 -21.6875 115.3125 C-24.39081834 111.47553204 -25.23792238 108.05434003 -25.0390625 103.3359375 C-24.39562178 99.63257867 -22.90265496 97.3658217 -20.6875 94.3125 C-17.9375 92.4375 -17.9375 92.4375 -15.6875 91.3125 C-15.6875 90.9825 -15.6875 90.6525 -15.6875 90.3125 C-32.92105235 89.40679506 -44.67291209 94.53870237 -56.61328125 106.875 Z " fill="#B3D1D6" transform="translate(255.6875,-0.3125)"/>
<path d="M0 0 C1.45108658 0.00273422 1.45108658 0.00273422 2.93148804 0.00552368 C17.26440977 0.05095174 31.21023917 0.55983928 45.3125 3.3125 C46.65803955 3.55395752 46.65803955 3.55395752 48.03076172 3.80029297 C73.20813708 8.35611563 102.82596035 16.07753481 123.73046875 31.421875 C136.17766979 40.35960732 147.70694416 40.45784083 162.59448242 40.16650391 C163.38615814 40.15519943 164.17783386 40.14389496 164.99349976 40.13224792 C166.48843109 40.10477346 167.98318232 40.05774838 169.47671509 39.98750305 C174.60821669 39.87204788 177.36537032 41.08993212 181.3125 44.3125 C185.36228642 49.52670704 185.10268567 54.97383666 184.3125 61.3125 C182.43320395 65.00628879 180.21690218 67.4413861 177.3125 70.3125 C177.75005615 70.73958252 178.1876123 71.16666504 178.63842773 71.60668945 C187.02573292 79.81983322 195.21621502 87.93759141 202.3125 97.3125 C202.72773926 97.85132812 203.14297852 98.39015625 203.57080078 98.9453125 C211.25587664 108.94179469 217.99978061 119.40260449 224.3125 130.3125 C224.70679199 130.98974121 225.10108398 131.66698242 225.50732422 132.36474609 C238.68961173 155.2833756 247.29510918 180.85822563 252.625 206.6875 C252.77243652 207.39817627 252.91987305 208.10885254 253.07177734 208.84106445 C256.05713787 224.48358366 256.6873098 240.11919606 256.625 256 C256.62226578 257.45108658 256.62226578 257.45108658 256.61947632 258.93148804 C256.57404826 273.26440977 256.06516072 287.21023917 253.3125 301.3125 C253.15152832 302.20952637 252.99055664 303.10655273 252.82470703 304.03076172 C242.00212011 363.84088904 207.94435543 421.35495829 159.3125 458.3125 C158.77222168 458.72918945 158.23194336 459.14587891 157.67529297 459.57519531 C147.6802884 467.2584873 137.22040964 474.00092968 126.3125 480.3125 C125.63525879 480.70679199 124.95801758 481.10108398 124.26025391 481.50732422 C85.7866928 503.63646348 42.30360693 513.04064412 -1.6875 512.3125 C-1.6875 511.9825 -1.6875 511.6525 -1.6875 511.3125 C-0.17736328 511.0791394 -0.17736328 511.0791394 1.36328125 510.84106445 C5.18233374 510.24754208 8.99866168 509.63779026 12.81445312 509.02368164 C14.45049577 508.76257358 16.08720163 508.5055799 17.72460938 508.25317383 C28.97337322 506.51541946 39.54831423 504.0105457 50.3125 500.3125 C51.17858887 500.02785889 52.04467773 499.74321777 52.93701172 499.44995117 C83.9594752 489.15585402 111.96173865 472.79873424 135.859375 450.578125 C138.00808551 448.59364714 140.20130045 446.69654214 142.4375 444.8125 C172.89847282 418.1823189 195.40624239 375.58534269 204.875 336.75 C205.08479492 335.89575439 205.29458984 335.04150879 205.51074219 334.16137695 C206.8738865 328.47093209 208.06965959 322.76657403 209.0625 317 C209.17795166 316.34507568 209.29340332 315.69015137 209.41235352 315.01538086 C211.48169411 302.13965814 211.52220222 289.00961867 211.5 276 C211.49873108 275.2291507 211.49746216 274.45830139 211.49615479 273.66409302 C211.34003035 223.8326586 194.50577425 174.41629883 163.3125 135.3125 C162.59578125 134.40371094 161.8790625 133.49492187 161.140625 132.55859375 C155.49810139 125.52544819 149.48826638 118.87543216 143.3125 112.3125 C142.69632812 111.65378906 142.08015625 110.99507813 141.4453125 110.31640625 C136.47386297 105.16655542 130.91076328 100.75753564 125.3125 96.3125 C124.33410156 95.51714844 123.35570312 94.72179687 122.34765625 93.90234375 C113.50625691 86.86713191 104.06856923 80.99521367 94.3125 75.3125 C92.69698242 74.2611084 92.69698242 74.2611084 91.04882812 73.18847656 C87.23745032 71.02446609 83.68752337 70.76182669 79.3671875 70.8515625 C78.63428497 70.85247894 77.90138245 70.85339539 77.14627075 70.8543396 C75.60835226 70.86034253 74.07044362 70.87598819 72.53271484 70.90087891 C70.18673396 70.93751196 67.84233169 70.94189679 65.49609375 70.94140625 C63.9947781 70.95123499 62.49347307 70.96289095 60.9921875 70.9765625 C60.29624481 70.97878815 59.60030212 70.98101379 58.88327026 70.98330688 C53.77693829 71.08236711 49.99015015 71.63484985 46.3125 75.3125 C44.92001216 81.01786632 44.92001216 81.01786632 47 86.25 C50.7703521 89.61274646 54.22013143 89.43626661 59.14746094 89.43847656 C60.3225824 89.44228333 61.49770386 89.44609009 62.70843506 89.45001221 C63.97512024 89.45103943 65.24180542 89.45206665 66.546875 89.453125 C68.5443475 89.46676015 70.54182031 89.48042538 72.53927994 89.49583054 C77.45753448 89.5337217 82.37552783 89.56512104 87.29394531 89.56298828 C90.0543229 89.56235137 92.81403492 89.57488151 95.57427979 89.60198975 C98.16966306 89.627231 100.76531374 89.63378082 103.36077881 89.61920166 C110.53023637 89.71828945 115.88791323 90.32064767 121.3125 95.3125 C124.00182285 99.09436025 124.9240897 102.5448531 124.7265625 107.22265625 C123.71648287 112.32069967 121.05942498 116.13434129 116.79296875 119.01171875 C111.26772905 121.07670732 105.76615499 120.78331813 99.92382812 120.83984375 C93.14016553 120.98981957 93.14016553 120.98981957 87.3125 124.3125 C85.17977538 127.02687679 85.31504044 128.36076833 85.5 131.875 C86.42662708 135.809195 86.42662708 135.809195 89.3125 138.3125 C92.2661904 139.29706347 94.41545141 139.44068426 97.5 139.5625 C103.14327227 140.04834463 107.09549971 141.48825954 111.3125 145.3125 C114.00182285 149.09436025 114.9240897 152.5448531 114.7265625 157.22265625 C113.94928121 161.14572692 112.05900558 164.43186275 109.3125 167.3125 C103.83254073 170.87788749 98.82743135 170.77996929 92.5078125 170.78125 C91.46986542 170.78886353 90.43191833 170.79647705 89.36251831 170.80432129 C87.17220458 170.81510098 84.98183953 170.81798409 82.79150391 170.81347656 C79.45517471 170.81250515 76.12115326 170.85413475 72.78515625 170.8984375 C70.65104643 170.90364572 68.51692867 170.90633267 66.3828125 170.90625 C65.3929837 170.92264526 64.40315491 170.93904053 63.3833313 170.95593262 C56.84586217 170.89128625 52.32046956 169.64918498 47.3125 165.3125 C44.62317715 161.53063975 43.7009103 158.0801469 43.8984375 153.40234375 C44.9135791 148.27875172 47.77178271 144.47743259 51.875 141.375 C55.20807458 140.34477695 57.91107137 140.07876051 61.375 139.875 C65.10254437 139.62988852 67.13147899 139.40478522 70.5 137.6875 C72.94269245 134.48673058 73.3125 132.32126975 73.3125 128.3125 C71.72411066 124.73862398 70.59615642 123.50160428 67.3125 121.3125 C64.69664057 121.12523691 62.18696648 121.05296191 59.5715332 121.07299805 C58.78415268 121.07098389 57.99677216 121.06896973 57.18553162 121.06689453 C55.47494673 121.06334836 53.76434875 121.06411694 52.05376625 121.06867027 C49.34177695 121.0742631 46.63021547 121.06510408 43.91825867 121.0514679 C36.20728729 121.01434694 28.4964586 120.99577283 20.78540039 121.00708008 C16.06790227 121.01294902 11.35100298 120.99458007 6.63362694 120.96119118 C4.8400051 120.95326089 3.04631759 120.95448188 1.25271034 120.96521568 C-16.22397097 121.06525929 -16.22397097 121.06525929 -22.6875 115.3125 C-25.37583279 111.53203201 -26.30412818 108.07938183 -26.09765625 103.40234375 C-25.32416477 99.46122048 -23.53283928 96.13282531 -20.6875 93.3125 C-15.05337119 90.35076629 -10.51276837 89.89547957 -4.2109375 89.94140625 C-2.38801885 89.92403538 -0.56510222 89.90645089 1.2578125 89.88867188 C4.10615633 89.87858009 6.95437335 89.87501006 9.80273438 89.87670898 C12.56938962 89.8731388 15.3350793 89.84581151 18.1015625 89.81640625 C18.95062164 89.82458878 19.79968079 89.8327713 20.67446899 89.84120178 C24.70726256 89.79047818 26.81673951 89.61614227 30.32958984 87.46459961 C32.87085678 84.70650209 33.23644803 83.03904649 33.3125 79.3125 C32.27795138 75.26835539 30.85613928 73.45813407 27.3125 71.3125 C24.53834683 70.92121676 24.53834683 70.92121676 21.5625 70.9375 C15.67969944 70.57117176 11.6712018 69.35440393 7.3125 65.3125 C4.53277668 61.40351408 3.97232707 58.09866561 3.9140625 53.4375 C4.47636027 50.43857856 5.92361045 48.01212245 7.3125 45.3125 C0.22238004 45.20899888 -6.86753789 45.14018077 -13.95825195 45.09277344 C-16.35806552 45.07296008 -18.75783291 45.04590172 -21.1574707 45.01074219 C-78.71477395 44.19004673 -135.01551494 65.13605923 -177.46875 104.28125 C-179.45765799 106.10208125 -181.49432976 107.83337406 -183.5625 109.5625 C-225.87851315 146.70561375 -249.78089888 204.17623762 -254.6875 259.3125 C-255.0175 259.3125 -255.3475 259.3125 -255.6875 259.3125 C-257.34060512 192.29816157 -232.31806088 128.65905617 -186.28417969 79.98388672 C-177.55435419 70.8456015 -168.770197 61.97479649 -158.6875 54.3125 C-158.14722168 53.89581055 -157.60694336 53.47912109 -157.05029297 53.04980469 C-147.0552884 45.3665127 -136.59540964 38.62407032 -125.6875 32.3125 C-125.01025879 31.91820801 -124.33301758 31.52391602 -123.63525391 31.11767578 C-100.7166244 17.93538827 -75.14177437 9.32989082 -49.3125 4 C-48.60182373 3.85256348 -47.89114746 3.70512695 -47.15893555 3.55322266 C-31.51641634 0.56786213 -15.88080394 -0.0623098 0 0 Z " fill="#F08BC3" transform="translate(255.6875,-0.3125)"/>
<path d="M0 0 C2.78856123 1.96189758 5.42978719 4.01484498 8.046875 6.19921875 C8.68238281 6.72128906 9.31789062 7.24335938 9.97265625 7.78125 C18.79346901 15.79095354 25.4457934 27.96167266 29.046875 39.19921875 C29.046875 40.18921875 29.046875 41.17921875 29.046875 42.19921875 C30.1915625 41.70421875 30.1915625 41.70421875 31.359375 41.19921875 C40.32151141 38.76880888 48.86593729 39.80137363 57.046875 44.19921875 C67.93242156 52.06449806 76.19787313 63.79858326 78.578125 77.1875 C78.81679834 79.53113956 78.9895773 81.84480403 79.046875 84.19921875 C70.5554139 86.9164863 70.5554139 86.9164863 66.046875 86.19921875 C64.421875 83.82421875 64.421875 83.82421875 63.046875 81.19921875 C60.33249821 79.06649413 58.99860667 79.20175919 55.484375 79.38671875 C52.19702159 79.98016278 52.19702159 79.98016278 50.171875 81.32421875 C48.12379697 84.73768213 47.6882877 88.55376575 48.53125 92.421875 C48.70140625 93.00839844 48.8715625 93.59492188 49.046875 94.19921875 C47.94730469 94.88886719 46.84773437 95.57851562 45.71484375 96.2890625 C20.58458067 112.19663581 -2.00311758 133.08251993 -8.953125 163.19921875 C-9.99726563 162.91046875 -11.04140625 162.62171875 -12.1171875 162.32421875 C-33.63627277 156.75098401 -54.72815783 157.55644069 -74.953125 167.19921875 C-75.85546875 167.61816406 -76.7578125 168.03710938 -77.6875 168.46875 C-96.92345333 178.11452428 -110.75959733 195.52584902 -118.18359375 215.51171875 C-118.85580466 217.73348625 -119.46809018 219.93014783 -119.953125 222.19921875 C-125.86465869 221.72942799 -130.15997062 220.57109925 -135.328125 217.69921875 C-135.97587891 217.344646 -136.62363281 216.99007324 -137.29101562 216.62475586 C-143.25447972 213.23810637 -148.23334362 209.18550873 -152.953125 204.19921875 C-153.60925781 203.5134375 -154.26539063 202.82765625 -154.94140625 202.12109375 C-162.44015585 193.45016273 -165.82899897 182.60964043 -165.3046875 171.2265625 C-164.14276459 161.22111521 -159.98648684 152.33209456 -153.015625 145.01171875 C-150.59297535 142.31781019 -150.59297535 142.31781019 -151.078125 138.76171875 C-151.366875 137.58609375 -151.655625 136.41046875 -151.953125 135.19921875 C-153.75868322 124.36586941 -153.44818616 116.31445805 -147.4453125 106.8125 C-142.93033978 100.62803737 -136.81566876 93.61909121 -128.953125 92.19921875 C-129.489375 91.25046875 -130.025625 90.30171875 -130.578125 89.32421875 C-130.94421875 88.67453125 -131.3103125 88.02484375 -131.6875 87.35546875 C-132.53315909 85.91471623 -133.41946536 84.49708832 -134.34375 83.10546875 C-143.99392933 68.27466684 -147.09626436 52.76001406 -144.953125 35.19921875 C-143.87552686 30.71604675 -142.39241811 27.09951327 -139.953125 23.19921875 C-139.49550781 22.45929688 -139.03789062 21.719375 -138.56640625 20.95703125 C-131.92041902 11.30669363 -122.47134646 4.68759175 -110.953125 2.19921875 C-92.24928932 0.59824108 -74.78727497 4.47571869 -59.6484375 15.9453125 C-58.03657057 17.39743591 -58.03657057 17.39743591 -55.953125 17.19921875 C-54.66493724 15.53493939 -53.44746274 13.81562996 -52.265625 12.07421875 C-39.75233634 -5.44887848 -19.1810482 -11.69637992 0 0 Z " fill="#B7EA69" transform="translate(202.953125,131.80078125)"/>
<path d="M0 0 C0.78503906 0.64324219 1.57007813 1.28648437 2.37890625 1.94921875 C3.41724609 2.74392578 3.41724609 2.74392578 4.4765625 3.5546875 C20.07381828 16.11311412 30.91012484 37.24599186 33.37890625 56.94921875 C33.51762558 60.36705818 33.51850183 63.77898864 33.50390625 67.19921875 C33.50777344 68.08996094 33.51164063 68.98070312 33.515625 69.8984375 C33.50900594 74.45897118 33.26500428 78.70682887 32.51171875 83.20703125 C32.22017292 85.90263532 32.09630944 87.39754376 33.33837891 89.82226562 C34.82367875 91.58991231 36.38003645 93.06745947 38.12890625 94.57421875 C38.72654785 95.12489014 39.32418945 95.67556152 39.93994141 96.24291992 C49.52020597 104.91556707 59.92049795 111.13496569 71.37890625 116.94921875 C69.41930691 119.01410999 67.77207238 120.33313406 65.31640625 121.88671875 C62.33994428 123.97657502 61.61756161 124.68459633 60.37890625 127.94921875 C60.07929005 130.45992136 60.07929005 130.45992136 60.10546875 133.16015625 C60.08484375 134.15789062 60.06421875 135.155625 60.04296875 136.18359375 C60.01702527 138.26944957 59.99873734 140.3554153 59.98828125 142.44140625 C59.84527807 148.60643211 59.4449584 152.22587246 55.37890625 156.94921875 C54.76015625 157.69171875 54.14140625 158.43421875 53.50390625 159.19921875 C48.87177295 163.01391676 43.71543958 163.39676845 37.91015625 163.265625 C32.71617992 162.61637796 28.96961705 160.32496863 25.06640625 156.94921875 C23.33072856 153.86356952 22.70818769 151.38709596 21.94140625 147.94921875 C20.78056961 142.88995744 19.77153591 140.04402601 15.37890625 136.94921875 C10.8482394 134.56032168 7.48136397 133.46296166 2.37890625 133.94921875 C-0.07134642 135.3943586 -0.07134642 135.3943586 -2.37109375 137.44921875 C-20.63305441 151.43763215 -42.5569488 154.74062912 -64.98828125 152.6328125 C-67.5967631 152.21318716 -70.0761249 151.65547805 -72.62109375 150.94921875 C-73.54277344 150.70429688 -74.46445313 150.459375 -75.4140625 150.20703125 C-97.42257329 143.63645868 -115.87122618 128.87084485 -126.93359375 108.69921875 C-136.62174352 90.18664727 -140.19151561 67.31007107 -134.62109375 46.94921875 C-134.37617188 46.02625 -134.13125 45.10328125 -133.87890625 44.15234375 C-127.30278044 22.15432999 -112.67771944 4.13051943 -92.62109375 -7.05078125 C-62.84907535 -22.33231243 -26.86525639 -21.01976096 0 0 Z " fill="#E74343" transform="translate(216.62109375,307.05078125)"/>
<path d="M0 0 C0.66298096 0.66201416 1.32596191 1.32402832 2.0090332 2.00610352 C2.70343506 2.71822998 3.39783691 3.43035645 4.11328125 4.1640625 C4.83153076 4.89359131 5.54978027 5.62312012 6.28979492 6.37475586 C11.69482912 11.91911711 16.74981329 17.61163693 21.42578125 23.7890625 C21.84102051 24.32789062 22.25625977 24.86671875 22.68408203 25.421875 C30.36915789 35.41835719 37.11306186 45.87916699 43.42578125 56.7890625 C44.01721924 57.80492432 44.01721924 57.80492432 44.62060547 58.84130859 C57.80289298 81.7599381 66.40839043 107.33478813 71.73828125 133.1640625 C71.95943604 134.2300769 71.95943604 134.2300769 72.18505859 135.31762695 C75.17041912 150.96014616 75.80059105 166.59575856 75.73828125 182.4765625 C75.73554703 183.92764908 75.73554703 183.92764908 75.73275757 185.40805054 C75.68732951 199.74097227 75.17844197 213.68680167 72.42578125 227.7890625 C72.26480957 228.68608887 72.10383789 229.58311523 71.93798828 230.50732422 C61.11540136 290.31745154 27.05763668 347.83152079 -21.57421875 384.7890625 C-22.11449707 385.20575195 -22.65477539 385.62244141 -23.21142578 386.05175781 C-33.20643035 393.7350498 -43.66630911 400.47749218 -54.57421875 406.7890625 C-55.25145996 407.18335449 -55.92870117 407.57764648 -56.62646484 407.98388672 C-95.10002595 430.11302598 -138.58311182 439.51720662 -182.57421875 438.7890625 C-182.57421875 438.4590625 -182.57421875 438.1290625 -182.57421875 437.7890625 C-181.06408203 437.5557019 -181.06408203 437.5557019 -179.5234375 437.31762695 C-175.70438501 436.72410458 -171.88805707 436.11435276 -168.07226562 435.50024414 C-166.43622298 435.23913608 -164.79951712 434.9821424 -163.16210938 434.72973633 C-151.91334553 432.99198196 -141.33840452 430.4871082 -130.57421875 426.7890625 C-129.70812988 426.50442139 -128.84204102 426.21978027 -127.94970703 425.92651367 C-96.92724355 415.63241652 -68.9249801 399.27529674 -45.02734375 377.0546875 C-42.87863324 375.07020964 -40.6854183 373.17310464 -38.44921875 371.2890625 C-7.98824593 344.6588814 14.51952364 302.06190519 23.98828125 263.2265625 C24.19807617 262.37231689 24.40787109 261.51807129 24.62402344 260.63793945 C25.98716775 254.94749459 27.18294084 249.24313653 28.17578125 243.4765625 C28.29123291 242.82163818 28.40668457 242.16671387 28.52563477 241.49194336 C30.59497536 228.61622064 30.63548347 215.48618117 30.61328125 202.4765625 C30.61201233 201.7057132 30.61074341 200.93486389 30.60943604 200.14065552 C30.4533116 150.3092211 13.6190555 100.89286133 -17.57421875 61.7890625 C-18.2909375 60.88027344 -19.00765625 59.97148437 -19.74609375 59.03515625 C-25.38861736 52.00201069 -31.39845237 45.35199466 -37.57421875 38.7890625 C-38.19039062 38.13035156 -38.8065625 37.47164062 -39.44140625 36.79296875 C-44.41285578 31.64311792 -49.97595547 27.23409814 -55.57421875 22.7890625 C-56.55261719 21.99371094 -57.53101563 21.19835937 -58.5390625 20.37890625 C-69.47783514 11.6747883 -81.43450785 4.67570589 -93.57421875 -2.2109375 C-93.57421875 -2.5409375 -93.57421875 -2.8709375 -93.57421875 -3.2109375 C-82.43037058 -3.36475332 -71.28646316 -3.51293462 -60.14244461 -3.6539011 C-54.96796819 -3.71953328 -49.79353244 -3.78711413 -44.61914062 -3.85913086 C-39.62660531 -3.92854512 -34.63402808 -3.99286351 -29.64138031 -4.05363274 C-27.73555869 -4.0777287 -25.82975948 -4.10366815 -23.92398834 -4.13147163 C-21.25697836 -4.17006758 -18.58996439 -4.20213865 -15.92285156 -4.23266602 C-15.13306915 -4.24561203 -14.34328674 -4.25855804 -13.52957153 -4.27189636 C-7.65079376 -4.32865496 -4.19754106 -4.21867441 0 0 Z " fill="#F08BC3" transform="translate(436.57421875,73.2109375)"/>
<path d="M0 0 C3.27365512 2.09849687 6.24483773 4.48967546 8 8 C8.58243949 11.26166116 8.83358512 12.87148302 8 16 C5.32111337 19.66913656 2.2597823 22.84370285 -1 26 C3.32739372 30.59019091 8.14177174 34.39459707 13.125 38.25 C14.34123047 39.20519531 14.34123047 39.20519531 15.58203125 40.1796875 C16.36191406 40.78554688 17.14179688 41.39140625 17.9453125 42.015625 C18.65187988 42.56508789 19.35844727 43.11455078 20.08642578 43.68066406 C22.06640492 45.17666276 22.06640492 45.17666276 25 46 C25.60996826 45.37432129 26.21993652 44.74864258 26.84838867 44.10400391 C29.12531663 41.7758045 31.40903638 39.4545429 33.69750977 37.13769531 C34.68464193 36.13552083 35.6690593 35.13066447 36.65063477 34.12304688 C38.06593722 32.67116033 39.4908767 31.22935111 40.91796875 29.7890625 C41.77156982 28.91975098 42.6251709 28.05043945 43.50463867 27.15478516 C47.11180857 24.03993519 49.68428767 23 54.4375 23 C58.96659411 24.27132466 61.56792037 25.93519559 64 30 C64.94294352 33.23465436 64.89226689 35.75437918 64 39 C62.13532139 42.14664515 59.6301935 44.48010494 57 47 C55.28083235 48.69305635 53.56817628 50.39243376 51.8581543 52.09472656 C50.66916797 53.27352851 49.47276916 54.44490458 48.26879883 55.60839844 C46.80903143 57.03553699 45.39974992 58.51394971 44 60 C44 60.66 44 61.32 44 62 C45.38238179 63.3163013 45.38238179 63.3163013 47.21875 64.609375 C47.90453125 65.11726563 48.5903125 65.62515625 49.296875 66.1484375 C50.02390625 66.67695313 50.7509375 67.20546875 51.5 67.75 C52.90625 68.78645833 54.3125 69.82291667 55.71875 70.859375 C56.42386719 71.37048828 57.12898437 71.88160156 57.85546875 72.40820312 C59.31964017 73.49499703 60.75926553 74.61545492 62.17578125 75.76367188 C62.87058594 76.32119141 63.56539062 76.87871094 64.28125 77.453125 C64.90064453 77.96520508 65.52003906 78.47728516 66.15820312 79.00488281 C67.96126304 80.20243786 67.96126304 80.20243786 70.09155273 79.78393555 C72.89177814 78.63368305 74.49448154 76.74949076 76.5625 74.5625 C82.63773036 68.17992241 82.63773036 68.17992241 87.3125 67.5625 C92.2026031 68.14268172 93.55480913 69.55480913 97 73 C99.03029551 76.04544327 99.70181095 78.01691748 99.66796875 81.671875 C98.43712313 85.96183986 95.08338075 88.73902232 91.96875 91.80078125 C89.66650587 93.88058392 89.66650587 93.88058392 90 97 C92.39585286 99.64587234 92.39585286 99.64587234 95 102 C96 103 96 103 96.4375 106.625 C96.41275866 111.2021479 94.5632848 113.41236226 91.5078125 116.65234375 C89.24243492 118.67709832 87.94380437 119.00786739 84.875 119.4375 C79.64462091 118.84697333 76.88108632 116.38712988 73 113 C69.66878456 114.45009686 67.47943438 116.27477676 64.92578125 118.84375 C64.17619141 119.59527344 63.42660156 120.34679687 62.65429688 121.12109375 C61.88150391 121.90613281 61.10871094 122.69117188 60.3125 123.5 C59.52810547 124.28503906 58.74371094 125.07007813 57.93554688 125.87890625 C54.00663013 129.59448109 54.00663013 129.59448109 51 134 C51.57234375 134.26683594 52.1446875 134.53367187 52.734375 134.80859375 C57.25193582 137.18420763 62.07246195 140.17250499 63.7265625 145.21484375 C64.00802488 149.54788304 63.08439276 152.51606722 60.5 156 C57.5810929 158.95332817 55.08135799 160.10880972 50.93359375 160.265625 C47.58164223 159.80515489 45.61385708 158.08041686 43 156 C41.38282965 154.90501316 39.7574057 153.82214166 38.125 152.75 C36.74955781 151.83399697 35.37448515 150.91743847 34 150 C33.56131592 150.4439209 33.12263184 150.8878418 32.6706543 151.34521484 C30.67890386 153.35777029 28.68325526 155.3664162 26.6875 157.375 C25.99720703 158.07367188 25.30691406 158.77234375 24.59570312 159.4921875 C23.92861328 160.1625 23.26152344 160.8328125 22.57421875 161.5234375 C21.96151123 162.14138184 21.34880371 162.75932617 20.7175293 163.39599609 C17.22766619 166.65518594 14.76559908 167.4428319 9.99609375 167.3203125 C6.82429438 166.81133491 5.19673786 165.2595018 3 163 C2.401875 162.401875 1.80375 161.80375 1.1875 161.1875 C-0.72440854 157.66556322 -0.77167971 155.98701183 0 152 C2.68923747 148.36092148 5.83282682 145.22229803 9 142 C10.36569741 140.46853859 11.72123241 138.92790203 13.0625 137.375 C13.63097656 136.72273437 14.19945312 136.07046875 14.78515625 135.3984375 C15.18605469 134.93695313 15.58695312 134.47546875 16 134 C15.14849365 133.60361328 15.14849365 133.60361328 14.27978516 133.19921875 C11.84385746 131.91786548 9.73665261 130.4479682 7.5234375 128.8125 C6.688125 128.19632813 5.8528125 127.58015625 4.9921875 126.9453125 C4.12851562 126.30335938 3.26484375 125.66140625 2.375 125 C1.50359375 124.35804688 0.6321875 123.71609375 -0.265625 123.0546875 C-6.72442336 118.27557664 -6.72442336 118.27557664 -9 116 C-13.02095578 116.2143938 -15.00090592 118.66913355 -17.6953125 121.4375 C-18.57574219 122.33210938 -19.45617187 123.22671875 -20.36328125 124.1484375 C-21.27464844 125.08945312 -22.18601562 126.03046875 -23.125 127 C-24.93799848 128.85622565 -26.75300097 130.71049677 -28.5703125 132.5625 C-29.77324951 133.80193359 -29.77324951 133.80193359 -31.00048828 135.06640625 C-34.31146222 138.2682272 -37.10597698 138.58611533 -41.59765625 138.53515625 C-45.52595374 137.66007209 -47.43089543 135.42114812 -49.796875 132.28125 C-51.40777675 129.22681292 -51.69771463 127.32415447 -50.8828125 123.98046875 C-49.07204501 119.91826026 -46.12867569 117.09795219 -43 114 C-41.88079156 112.86920062 -40.76236368 111.73762838 -39.64453125 110.60546875 C-36.4501289 107.38265423 -33.23041474 104.18669484 -30 101 C-33.58005306 97.14170448 -37.66376457 94.12172314 -41.875 91 C-42.56980469 90.47921875 -43.26460938 89.9584375 -43.98046875 89.421875 C-47.91267917 86.4893791 -51.89102842 83.67920404 -56 81 C-57.03060547 82.04800781 -57.03060547 82.04800781 -58.08203125 83.1171875 C-59.43361328 84.48230469 -59.43361328 84.48230469 -60.8125 85.875 C-61.70582031 86.77992188 -62.59914063 87.68484375 -63.51953125 88.6171875 C-66.7459169 91.71655009 -68.307173 92.92049526 -72.8125 93.4375 C-77.66659546 93.33022717 -79.67058752 91.40868421 -83 88 C-85.56205842 84.15691236 -85.67366765 82.5659696 -85 78 C-83.43657533 75.75937 -81.72684574 73.85300054 -79.82421875 71.89453125 C-78.03064845 70.03182977 -76.51020607 68.09570135 -75 66 C-75.56589844 65.5875 -76.13179687 65.175 -76.71484375 64.75 C-83.4607888 59.43860566 -83.4607888 59.43860566 -84.25 54.9375 C-83.91509691 49.6627764 -81.93674732 47.28142269 -78.6171875 43.37109375 C-76.02712261 41.17516917 -73.78880276 41.35399304 -70.49609375 41.4296875 C-65.79210136 42.5044651 -62.46674773 45.78731652 -59 49 C-55.66878456 47.54990314 -53.47943438 45.72522324 -50.92578125 43.15625 C-50.17619141 42.40472656 -49.42660156 41.65320313 -48.65429688 40.87890625 C-47.88150391 40.09386719 -47.10871094 39.30882812 -46.3125 38.5 C-45.52810547 37.71496094 -44.74371094 36.92992187 -43.93554688 36.12109375 C-40.00663013 32.40551891 -40.00663013 32.40551891 -37 28 C-37.57363281 27.7421875 -38.14726562 27.484375 -38.73828125 27.21875 C-41.20509293 25.8894836 -43.09168096 24.35595983 -45.1875 22.5 C-45.88230469 21.8915625 -46.57710938 21.283125 -47.29296875 20.65625 C-49.50543337 18.5096024 -49.94704991 17.37947563 -50.375 14.3125 C-49.87533806 9.89881952 -47.96308654 7.23852839 -45 4 C-41.15543246 1.43695497 -39.5779655 1.40929477 -35 2 C-30.99932029 4.13864329 -27.39554105 6.78261313 -23.98046875 9.76171875 C-22.11208781 11.17948992 -22.11208781 11.17948992 -20.0390625 10.96875 C-17.22631183 9.63242401 -15.50970344 7.75607454 -13.375 5.5 C-8.84884208 0.74828603 -6.79434747 -0.77967922 0 0 Z " fill="#783D3E" transform="translate(320,238)"/>
<path d="M0 0 C1.89492187 0.01353516 1.89492187 0.01353516 3.828125 0.02734375 C4.79234375 0.03894531 5.7565625 0.05054687 6.75 0.0625 C5.08523775 1.73674807 3.40871021 3.38310556 1.6875 5 C-1.8611832 8.7776305 -2.72035602 11.68057328 -2.5625 16.96875 C-1.9933565 20.78201143 -0.56654966 22.95344651 1.75 26.0625 C6.41928879 29.02730849 10.46399394 29.48370296 15.86328125 29.41552734 C17.04982803 29.41876762 17.04982803 29.41876762 18.26034546 29.42207336 C19.96924895 29.42514935 21.67817475 29.42158704 23.38705444 29.41205978 C26.09462347 29.39827394 28.80146349 29.40478625 31.5090332 29.41690063 C39.20366289 29.44780016 46.89812028 29.44297609 54.59277344 29.42285156 C59.30720536 29.41192492 64.02108753 29.42514065 68.73544312 29.45274734 C70.52794046 29.45818055 72.32049305 29.45414275 74.11294556 29.44034958 C76.62147882 29.42126585 79.12821567 29.43271941 81.63671875 29.45068359 C82.37248138 29.43734482 83.10824402 29.42400604 83.86630249 29.41026306 C87.69825861 29.47112641 90.21334434 30.04712834 93.19067383 32.38198853 C96.36247923 35.70398041 96.83141971 37.50299647 96.75 42.0625 C95.13536898 45.80164551 93.19399922 47.93989632 89.75 50.0625 C86.98046875 50.43359375 86.98046875 50.43359375 83.9375 50.5 C78.33503789 50.85527809 75.17671432 51.57763979 70.75 55.0625 C67.66769413 59.43738575 66.84712731 63.80757803 67.75 69.0625 C69.07696739 72.82598944 70.86368015 75.46271691 74.22094727 77.73461914 C79.06732642 79.55817197 83.45181994 79.5112223 88.58984375 79.49609375 C89.63016251 79.5013356 90.67048126 79.50657745 91.74232483 79.51197815 C93.93685007 79.51838584 96.13140972 79.51707764 98.32592773 79.50854492 C101.67298896 79.50003689 105.01834161 79.52881228 108.36523438 79.56054688 C110.50260366 79.56215917 112.63997595 79.56158082 114.77734375 79.55859375 C116.26982887 79.57544472 116.26982887 79.57544472 117.79246521 79.59263611 C123.97897904 79.53096858 127.71405225 78.73547894 132.75 75.0625 C135.83230587 70.68761425 136.65287269 66.31742197 135.75 61.0625 C134.39838204 57.22909766 132.50470434 54.61472269 129.1875 52.1875 C125.18401654 50.87726905 121.4909412 50.65269742 117.30859375 50.36328125 C113.11936749 49.87080732 110.91428819 48.11035937 107.875 45.375 C106.15487939 41.83919653 106.61615886 38.76841031 107.75 35.0625 C110.00451698 32.13162793 111.23442865 31.23435712 114.75 30.0625 C116.29464875 29.96093358 117.84278518 29.90786992 119.390625 29.88671875 C120.29683594 29.86287109 121.20304688 29.83902344 122.13671875 29.81445312 C124.02972627 29.77184109 125.92302163 29.74039853 127.81640625 29.72070312 C133.95930563 29.53389643 137.73316003 28.68392752 142.75 25.0625 C144.68694583 22.48046279 144.68694583 22.48046279 145.75 20.0625 C153.75347641 21.90945609 159.83195552 27.08144389 164.125 33.9375 C165.03347351 35.62827014 165.91104138 37.33618131 166.75 39.0625 C167.0903125 39.72507813 167.430625 40.38765625 167.78125 41.0703125 C172.23790635 51.59297333 170.74429063 65.6436944 167.0234375 76.09375 C163.98439714 83.17862936 160.17791257 89.76123981 155.75 96.0625 C156.306875 96.39121094 156.86375 96.71992188 157.4375 97.05859375 C166.33904374 102.60702219 172.96026832 109.04464435 176.12109375 119.25 C178.29650781 128.97855979 176.4677767 137.3163021 171.75 146.0625 C168.98846044 149.66450812 166.01399558 152.91228204 162.75 156.0625 C161.89664063 155.7221875 161.04328125 155.381875 160.1640625 155.03125 C152.84018961 152.17312872 145.49323689 149.64992067 137.94726562 147.43823242 C124.87303031 143.60161923 112.383119 138.87910891 99.86328125 133.54272461 C87.03088517 128.10371889 76.02639172 125.58949411 62 125.875 C60.07800781 125.89530273 60.07800781 125.89530273 58.1171875 125.91601562 C54.99433305 125.95097295 51.87240459 126.0000391 48.75 126.0625 C48.54246094 125.05832031 48.33492188 124.05414063 48.12109375 123.01953125 C45.2591786 109.99685696 40.78223183 97.41068258 29.75 89.0625 C23.37796604 85.22774653 17.83968816 82.91659051 10.375 82.9375 C9.45976562 82.93492187 8.54453125 82.93234375 7.6015625 82.9296875 C4.58564456 83.07015491 1.7160814 83.51128133 -1.25 84.0625 C-1.60191406 83.10730469 -1.95382813 82.15210938 -2.31640625 81.16796875 C-8.44617741 64.94061651 -17.52083164 49.61934916 -33.25 41.0625 C-37.19218657 39.49029068 -41.16073017 38.19372413 -45.25 37.0625 C-43.20074134 27.04907701 -36.26723854 19.09211462 -29.25 12.0625 C-28.38568359 11.18078125 -28.38568359 11.18078125 -27.50390625 10.28125 C-19.84629993 3.08273278 -10.31311101 -0.09549177 0 0 Z " fill="#509C49" transform="translate(233.25,89.9375)"/>
<path d="M0 0 C0.65426153 -0.00538554 1.30852306 -0.01077108 1.9826107 -0.01631981 C4.16129076 -0.03055628 6.33935952 -0.02350683 8.51806641 -0.01637268 C10.08555589 -0.02207848 11.65304122 -0.02904355 13.22052002 -0.03717041 C17.46842607 -0.05509238 21.71612544 -0.05393545 25.96405792 -0.04822803 C29.51285727 -0.04513525 33.06161698 -0.05122951 36.61041069 -0.05726677 C44.98265768 -0.07130678 53.35480261 -0.06975464 61.72705078 -0.05836487 C70.36020358 -0.0468796 78.99304587 -0.0609673 87.62615776 -0.08776134 C95.04374312 -0.10991965 102.46123102 -0.11655557 109.87884712 -0.11068493 C114.30673791 -0.107315 118.73442957 -0.10973294 123.16229248 -0.12693596 C127.32552514 -0.14240553 131.48829766 -0.13844969 135.65151215 -0.11963081 C137.17770042 -0.11594516 138.7039228 -0.11905277 140.23007965 -0.1295166 C142.31700151 -0.14273093 144.40240087 -0.13117811 146.48925781 -0.11352539 C148.23911484 -0.11321146 148.23911484 -0.11321146 150.02432251 -0.1128912 C154.90330789 0.64550863 158.08892725 2.89968363 161.09228516 6.7665863 C163.18293107 11.52191989 162.85079961 16.30411208 162.24462891 21.38768005 C160.22756182 25.98659302 158.06895325 27.90462219 153.43783951 29.77895927 C148.88914004 31.04144081 144.20104524 30.80801513 139.51367188 30.78831482 C138.35025269 30.79529388 137.1868335 30.80227295 135.98815918 30.8094635 C132.15430413 30.82940962 128.32071868 30.82893994 124.48681641 30.8290863 C121.81834787 30.84085923 119.14992357 30.85398449 116.48147583 30.86911011 C108.74599198 30.90998791 101.01053084 30.92867052 93.27496338 30.94528198 C83.42136253 30.96767463 73.56782732 31.001219 63.71433365 31.05248111 C59.11868009 31.07556883 54.52316389 31.08217224 49.92745972 31.08557129 C47.52390329 31.09534604 45.12034878 31.10560906 42.71679688 31.11643982 C41.62368195 31.11388687 40.53056702 31.11133392 39.40432739 31.10870361 C38.3978717 31.11553162 37.39141602 31.12235962 36.35446167 31.12939453 C35.4832411 31.13102883 34.61202053 31.13266314 33.71439934 31.13434696 C29.78079627 31.53783055 27.04443181 32.58787715 24.24462891 35.38768005 C22.85214107 41.09304637 22.85214107 41.09304637 24.93212891 46.32518005 C28.702481 49.68792652 32.15226034 49.51144666 37.07958984 49.51365662 C38.2547113 49.51746338 39.42983276 49.52127014 40.64056396 49.52519226 C41.90724915 49.52621948 43.17393433 49.5272467 44.47900391 49.52830505 C46.4764764 49.5419402 48.47394921 49.55560544 50.47140884 49.57101059 C55.38966339 49.60890175 60.30765674 49.64030109 65.22607422 49.63816833 C67.9864518 49.63753142 70.74616382 49.65006157 73.50640869 49.6771698 C76.10179197 49.70241106 78.69744265 49.70896088 81.29290771 49.69438171 C88.46236527 49.7934695 93.82004214 50.39582773 99.24462891 55.38768005 C101.93395175 59.16954031 102.8562186 62.62003316 102.65869141 67.2978363 C101.64861178 72.39587972 98.99155389 76.20952134 94.72509766 79.0868988 C89.19985796 81.15188738 83.6982839 80.85849818 77.85595703 80.9150238 C71.07229443 81.06499962 71.07229443 81.06499962 65.24462891 84.38768005 C63.11190429 87.10205684 63.24716934 88.43594839 63.43212891 91.95018005 C64.35875599 95.88437505 64.35875599 95.88437505 67.24462891 98.38768005 C70.19831931 99.37224352 72.34758031 99.51586431 75.43212891 99.63768005 C81.07540118 100.12352469 85.02762861 101.56343959 89.24462891 105.38768005 C91.93395175 109.16954031 92.8562186 112.62003316 92.65869141 117.2978363 C91.88141011 121.22090697 89.99113449 124.5070428 87.24462891 127.38768005 C81.76466964 130.95306754 76.75956026 130.85514934 70.43994141 130.85643005 C69.40199432 130.86404358 68.36404724 130.8716571 67.29464722 130.87950134 C65.10433348 130.89028103 62.91396844 130.89316414 60.72363281 130.88865662 C57.38730362 130.8876852 54.05328216 130.9293148 50.71728516 130.97361755 C48.58317534 130.97882578 46.44905758 130.98151273 44.31494141 130.98143005 C43.32511261 130.99782532 42.33528381 131.01422058 41.31546021 131.03111267 C34.77799107 130.9664663 30.25259847 129.72436504 25.24462891 125.38768005 C22.55530606 121.6058198 21.63303921 118.15532695 21.83056641 113.4775238 C22.845708 108.35393177 25.70391161 104.55261264 29.80712891 101.45018005 C33.14020348 100.419957 35.84320028 100.15394056 39.30712891 99.95018005 C43.03467328 99.70506857 45.06360789 99.47996528 48.43212891 97.76268005 C50.87482136 94.56191063 51.24462891 92.39644981 51.24462891 88.38768005 C49.65623956 84.81380403 48.52828533 83.57678433 45.24462891 81.38768005 C42.62876947 81.20041696 40.11909539 81.12814196 37.50366211 81.1481781 C36.32259132 81.14515686 36.32259132 81.14515686 35.11766052 81.14207458 C33.40707564 81.13852842 31.69647765 81.139297 29.98589516 81.14385033 C27.27390586 81.14944315 24.56234438 81.14028414 21.85038757 81.12664795 C14.1394162 81.08952699 6.4285875 81.07095288 -1.2824707 81.08226013 C-5.99996882 81.08812907 -10.71686812 81.06976013 -15.43424416 81.03637123 C-17.22786599 81.02844094 -19.0215535 81.02966193 -20.81516075 81.04039574 C-38.29184206 81.14043934 -38.29184206 81.14043934 -44.75537109 75.38768005 C-47.44370388 71.60721207 -48.37199927 68.15456188 -48.16552734 63.4775238 C-47.39203586 59.53640053 -45.60071037 56.20800536 -42.75537109 53.38768005 C-37.12124228 50.42594635 -32.58063947 49.97065963 -26.27880859 50.0165863 C-24.45588994 49.99921543 -22.63297331 49.98163094 -20.81005859 49.96385193 C-17.96171476 49.95376015 -15.11349775 49.95019012 -12.26513672 49.95188904 C-9.49848148 49.94831885 -6.7327918 49.92099156 -3.96630859 49.8915863 C-3.11724945 49.89976883 -2.26819031 49.90795135 -1.3934021 49.91638184 C2.63939146 49.86565823 4.74886841 49.69132232 8.26171875 47.53977966 C10.80298569 44.78168215 11.16857694 43.11422654 11.24462891 39.38768005 C10.21008029 35.34353545 8.78826818 33.53331413 5.24462891 31.38768005 C2.47047574 30.99639682 2.47047574 30.99639682 -0.50537109 31.01268005 C-6.38817165 30.64635181 -10.39666929 29.42958398 -14.75537109 25.38768005 C-17.44469394 21.6058198 -18.36696079 18.15532695 -18.16943359 13.4775238 C-17.3921523 9.55445314 -15.50187668 6.2683173 -12.75537109 3.38768005 C-8.33869849 0.77683308 -5.10658821 0.0106367 0 0 Z " fill="#FEF4F4" transform="translate(277.75537109375,39.61231994628906)"/>
<path d="M0 0 C1.33332645 0.01007142 2.66666045 0.01918977 4 0.02734375 C7.20853441 0.050594 10.41666204 0.08326657 13.625 0.125 C13.625 0.455 13.625 0.785 13.625 1.125 C12.88564209 1.20016846 12.14628418 1.27533691 11.38452148 1.3527832 C-47.01523595 7.36311997 -103.69094046 30.12024913 -141.9375 76.5625 C-143.41858364 78.41513577 -144.89781545 80.26925382 -146.375 82.125 C-147.03242188 82.91519531 -147.68984375 83.70539063 -148.3671875 84.51953125 C-174.18952701 115.78633994 -190.4262326 155.19369623 -196.375 195.125 C-196.49069336 195.8660498 -196.60638672 196.60709961 -196.72558594 197.37060547 C-200.03765323 219.3904475 -199.67509431 243.12279979 -196.375 265.125 C-196.21354492 266.25881104 -196.21354492 266.25881104 -196.04882812 267.41552734 C-189.68243285 310.04699627 -168.5316407 351.35634757 -139.4375 382.875 C-137.62442906 384.85289558 -135.90460986 386.87696817 -134.1875 388.9375 C-104.32211589 423.06936755 -59.0129728 448.36709546 -15.375 459.125 C-14.14185059 459.43727539 -14.14185059 459.43727539 -12.88378906 459.75585938 C0.84136689 463.19597564 14.57718096 465.47630098 28.625 467.125 C28.625 467.455 28.625 467.785 28.625 468.125 C13.99765388 468.52882244 0.04055335 467.66417478 -14.375 465.125 C-15.28975098 464.96402832 -16.20450195 464.80305664 -17.14697266 464.63720703 C-76.95658229 453.69680928 -134.38961954 419.793488 -171.375 371.125 C-171.79168945 370.58472168 -172.20837891 370.04444336 -172.63769531 369.48779297 C-180.3209873 359.4927884 -187.06342968 349.03290964 -193.375 338.125 C-193.76929199 337.44775879 -194.16358398 336.77051758 -194.56982422 336.07275391 C-224.01105635 284.88644115 -232.31947718 226.72856796 -217.16015625 169.97265625 C-208.58173572 138.85987732 -193.17149438 109.80199967 -172.375 85.125 C-171.92511719 84.58633301 -171.47523438 84.04766602 -171.01171875 83.49267578 C-162.47195635 73.2827026 -153.61413567 63.67157805 -143.375 55.125 C-142.87822754 54.70379883 -142.38145508 54.28259766 -141.86962891 53.84863281 C-110.01451649 26.96123396 -70.51948475 8.86595455 -29.375 2.125 C-28.38016602 1.95436035 -27.38533203 1.7837207 -26.36035156 1.60791016 C-17.51616796 0.19618009 -8.94455677 -0.11841063 0 0 Z " fill="#9CB8C3" transform="translate(225.375,43.875)"/>
<path d="M0 0 C1.10214844 0.33 2.20429688 0.66 3.33984375 1 C4.50644531 1.391875 5.67304688 1.78375 6.875 2.1875 C8.51082031 2.73470703 8.51082031 2.73470703 10.1796875 3.29296875 C14.06231192 5.64297827 14.57579521 7.7622438 16 12 C14.90042969 12.68964844 13.80085937 13.37929687 12.66796875 14.08984375 C-12.46229433 29.99741706 -35.04999258 50.88330118 -42 81 C-43.04414063 80.71125 -44.08828125 80.4225 -45.1640625 80.125 C-66.68314777 74.55176526 -87.77503283 75.35722194 -108 85 C-108.90234375 85.41894531 -109.8046875 85.83789062 -110.734375 86.26953125 C-129.97032833 95.91530553 -143.80647233 113.32663027 -151.23046875 133.3125 C-151.90267966 135.5342675 -152.51496518 137.73092908 -153 140 C-160.45688675 139.71319666 -167.04795068 137.60280428 -173 133 C-179.14952362 123.96109522 -179.29231482 112.64796147 -177.5234375 102.1796875 C-174.15938511 89.25037771 -165.15669297 78.53286739 -153.875 71.625 C-152.26189252 70.72826466 -150.63718744 69.85197846 -149 69 C-148.24074219 68.59910156 -147.48148438 68.19820313 -146.69921875 67.78515625 C-139.73599368 64.20806988 -134.57933316 63.32273223 -126.875 64.75 C-123.02779909 65.32971308 -123.02779909 65.32971308 -120.0625 63.5 C-117.3774312 60.24537115 -117 58.19763489 -117 54 C-118.58838934 50.42612398 -119.71634358 49.18910428 -123 47 C-124.45911408 39.56137921 -122.50146739 31.26007477 -118.7109375 24.8046875 C-112.14220286 15.56630669 -103.19736979 9.37911783 -92 7 C-78.44278079 6.06906573 -65.78651065 7.05971114 -53 11.6875 C-52.35184326 11.90680176 -51.70368652 12.12610352 -51.03588867 12.35205078 C-48.46035914 13.35831368 -46.43350574 14.28018173 -44.97753906 16.69775391 C-44.26047573 18.44248744 -43.6263222 20.22067557 -43 22 C-39.97294732 24.69071349 -38.50449986 25 -34.4375 25 C-30.94159166 24.22882534 -30.94159166 24.22882534 -28.5 21.9375 C-26.34355566 17.71446317 -26.88875691 15.59313809 -28 11 C-29.83599733 8.37714667 -32.10598949 7.29731506 -35 6 C-26.79616769 -4.44124112 -11.46242387 -3.53256081 0 0 Z " fill="#B7EA69" transform="translate(236,214)"/>
<path d="M0 0 C4.51868921 3.45189021 8.78293328 7.18922874 13 11 C12.34 12.32 11.68 13.64 11 15 C9.99839844 14.57847656 8.99679688 14.15695313 7.96484375 13.72265625 C6.62256912 13.16885064 5.28011133 12.61548883 3.9375 12.0625 C3.28072266 11.78470703 2.62394531 11.50691406 1.94726562 11.22070312 C-7.56505715 7.3314283 -18.8271429 6.08345971 -28.5625 9.8125 C-31.65420603 11.13751687 -33.75083151 12.4921412 -36 15 C-35.236875 15.391875 -34.47375 15.78375 -33.6875 16.1875 C-30.61851513 18.25728049 -29.39965131 19.57863014 -28 23 C-27.91719638 27.63700289 -28.53367126 29.45405415 -31.5625 33 C-35.36637856 35.21316571 -36.9837061 35.50467924 -41.16796875 34.640625 C-43.99817521 33.65095792 -45.32634163 32.47701439 -47 30 C-47.75 26.75 -47.75 26.75 -48 24 C-48.61746094 23.81824219 -49.23492187 23.63648438 -49.87109375 23.44921875 C-54.86230562 21.96780884 -59.80181473 20.41720866 -64.69921875 18.6484375 C-78.57929087 14.73656658 -94.85996415 15.3792453 -107.4453125 22.35546875 C-114.58370122 26.74922946 -120.86267285 32.63469969 -123 41 C-123.81996762 45.98684709 -124.45050157 50.97693792 -125 56 C-124.06607422 56.42732422 -124.06607422 56.42732422 -123.11328125 56.86328125 C-120.16623991 58.44847354 -119.29695498 59.92826452 -118 63 C-117.92204491 67.3654851 -118.59932313 69.43433854 -121.125 73 C-125.15054529 76.03134282 -129.58428999 74.85996632 -134.32324219 74.34326172 C-140.37178413 73.76161393 -143.901953 74.93725775 -149 78 C-149.72316406 78.35191406 -150.44632813 78.70382812 -151.19140625 79.06640625 C-163.56869188 85.24428621 -173.42366871 95.92812036 -178 109 C-180.76166881 119.97303072 -179.29872589 130.6945723 -175 141 C-187.25939985 135.41516229 -194.54302341 123.72475045 -199.3125 111.6875 C-201.91905179 97.70690403 -198.90401652 86.55813471 -191 75 C-189.42078981 72.83397947 -187.85059634 70.95340725 -186 69 C-185.34 69 -184.68 69 -184 69 C-184 68.34 -184 67.68 -184 67 C-173.71949179 57.99585285 -157.04198189 50 -143 50 C-143.144375 49.41734375 -143.28875 48.8346875 -143.4375 48.234375 C-146.25997387 35.76844876 -146.07185503 24.28416076 -139.4609375 13.1640625 C-133.01121421 3.6101943 -123.07533257 -1.39334558 -112 -4 C-96.18839211 -5.97309538 -81.06430983 -2.17215188 -67 5 C-66.34 5 -65.68 5 -65 5 C-63.6584751 3.40910873 -63.6584751 3.40910873 -62.3125 1.375 C-46.49258373 -20.21498234 -19.28525094 -13.33035965 0 0 Z " fill="#A1E42E" transform="translate(238,205)"/>
<path d="M0 0 C1.00095703 -0.01224609 2.00191406 -0.02449219 3.03320312 -0.03710938 C4.4650293 -0.04000977 4.4650293 -0.04000977 5.92578125 -0.04296875 C6.79243408 -0.04707764 7.65908691 -0.05118652 8.55200195 -0.05541992 C10.6875 0.1875 10.6875 0.1875 12.6875 2.1875 C11.51574219 2.55101562 10.34398437 2.91453125 9.13671875 3.2890625 C-3.88137359 7.41573535 -14.77194315 12.32648243 -25.3125 21.1875 C-26.03695312 21.78949219 -26.76140625 22.39148438 -27.5078125 23.01171875 C-34.20540819 28.63572609 -34.20540819 28.63572609 -38.3125 36.1875 C-37.425625 36.414375 -36.53875 36.64125 -35.625 36.875 C-30.41058224 38.94109006 -28.03797789 41.62493223 -25.6875 46.6875 C-23.76865198 52.38921985 -22.57513152 58.31312926 -21.3125 64.1875 C-24.00371209 63.61837978 -26.68956 63.03278364 -29.375 62.4375 C-30.50325195 62.20160156 -30.50325195 62.20160156 -31.65429688 61.9609375 C-38.75265597 60.36303848 -44.36405796 57.72975508 -49.3125 52.1875 C-49.580625 53.404375 -49.84875 54.62125 -50.125 55.875 C-51.48236134 61.98800861 -52.89826766 68.0874445 -54.3125 74.1875 C-53.49523437 74.0946875 -52.67796875 74.001875 -51.8359375 73.90625 C-47.07126182 74.28657888 -43.97517886 76.25613099 -39.9375 78.6875 C-39.20144531 79.11675781 -38.46539062 79.54601562 -37.70703125 79.98828125 C-35.90205456 81.04313776 -34.10631282 82.11376881 -32.3125 83.1875 C-32.3125 84.5075 -32.3125 85.8275 -32.3125 87.1875 C-34.84563114 88.70376852 -37.38737798 90.20030099 -39.9375 91.6875 C-41.00677734 92.33138672 -41.00677734 92.33138672 -42.09765625 92.98828125 C-46.34175957 95.4412951 -49.26038839 96.76124138 -54.3125 96.1875 C-54.11914062 96.93773437 -53.92578125 97.68796875 -53.7265625 98.4609375 C-52.06142681 105.00607481 -50.56067824 111.55012867 -49.3125 118.1875 C-48.6525 118.1875 -47.9925 118.1875 -47.3125 118.1875 C-47.10625 117.61 -46.9 117.0325 -46.6875 116.4375 C-43.92767587 111.92142416 -39.75306591 110.12645939 -34.7890625 108.921875 C-33.17459761 108.580606 -31.55726229 108.25266906 -29.9375 107.9375 C-29.10605469 107.76476562 -28.27460938 107.59203125 -27.41796875 107.4140625 C-25.3852018 106.99349003 -23.34914899 106.58885221 -21.3125 106.1875 C-21.88162022 108.87871209 -22.46721636 111.56456 -23.0625 114.25 C-23.29839844 115.37825195 -23.29839844 115.37825195 -23.5390625 116.52929688 C-24.83383324 122.28106687 -26.48858494 127.81040694 -31.1640625 131.74609375 C-36.09027778 134.1875 -36.09027778 134.1875 -38.3125 134.1875 C-29.32287984 151.10913795 -10.52054907 161.19588522 7.1875 166.6875 C9.01667353 167.20251002 10.84847703 167.70885019 12.6875 168.1875 C10.25370217 170.62129783 9.6197304 170.44371384 6.28515625 170.453125 C5.40013428 170.45731445 4.5151123 170.46150391 3.60327148 170.46582031 C2.1909021 170.45180176 2.1909021 170.45180176 0.75 170.4375 C-0.20769287 170.43073242 -1.16538574 170.42396484 -2.15209961 170.41699219 C-8.72532689 170.32086132 -14.95095493 169.95290485 -21.3125 168.1875 C-22.23417969 167.94257813 -23.15585938 167.69765625 -24.10546875 167.4453125 C-46.11397954 160.87473993 -64.56263243 146.1091261 -75.625 125.9375 C-85.31314977 107.42492852 -88.88292186 84.54835232 -83.3125 64.1875 C-83.06757812 63.26453125 -82.82265625 62.3415625 -82.5703125 61.390625 C-75.99418669 39.39261124 -61.36912569 21.36880068 -41.3125 10.1875 C-27.59664147 3.14735522 -15.38512374 0.01010185 0 0 Z " fill="#C92D2C" transform="translate(165.3125,289.8125)"/>
<path d="M0 0 C2.78856123 1.96189758 5.42978719 4.01484498 8.046875 6.19921875 C8.68238281 6.72128906 9.31789062 7.24335938 9.97265625 7.78125 C18.79346901 15.79095354 25.4457934 27.96167266 29.046875 39.19921875 C29.046875 40.18921875 29.046875 41.17921875 29.046875 42.19921875 C30.1915625 41.70421875 30.1915625 41.70421875 31.359375 41.19921875 C40.32151141 38.76880888 48.86593729 39.80137363 57.046875 44.19921875 C67.93242156 52.06449806 76.19787313 63.79858326 78.578125 77.1875 C78.81679834 79.53113956 78.9895773 81.84480403 79.046875 84.19921875 C74.85998975 85.76930072 74.85998975 85.76930072 72.046875 85.19921875 C69.71998305 82.93140804 67.9242362 80.46841406 66.01171875 77.84375 C63.40065142 74.32945064 60.6366772 71.68566183 57.046875 69.19921875 C56.45132813 68.78671875 55.85578125 68.37421875 55.2421875 67.94921875 C49.15291372 64.53732994 43.02716444 64.95116079 36.25463867 65.43408203 C33.9609375 65.546875 33.9609375 65.546875 30.046875 65.19921875 C28.23828125 63.17578125 28.23828125 63.17578125 27.046875 60.19921875 C26.46716777 58.98335911 25.87933139 57.77135526 25.28515625 56.5625 C24.97521729 55.90765625 24.66527832 55.2528125 24.34594727 54.578125 C16.77328935 38.71695782 6.51346986 27.08611588 -9.953125 20.19921875 C-18.15483812 17.49281845 -27.93484387 18.34188075 -35.6875 21.91015625 C-39.37614878 24.00887021 -42.70402485 26.47650913 -45.953125 29.19921875 C-45.64246094 29.77929688 -45.33179688 30.359375 -45.01171875 30.95703125 C-43.43362399 34.29956405 -42.67818738 37.52633415 -42.953125 41.19921875 C-45.3594518 45.33509294 -46.85850302 46.86692279 -51.453125 48.26171875 C-55.40834551 48.19108981 -56.93555433 47.71386098 -59.953125 45.19921875 C-60.99102081 43.55588371 -61.98880424 41.88678008 -62.953125 40.19921875 C-70.66782274 31.1620014 -82.9866192 28.10746395 -94.4453125 26.94677734 C-108.08869547 26.02667838 -119.32157439 27.70861318 -130.21484375 36.6171875 C-136.48801975 42.32648251 -139.74744005 48.35521973 -142.953125 56.19921875 C-143.613125 55.86921875 -144.273125 55.53921875 -144.953125 55.19921875 C-145.64328424 39.67830439 -144.94159407 27.22924887 -133.953125 15.19921875 C-126.7987489 7.66663775 -117.23671352 2.25425314 -106.6796875 1.9609375 C-89.27917327 1.57688831 -73.73953448 5.26951529 -59.6484375 15.9453125 C-58.03657057 17.39743591 -58.03657057 17.39743591 -55.953125 17.19921875 C-54.66493724 15.53493939 -53.44746274 13.81562996 -52.265625 12.07421875 C-39.75233634 -5.44887848 -19.1810482 -11.69637992 0 0 Z " fill="#A0E42F" transform="translate(202.953125,131.80078125)"/>
<path d="M0 0 C-2.07485997 4.5775197 -5.21746638 7.56043449 -8.75 11.0625 C-9.4203125 11.72789795 -10.090625 12.3932959 -10.78125 13.07885742 C-20.99806964 23.06162163 -32.35465306 31.25325845 -44.35888672 38.94677734 C-45.75841588 39.84495777 -47.14788966 40.75877452 -48.53515625 41.67578125 C-73.95897923 57.85457769 -107.81618406 68.0541506 -137.8359375 68.203125 C-138.75476715 68.20882507 -139.6735968 68.21452515 -140.62026978 68.22039795 C-142.55819571 68.22979112 -144.49613721 68.23635913 -146.43408203 68.24023438 C-149.33265788 68.2498594 -152.23049859 68.28090435 -155.12890625 68.3125 C-171.13287203 68.4043065 -186.50492792 66.68414239 -201.9375 62.3125 C-202.83500977 62.06338867 -203.73251953 61.81427734 -204.65722656 61.55761719 C-229.63156925 54.36843075 -229.63156925 54.36843075 -235 49 C-234.26587891 49.02094727 -233.53175781 49.04189453 -232.77539062 49.06347656 C-210.16901252 49.62261992 -188.44544952 48.14491243 -170.0625 33.5 C-166.6597405 30.86758036 -164.61201942 29.4274305 -160.25 29.75 C-154.68490581 31.03425251 -150.51006947 33.28586708 -146.6875 37.625 C-145.16250753 40.67498495 -144.57318098 42.76548464 -144 46.0625 C-143.23819751 50.39891416 -142.38905601 52.97732842 -139 56 C-133.42900315 59.23117817 -128.37482276 59.73910988 -122 59 C-116.10073651 57.25923372 -113.49387763 54.82977202 -110 50 C-108.7546239 47.50924779 -108.85830321 45.76900166 -108.82421875 42.984375 C-108.80037109 41.98019531 -108.77652344 40.97601563 -108.75195312 39.94140625 C-108.70930396 37.82962652 -108.67788125 35.71758743 -108.65820312 33.60546875 C-108.46195556 26.45840626 -107.35701628 22.56384667 -102.3515625 17.25 C-99.2099939 14.9755612 -96.96924577 13.92458502 -93.02856445 14.23120117 C-91.922146 14.43720947 -90.81572754 14.64321777 -89.67578125 14.85546875 C-81.92888444 16.10701446 -74.39851554 16.33202171 -66.5625 16.3125 C-64.62793945 16.33666992 -64.62793945 16.33666992 -62.65429688 16.36132812 C-49.95663192 16.3676865 -38.06939743 13.91613543 -25.9375 10.25 C-25.10041504 9.99976074 -24.26333008 9.74952148 -23.40087891 9.49169922 C-16.7306232 7.41115092 -10.68465949 4.65213257 -4.5546875 1.3203125 C-2 0 -2 0 0 0 Z " fill="#9BB8C2" transform="translate(384,410)"/>
<path d="M0 0 C-1.36983503 3.16115776 -1.9890638 3.9927092 -5 6 C-6.89900208 6.2784729 -6.89900208 6.2784729 -9.06567383 6.31884766 C-10.28889091 6.34865219 -10.28889091 6.34865219 -11.53681946 6.37905884 C-12.8585743 6.39638565 -12.8585743 6.39638565 -14.20703125 6.4140625 C-15.12401291 6.43342865 -16.04099457 6.4527948 -16.98576355 6.4727478 C-19.92791373 6.53252346 -22.87010901 6.57877309 -25.8125 6.625 C-27.75197011 6.66320978 -29.6914238 6.70226324 -31.63085938 6.7421875 C-40.80905736 6.92203436 -49.97083257 7.05232315 -59.14990234 6.85449219 C-70.55177734 7.43659922 -80.50652011 14.84313622 -88.15234375 22.79296875 C-91.66822984 26.99270584 -94.61069225 31.79680245 -96.79248047 36.82714844 C-97.6953125 38.73828125 -97.6953125 38.73828125 -100 42 C-102.83065671 42.75609153 -104.77753128 43.05155339 -107.625 43.125 C-118.4619692 43.95343588 -126.54554383 47.94611334 -134 56 C-136.48666076 59.23976373 -138.78946998 62.56677057 -141 66 C-144.46785408 64.70949346 -147.45168575 63.18242149 -150.5625 61.1875 C-161.33944302 54.61854368 -172.42611798 50.89800376 -185 50.375 C-186.16208984 50.31699219 -186.16208984 50.31699219 -187.34765625 50.2578125 C-189.23143415 50.16478643 -191.11568256 50.08136825 -193 50 C-168.64717231 17.7683163 -119.71004008 -0.03509122 -81.22265625 -5.75390625 C-53.69444179 -9.34352947 -26.82899508 -6.38959464 0 0 Z " fill="#9BB9C2" transform="translate(288,84)"/>
<path d="M0 0 C10.32695925 -0.11594522 20.65376319 -0.20474146 30.98124123 -0.25906086 C35.77695359 -0.2851341 40.57222004 -0.32049044 45.36767578 -0.37719727 C49.99722032 -0.43159841 54.62633645 -0.46143764 59.25617599 -0.47438622 C61.02083453 -0.48361159 62.7854701 -0.50162702 64.54994583 -0.52865028 C67.02550828 -0.56504973 69.49930986 -0.56994101 71.97509766 -0.56762695 C72.70158508 -0.58560333 73.42807251 -0.60357971 74.17657471 -0.62210083 C77.99291624 -0.58360406 80.47278973 -0.00649426 83.43515015 2.31672668 C86.61190172 5.64015426 87.08149569 7.43624124 87 12 C85.38536898 15.73914551 83.44399922 17.87739632 80 20 C77.23046875 20.37109375 77.23046875 20.37109375 74.1875 20.4375 C68.58503789 20.79277809 65.42671432 21.51513979 61 25 C57.91769413 29.37488575 57.09712731 33.74507803 58 39 C59.3057103 42.70320096 61.08878981 45.35607813 64.34375 47.65625 C69.78986757 49.65781458 75.11471939 49.57372471 80.875 49.6875 C82.0403125 49.72166016 83.205625 49.75582031 84.40625 49.79101562 C87.27073718 49.87319354 90.13492985 49.94244421 93 50 C100.1391741 67.22461649 94.68295948 84.62278704 88 101 C83.32887498 100.28807115 78.76250856 99.29441682 74.1875 98.125 C73.50751953 97.96386719 72.82753906 97.80273438 72.12695312 97.63671875 C70.16796875 97.1328125 70.16796875 97.1328125 67 96 C65.80642464 92.41927392 66.36785509 90.70256304 67 87 C67.82221844 72.96138141 67.23969105 60.90372388 59 49 C52.20269087 41.49824247 45.14879818 37.4199626 34.91088867 36.89233398 C33.79290894 36.85861694 33.79290894 36.85861694 32.65234375 36.82421875 C31.88212891 36.80037109 31.11191406 36.77652344 30.31835938 36.75195312 C28.72748953 36.7088861 27.13625526 36.67768884 25.54492188 36.65820312 C20.45534711 36.47475659 17.68792765 35.8273578 14 32 C11.94799455 28.92199182 11.22860318 26.60349833 10.25 23.0625 C8.22857298 16.26868138 5.331365 10.23441164 2 4 C1.33062469 2.66802443 0.66347667 1.33492357 0 0 Z " fill="#46853E" transform="translate(243,120)"/>
<path d="M0 0 C0.33 0 0.66 0 1 0 C1.07476562 0.53625 1.14953125 1.0725 1.2265625 1.625 C3.23185841 13.5781364 7.60801195 24.85112516 14.58203125 34.765625 C15.93818648 36.90259688 16.56336667 38.52763464 17 41 C16.50371094 41.29132813 16.00742188 41.58265625 15.49609375 41.8828125 C5.42975883 47.95699562 -0.50463747 54.21487437 -5.375 65.0625 C-6.81663014 71.83816164 -6.00622701 77.97509196 -4.33984375 84.640625 C-3.75733169 88.68473168 -4.43052708 91.15165475 -6.70703125 94.54296875 C-7.74923828 95.85201172 -7.74923828 95.85201172 -8.8125 97.1875 C-16.39931282 107.24886467 -19.16589966 117.48333008 -18 130 C-15.85585901 138.98039322 -12.36639708 146.31967802 -6 153 C-5.31550781 153.74765625 -4.63101563 154.4953125 -3.92578125 155.265625 C3.73247837 162.91088248 14.40303847 168.57281213 25 171 C24.89171875 171.84304688 24.89171875 171.84304688 24.78125 172.703125 C22.64605711 192.03848281 23.23534639 210.13389149 31.75024414 227.89941406 C32.55010803 229.57669156 33.28154438 231.28627203 34 233 C33.67 233.66 33.34 234.32 33 235 C7.78326844 209.29145276 -10.28236886 176.29886492 -18.8125 141.3125 C-19.0074707 140.51859863 -19.20244141 139.72469727 -19.40332031 138.90673828 C-22.56898445 125.07998829 -23.30773778 111.43025163 -23.20581055 97.30737305 C-23.18739807 94.67291657 -23.18530292 92.03881152 -23.18554688 89.40429688 C-23.15994759 75.71841793 -22.10589184 63.07030317 -19 49.6875 C-18.84927032 49.03614075 -18.69854065 48.38478149 -18.54324341 47.71368408 C-14.60336383 30.9020607 -8.17504155 15.19595958 0 0 Z " fill="#9BB9C2" transform="translate(57,183)"/>
<path d="M0 0 C2.4375 1.875 2.4375 1.875 4 4 C4 4.99 4 5.98 4 7 C4.69738281 6.7834375 5.39476562 6.566875 6.11328125 6.34375 C19.62377152 2.78054377 36.32381203 1.87276077 50 5 C50 5.33 50 5.66 50 6 C49.175 6.13535156 48.35 6.27070313 47.5 6.41015625 C20.00946909 11.5339494 -6.13439522 29.31400133 -22.08984375 52.12109375 C-32.48450751 67.78748882 -39.04522107 84.13488531 -40 103 C-43.23871778 101.13647435 -46.09081104 99.16263936 -48.9375 96.75 C-55.41561038 91.61557862 -63.16573551 87.6114215 -71 85 C-71 65.52746062 -54.27664788 47.2917384 -41.33984375 34.3359375 C-35.40611057 28.690589 -29.12063177 24.25554042 -22.1640625 20.0078125 C-19.23082047 18.14647126 -16.52155125 16.39260829 -14 14 C-14.25561323 11.6568787 -14.59270772 9.32156597 -15 7 C-13.70501017 3.83446931 -12.36747781 2.30623151 -9.75 0.125 C-6.03630199 -1.39424009 -3.84345052 -1.04821378 0 0 Z " fill="#8F4B4B" transform="translate(265,211)"/>
<path d="M0 0 C3.90079158 1.57479753 6.19803558 4.09600817 9.0625 7.125 C18.42151835 16.71125507 29.14975152 22.98691845 41 29 C39.04040066 31.06489124 37.39316613 32.38391531 34.9375 33.9375 C31.96103803 36.02735627 31.23865536 36.73537758 30 40 C29.7003838 42.51070261 29.7003838 42.51070261 29.7265625 45.2109375 C29.7059375 46.20867187 29.6853125 47.20640625 29.6640625 48.234375 C29.63811902 50.32023082 29.61983109 52.40619655 29.609375 54.4921875 C29.46637182 60.65721336 29.06605215 64.27665371 25 69 C24.38125 69.7425 23.7625 70.485 23.125 71.25 C18.4928667 75.06469801 13.33653333 75.4475497 7.53125 75.31640625 C2.33727367 74.66715921 -1.4092892 72.37574988 -5.3125 69 C-7.04817769 65.91435077 -7.67071856 63.43787721 -8.4375 60 C-9.59833664 54.94073869 -10.60737034 52.09480726 -15 49 C-18.94624539 47.02687731 -22.63659331 45.66112223 -27 45 C-26.28585938 44.30777344 -25.57171875 43.61554688 -24.8359375 42.90234375 C-15.78874207 33.83286459 -9.16035148 23.68090431 -4 12 C-3.72696045 11.38552002 -3.4539209 10.77104004 -3.17260742 10.13793945 C-1.69339273 6.76274895 -0.55343736 3.65268655 0 0 Z " fill="#FBBE43" transform="translate(247,395)"/>
<path d="M0 0 C3.57613198 4.15982249 6.18797103 8.58996123 8.8125 13.375 C9.25045898 14.17156006 9.68841797 14.96812012 10.13964844 15.78881836 C14.09270336 23.05273778 17.79447457 30.37464419 21 38 C21.2573291 38.61004883 21.5146582 39.22009766 21.77978516 39.84863281 C32.76396259 66.60300038 35.46948045 95.40141808 35 124 C32.66080161 121.66080161 31.76050949 119.50322727 30.375 116.5 C27.3139353 110.25812234 23.49990096 105.25777901 19 100 C18.2575 98.989375 17.515 97.97875 16.75 96.9375 C11.24976594 90.3484824 3.12141538 85.69100685 -4 81 C-3.61328125 80.49210937 -3.2265625 79.98421875 -2.828125 79.4609375 C-1.20585863 77.31665473 0.39870553 75.15997706 2 73 C2.721875 72.030625 3.44375 71.06125 4.1875 70.0625 C9.04323971 61.85797428 10.37831228 53.56995521 8.4140625 44.20703125 C5.12705656 33.51672293 -2.36102048 26.25762519 -12 21 C-11.55269531 20.32195312 -11.10539062 19.64390625 -10.64453125 18.9453125 C-6.65649102 12.80594139 -3.11789896 6.62373926 0 0 Z " fill="#9AB8C2" transform="translate(400,165)"/>
<path d="M0 0 C14.9337367 7.2968548 28.73592437 16.39044117 40.3359375 28.3203125 C51.18798886 39.27426105 63.74700229 47.83428349 79 51 C75.71044469 53.19303687 74.70015024 53.25618733 70.87890625 53.265625 C69.86683105 53.26997559 68.85475586 53.27432617 67.81201172 53.27880859 C66.73967285 53.26930176 65.66733398 53.25979492 64.5625 53.25 C63.46953613 53.24178223 62.37657227 53.23356445 61.25048828 53.22509766 C39.14552513 52.91813012 23.3831127 45.21990647 7.30859375 30.1484375 C5.06410913 28.00635684 5.06410913 28.00635684 2.78515625 26.2265625 C-1.86292228 22.30560913 -1.86292228 22.30560913 -2.23828125 18.73046875 C-1.98604044 16.10468326 -1.51077259 13.58741736 -1 11 C-0.79087998 8.9604344 -0.60298182 6.91856913 -0.4375 4.875 C-0.35371094 3.94429688 -0.26992187 3.01359375 -0.18359375 2.0546875 C-0.12300781 1.37664062 -0.06242188 0.69859375 0 0 Z " fill="#904B4B" transform="translate(250,374)"/>
<path d="M0 0 C5.95679128 0.81371229 11.28358407 3.07104448 15.875 6.9375 C17.99367713 10.84890393 18.73999028 14.80430254 19.73046875 19.12109375 C21.05643997 23.9740138 23.16003114 26.12186678 27.375 28.6875 C30.45530598 29.91962239 33.21433585 30.54634951 36.5 30.9375 C37.06777582 34.18193325 36.94239924 36.24504901 35.15234375 39.046875 C30.95929838 44.09696042 27.82985572 46.48480008 21.18359375 47.1796875 C13.80394439 47.56275327 8.75286013 45.75078444 3.1875 40.9375 C1.45182231 37.85185077 0.82928144 35.37537721 0.0625 31.9375 C-1.09833664 26.87823869 -2.10737034 24.03230726 -6.5 20.9375 C-10.44624539 18.96437731 -14.13659331 17.59862223 -18.5 16.9375 C-17.76265625 16.23238281 -17.0253125 15.52726562 -16.265625 14.80078125 C-13.60961897 12.0509897 -11.48578716 9.2178389 -9.25 6.125 C-4.40196918 0.16930651 -4.40196918 0.16930651 0 0 Z " fill="#FBB20C" transform="translate(238.5,423.0625)"/>
<path d="M0 0 C6.44102868 -0.12703233 12.88173302 -0.21444812 19.32373047 -0.2746582 C21.51395744 -0.29976434 23.70410094 -0.33385637 25.89404297 -0.37719727 C29.04675922 -0.43801907 32.19836553 -0.46624923 35.3515625 -0.48828125 C36.8144017 -0.52699089 36.8144017 -0.52699089 38.30679321 -0.56648254 C42.76853344 -0.56831307 46.00177936 -0.50900748 49.59912109 2.31176758 C52.58651865 5.65671719 53.07964073 7.54011889 53 12 C51.38536898 15.73914551 49.44399922 17.87739632 46 20 C43.03748252 20.39695227 40.15462785 20.43813788 37.16796875 20.49609375 C33.8012562 21.03161276 31.75760324 22.30047704 28.88989258 24.06713867 C25.48740776 25.74662381 21.98878148 25.79721413 18.25 25.9375 C17.49589844 25.99228516 16.74179687 26.04707031 15.96484375 26.10351562 C10.65089537 26.37251656 10.65089537 26.37251656 8.109375 24.91796875 C6.52241475 22.17431565 5.80110606 19.43923069 5 16.375 C3.91840553 12.29198086 2.78042414 8.2626705 1.43359375 4.26025391 C1.16474365 3.45955475 0.89589355 2.65885559 0.61889648 1.83389282 C0.41466064 1.22870819 0.2104248 0.62352356 0 0 Z " fill="#509C49" transform="translate(277,120)"/>
<path d="M0 0 C2.10697258 0.93382526 3.75427415 1.98304968 5.58251953 3.38623047 C6.25541016 3.89734375 6.92830078 4.40845703 7.62158203 4.93505859 C8.31509766 5.47195313 9.00861328 6.00884766 9.72314453 6.56201172 C10.40119141 7.07957031 11.07923828 7.59712891 11.77783203 8.13037109 C13.14611829 9.17479492 14.51266244 10.22150506 15.87744141 11.27050781 C19.22312734 13.83122037 22.59776513 16.35313717 25.97314453 18.87451172 C24.48660947 22.34081007 22.51592102 24.56473208 19.84033203 27.20263672 C19.03466797 28.00185547 18.22900391 28.80107422 17.39892578 29.62451172 C16.55716797 30.44951172 15.71541016 31.27451172 14.84814453 32.12451172 C13.99865234 32.96498047 13.14916016 33.80544922 12.27392578 34.67138672 C10.1780953 36.74366855 8.0777374 38.81113565 5.97314453 40.87451172 C-0.46956108 36.71811393 -6.57039254 32.24532775 -12.58935547 27.49951172 C-13.8162207 26.53851563 -13.8162207 26.53851563 -15.06787109 25.55810547 C-17.05648243 23.99977846 -19.04274729 22.4385653 -21.02685547 20.87451172 C-18.72595369 15.63242527 -14.6319334 12.07184106 -10.65185547 8.06201172 C-9.88357422 7.26085937 -9.11529297 6.45970703 -8.32373047 5.63427734 C-7.57865234 4.88210938 -6.83357422 4.12994141 -6.06591797 3.35498047 C-5.3873877 2.66299561 -4.70885742 1.97101074 -4.00976562 1.25805664 C-2.02685547 -0.12548828 -2.02685547 -0.12548828 0 0 Z " fill="#B56869" transform="translate(347.02685546875,316.12548828125)"/>
<path d="M0 0 C4.78584564 2.79936627 9.10647984 6.00587573 13.5 9.375 C14.61955078 10.22191406 14.61955078 10.22191406 15.76171875 11.0859375 C16.49003906 11.6428125 17.21835937 12.1996875 17.96875 12.7734375 C18.62294922 13.27278809 19.27714844 13.77213867 19.95117188 14.28662109 C22.44025353 16.36817198 24.70561756 18.70561756 27 21 C20.4 27.6 13.8 34.2 7 41 C3.84200526 39.42100263 1.39154586 37.92645706 -1.40625 35.84765625 C-2.23253906 35.23599609 -3.05882812 34.62433594 -3.91015625 33.99414062 C-4.76480469 33.35669922 -5.61945313 32.71925781 -6.5 32.0625 C-7.35464844 31.42892578 -8.20929688 30.79535156 -9.08984375 30.14257812 C-12.73450783 27.43893106 -16.37084909 24.72443195 -20 22 C-18.51346494 18.53370165 -16.54277649 16.30977964 -13.8671875 13.671875 C-12.65869141 12.47304688 -12.65869141 12.47304688 -11.42578125 11.25 C-10.58402344 10.425 -9.74226563 9.6 -8.875 8.75 C-8.02550781 7.90953125 -7.17601562 7.0690625 -6.30078125 6.203125 C-4.20495077 4.13084317 -2.10459287 2.06337607 0 0 Z " fill="#B66869" transform="translate(301,281)"/>
<path d="M0 0 C3.69379914 2.40899944 5.81994491 5.2742627 7.25 9.4375 C8.21434842 14.48790202 7.3795326 18.59305002 4.57421875 22.89453125 C1.74220217 26.19437357 -1.46879007 28.00191464 -5.734375 28.81640625 C-10.85805853 29.12422445 -14.85104131 27.78369492 -18.75 24.4375 C-22.03539273 20.60938752 -23.48875835 16.62402726 -23.19921875 11.4921875 C-22.05748268 6.26998601 -19.23648713 2.49455752 -14.9375 -0.5625 C-9.54855725 -2.2531487 -5.06525178 -2.51635635 0 0 Z " fill="#C92C2C" transform="translate(172.75,361.5625)"/>
<path d="M0 0 C4.01701647 1.33900549 4.50685181 3.10932718 6.5625 6.75 C7.46162109 8.32007813 7.46162109 8.32007813 8.37890625 9.921875 C11.15579806 15.19462378 12.61406677 18.96167672 12 25 C10.63019953 28.83402914 8.91376163 32.02532093 6.125 35 C3.12310199 36.41265789 1.28138271 36.53573595 -2 36 C-6.82915491 32.18159844 -9.47303287 27.92759516 -10.5625 21.875 C-9.39816995 13.85405962 -4.70277024 6.51152802 0 0 Z " fill="#C92C2C" transform="translate(164,406)"/>
<path d="M0 0 C21.70618334 4.41523502 21.70618334 4.41523502 26.35546875 10.88671875 C28.57968943 14.87209709 29.81739328 18.40216279 29 23 C27.20006226 25.69990662 25.916227 27.5418865 23 29 C17.50782608 29.15659966 12.80575153 28.18491637 8.49609375 24.69140625 C2.7845003 18.23417397 1.68576387 8.1478587 0 0 Z " fill="#C92C2C" transform="translate(186,396)"/>
<path d="M0 0 C3.02182623 1.67488818 5.23790668 3.03680169 6.75 6.25 C7.25 9.1875 7.25 9.1875 6.75 12.25 C2.93159844 17.07915491 -1.32240484 19.72303287 -7.375 20.8125 C-15.39594038 19.64816995 -22.73847198 14.95277024 -29.25 10.25 C-27.91099451 6.23298353 -26.14067282 5.74314819 -22.5 3.6875 C-21.45328125 3.08808594 -20.4065625 2.48867188 -19.328125 1.87109375 C-12.61124397 -1.66634994 -7.20985239 -3.36018809 0 0 Z " fill="#C92C2C" transform="translate(225.25,365.75)"/>
<path d="M0 0 C2.69990662 1.79993774 4.5418865 3.083773 6 6 C6.15659966 11.49217392 5.18491637 16.19424847 1.69140625 20.50390625 C-4.76582603 26.2154997 -14.8521413 27.31423613 -23 29 C-18.58476498 7.29381666 -18.58476498 7.29381666 -12.11328125 2.64453125 C-8.12790291 0.42031057 -4.59783721 -0.81739328 0 0 Z " fill="#C92C2C" transform="translate(209,325)"/>
<path d="M0 0 C4.82915491 3.81840156 7.47303287 8.07240484 8.5625 14.125 C7.39816995 22.14594038 2.70277024 29.48847198 -2 36 C-6.01701647 34.66099451 -6.50685181 32.89067282 -8.5625 29.25 C-9.16191406 28.20328125 -9.76132813 27.1565625 -10.37890625 26.078125 C-13.15579806 20.80537622 -14.61406677 17.03832328 -14 11 C-12.63019953 7.16597086 -10.91376163 3.97467907 -8.125 1 C-5.12310199 -0.41265789 -3.28138271 -0.53573595 0 0 Z " fill="#C92C2C" transform="translate(168,308)"/>
<path d="M0 0 C3.23614894 2.12904535 4.29269525 4.18134969 5.0625 7.875 C5.334065 11.41859207 4.9214213 12.13505715 3 15.4375 C-0.54594585 18.46632874 -2.36299711 19.08280362 -7 19 C-10.62036655 17.4366599 -13.2601659 15.57632565 -15 12 C-15.21431243 7.84233882 -14.6796522 4.88354786 -12.125 1.5625 C-7.96492179 -1.49638104 -4.8863851 -1.11443871 0 0 Z " fill="#33692B" transform="translate(115,261)"/>
<path d="M0 0 C3.23614894 2.12904535 4.29269525 4.18134969 5.0625 7.875 C5.334065 11.41859207 4.9214213 12.13505715 3 15.4375 C-0.54594585 18.46632874 -2.36299711 19.08280362 -7 19 C-10.62036655 17.4366599 -13.2601659 15.57632565 -15 12 C-15.21431243 7.84233882 -14.6796522 4.88354786 -12.125 1.5625 C-7.96492179 -1.49638104 -4.8863851 -1.11443871 0 0 Z " fill="#31672B" transform="translate(375,201)"/>
<path d="M0 0 C3.23614894 2.12904535 4.29269525 4.18134969 5.0625 7.875 C5.334065 11.41859207 4.9214213 12.13505715 3 15.4375 C-0.54594585 18.46632874 -2.36299711 19.08280362 -7 19 C-10.16553069 17.70501017 -11.69376849 16.36747781 -13.875 13.75 C-15.39424009 10.03630199 -15.04821378 7.84345052 -14 4 C-9.90274051 -1.18986202 -6.27286751 -1.43065399 0 0 Z " fill="#33682B" transform="translate(155,161)"/>
<path d="M0 0 C3.23614894 2.12904535 4.29269525 4.18134969 5.0625 7.875 C5.334065 11.41859207 4.9214213 12.13505715 3 15.4375 C-0.54594585 18.46632874 -2.36299711 19.08280362 -7 19 C-10.16553069 17.70501017 -11.69376849 16.36747781 -13.875 13.75 C-15.39424009 10.03630199 -15.04821378 7.84345052 -14 4 C-9.90274051 -1.18986202 -6.27286751 -1.43065399 0 0 Z " fill="#33682C" transform="translate(205,221)"/>
<path d="M0 0 C1.89492187 0.01353516 1.89492187 0.01353516 3.828125 0.02734375 C4.79234375 0.03894531 5.7565625 0.05054687 6.75 0.0625 C5.08523775 1.73674807 3.40871021 3.38310556 1.6875 5 C-2.09289445 9.02429087 -2.62156795 12.61608886 -3.25 18.0625 C-4.28833984 17.63130859 -4.28833984 17.63130859 -5.34765625 17.19140625 C-8.42979122 15.99256775 -11.52864202 14.97853904 -14.6875 14 C-15.77933594 13.65839844 -16.87117187 13.31679687 -17.99609375 12.96484375 C-21.07569348 12.1108371 -24.09035959 11.52477017 -27.25 11.0625 C-20.44464429 2.84913967 -10.31259591 -0.095487 0 0 Z " fill="#488741" transform="translate(233.25,89.9375)"/>
<path d="M0 0 C3.40789098 2.60075891 3.93293408 3.73173633 5 8 C-3.91 11.465 -3.91 11.465 -13 15 C-15.29182975 10.41634049 -15.21724561 8.86898243 -14 4 C-9.90274051 -1.18986202 -6.27286751 -1.43065399 0 0 Z " fill="#33672C" transform="translate(265,211)"/>
<path d="M0 0 C0.66 0.33 1.32 0.66 2 1 C0.35 2.32 -1.3 3.64 -3 5 C-2.625 3.0625 -2.625 3.0625 -2 1 C-1.34 0.67 -0.68 0.34 0 0 Z " fill="#AEC9CF" transform="translate(387,407)"/>
<path d="M0 0 C3.63 0 7.26 0 11 0 C9.515 1.485 9.515 1.485 8 3 C7.34 3 6.68 3 6 3 C6 2.34 6 1.68 6 1 C4.02 1 2.04 1 0 1 C0 0.67 0 0.34 0 0 Z " fill="#AEB4C6" transform="translate(210,44)"/>
</svg>
