<svg xmlns="http://www.w3.org/2000/svg" viewBox="0 0 120 120" id="break-time">
  <path fill="#ff3e3e" d="m76.02,58.67c9.57-24.77-9.28-52.8-34.77-52.3-20.55,0-37.23,17.24-37.23,38.51-.29,28.84,30.49,47.51,54.4,34.16"></path>
  <path fill="#ff9515" d="m61.6,58.89h38.79c2.12,0,3.84,1.72,3.84,3.84v39.92c0,5.56-4.51,10.07-10.07,10.07h-26.34c-5.56,0-10.07-4.51-10.07-10.07v-39.92c0-2.12,1.72-3.84,3.84-3.84Z"></path>
  <g>
    <path d="m115.57,67.02h-8.74v-8.19c0-1.07-.87-1.93-1.93-1.93h-13.73c1.77-2.76,1.7-6.56-.08-9.29-.58-.98-1.9-2.13-2.03-3.08-.08-.84.99-1.81,2.01-2.45,1.97-1.22,4.11-2.06,6.37-2.49,1.05-.2,1.74-1.21,1.54-2.26-.2-1.05-1.21-1.73-2.26-1.53-2.72.52-5.31,1.53-7.68,3-2.68,1.66-4.04,3.83-3.82,6.1.23,2.19,1.62,3.33,2.63,4.81,1.83,2.71.15,6.88-3.17,7.19,0,0-6.47,0-6.47,0,7.87-24.81-11.34-52.39-37.01-51.89-51.3,2.18-51.34,78.09,0,80.27,5.17,0,10.31-1.1,15.03-3.17v18.83c0,7.75,6.32,14.06,14.08,14.06h22.44c7.76,0,14.08-6.31,14.08-14.06v-6.46c6.03-1.05,10.68-6.52,10.68-13.02v-12.52c0-1.07-.87-1.93-1.93-1.93Zm-74.37,14.4c-46.21-1.99-46.19-70.56,0-72.55,23.66-.37,40.89,25.36,32.96,48.03,0,0-16,0-16,0-1.07,0-1.93.86-1.93,1.93v19.02c-4.65,2.33-9.81,3.57-15.03,3.57Zm61.76,19.53c0,5.62-4.58,10.2-10.22,10.2h-22.44c-5.63,0-10.22-4.58-10.22-10.2v-40.19h42.87v40.19Zm10.68-19.48c0,4.37-2.92,8.07-6.81,9.08v-19.67h6.81v10.59Zm-52.42-35.69h-20.01c-1.07,0-1.93-.86-1.93-1.93v-26.32c0-1.07.87-1.93,1.93-1.93s1.93.86,1.93,1.93v24.39h18.08c2.54.06,2.56,3.8,0,3.86Z"></path>
  </g>
</svg>
