<svg xmlns="http://www.w3.org/2000/svg" width="20.687" height="19.395" viewBox="0 0 20.687 19.395">
  <g id="food-restaurant-svgrepo-com" transform="translate(-0.004 0.004)">
    <path id="Path_222" data-name="Path 222" d="M4.891,16.91l3.5-4.244,1.6,2.042L6.906,18.632A1.337,1.337,0,1,1,4.891,16.91ZM8.978,7.244c.333-1.088.18-2.017-1.072-3.4L4.845.165c-.434-.51-1.458.239-1.03.857L6.263,4.037a.569.569,0,0,1-.875.727L2.855,1.646c-.471-.54-1.446.173-.953.791C2.616,3.3,3.72,4.7,4.434,5.557a.491.491,0,1,1-.746.621l-2.514-3.1A.683.683,0,0,0,.044,3.4c-.172.5.251.865.539,1.236l2.8,3.623c.87,1.008,1.844,1.606,2.975,1.268a2.79,2.79,0,0,0,.613-.3l7.536,9.728a1.2,1.2,0,0,0,1.7.157l.116-.1A1.349,1.349,0,0,0,16.5,17.1L8.519,7.936a2.151,2.151,0,0,0,.46-.692Zm2.133,2.121L12.352,7.86c-1.6-3.956,4.318-9.229,7.186-6.805,3.483,2.948-1.694,10.053-5.332,8.3l-1.47,1.867L11.111,9.366Z" transform="translate(0 0)"/>
  </g>
</svg>
