<svg xmlns="http://www.w3.org/2000/svg" width="22.831" height="22.831" viewBox="0 0 22.831 22.831">
  <path id="Icon_material-emoji-food-beverage" data-name="Icon material-emoji-food-beverage" d="M26.294,4.5H12.342V7.544l2.3,1.839a.625.625,0,0,1,.241.495v5.4a.628.628,0,0,1-.634.634H9.171a.628.628,0,0,1-.634-.634v-5.4a.625.625,0,0,1,.241-.495l2.3-1.839V4.5H6V17.184a5.072,5.072,0,0,0,5.073,5.073h7.61a5.072,5.072,0,0,0,5.073-5.073V13.379h2.537a2.537,2.537,0,0,0,2.537-2.537V7.037A2.528,2.528,0,0,0,26.294,4.5Zm0,6.342H23.757V7.037h2.537ZM6,24.794H26.294v2.537H6Z" transform="translate(-6 -4.5)" fill="#d9d9d9"/>
</svg>
