<svg xmlns="http://www.w3.org/2000/svg" width="54.866" height="55.777" viewBox="0 0 54.866 55.777">
  <g id="fresh-fruits-2681805-2225208" transform="translate(0 0)">
    <path id="Path_296" data-name="Path 296" d="M89.439-244.951a10.935,10.935,0,0,0-4.013,6.539c-.236,1.157-.212,1.369.26,2.148.283.472.637.826.8.755a4.269,4.269,0,0,0,.59-1.865,9.774,9.774,0,0,1,4.414-6.869c.567-.425.637-.59.425-.944C91.493-245.918,90.619-245.824,89.439-244.951Z" transform="translate(-67.934 245.677)" fill="#27bf55"/>
    <path id="Path_297" data-name="Path 297" d="M11.918-224.086c.732,3.588,3.848,7.861,6.869,9.4a15.418,15.418,0,0,0,8.121,1.109c.661-.142.59-.212-1.393-1.2a12.611,12.611,0,0,1-3.753-2.668c-1.723-1.747-2.1-2.408-1.652-2.951.5-.614,1.039-.378,2.172.921a16.66,16.66,0,0,0,2.951,2.408c1.794,1.109,4.013,2.054,4.367,1.841.189-.118-.5-2.2-1.18-3.517a9.856,9.856,0,0,0-3.612-3.8,15.041,15.041,0,0,0-6.94-1.275,19.143,19.143,0,0,1-4.438-.449L11.8-224.7Z" transform="translate(-11.8 229.652)" fill="#27bf55"/>
    <path id="Path_298" data-name="Path 298" d="M39.208-194.481c.094.307.283,1.157.425,1.936.26,1.228.236,1.416-.142,1.676-.614.472-3.494.9-5.949.9H31.371l-.26.873a13.058,13.058,0,0,0-.26,2.738A15.462,15.462,0,0,1,27.216-176.3a14.735,14.735,0,0,0-3.517,9.867,14.008,14.008,0,0,0,1.747,7.082,15.289,15.289,0,0,0,17.209,7.743,21.292,21.292,0,0,0,3.069-1.18,16.234,16.234,0,0,0,6.893-6.8,15.563,15.563,0,0,0,1.157-10.67,15.355,15.355,0,0,0-3.187-6.185c-2.573-3.447-3.446-5.831-3.446-9.372,0-3.163-.614-4.863-2.431-6.7A7.45,7.45,0,0,0,39.775-195C39.137-195,39.066-194.929,39.208-194.481Z" transform="translate(-20.89 206.963)" fill="#27bf55"/>
    <path id="Path_299" data-name="Path 299" d="M190.152-192.523a21.551,21.551,0,0,1-3.9.567c-5.878.425-8.5,1.865-10.151,5.5-.8,1.747-1.133,3.21-.708,3.21a22.688,22.688,0,0,0,5.146-2.573,12.188,12.188,0,0,0,2.29-2.03c.968-1.157,1.605-1.346,2.007-.567.33.59-.047,1.2-1.605,2.738a21.952,21.952,0,0,1-5.406,3.423c-1.18.425-.944.661.708.661q8.25,0,11.5-6.893c1.133-2.408,1.747-4.438,1.346-4.414A5.273,5.273,0,0,0,190.152-192.523Z" transform="translate(-136.636 205.359)" fill="#27bf55"/>
    <path id="Path_300" data-name="Path 300" d="M142.318-190.546c-.472.567-.165,1.109,1.062,1.841a9.636,9.636,0,0,1,4.32,5l.425,1.109.449-1.44.425-1.416-.779-1.2a11.254,11.254,0,0,0-4.06-3.683C142.861-190.995,142.7-191.018,142.318-190.546Z" transform="translate(-111.347 203.808)" fill="#27bf55"/>
    <path id="Path_301" data-name="Path 301" d="M140.429-145.516a18.274,18.274,0,0,0-3.494,1.275l-1.936.968.378.755a27.755,27.755,0,0,0,1.818,2.644c3.376,4.485,4.58,9.3,3.565,14.235a16.885,16.885,0,0,1-4.249,8.309c-1.157,1.228-1.157,1.251.5,2.077a15.1,15.1,0,0,0,7.082,1.558,15.225,15.225,0,0,0,11.968-5.264,16.1,16.1,0,0,0-4.2-24.952c-1.393-.779-1.676-.85-3.8-.921-2.549-.094-4.391-.425-4.509-.8C143.427-145.964,142.318-145.941,140.429-145.516Z" transform="translate(-105.917 169.423)" fill="#27bf55"/>
  </g>
</svg>
