<svg xmlns="http://www.w3.org/2000/svg" width="12.948" height="21.655" viewBox="0 0 12.948 21.655">
  <g id="fresh-fruits-2681805-2225208" transform="translate(-11.8 245.677)">
    <path id="Path_223" data-name="Path 223" d="M86.894-245.395a4.245,4.245,0,0,0-1.558,2.539c-.092.449-.082.532.1.834.11.183.247.321.312.293a1.657,1.657,0,0,0,.229-.724,3.8,3.8,0,0,1,1.714-2.667c.22-.165.247-.229.165-.367C87.691-245.771,87.352-245.734,86.894-245.395Z" transform="translate(-66.745)"/>
    <path id="Path_224" data-name="Path 224" d="M11.846-224.462a5.948,5.948,0,0,0,2.667,3.648,5.986,5.986,0,0,0,3.153.431c.257-.055.229-.082-.541-.467a4.9,4.9,0,0,1-1.457-1.036c-.669-.678-.816-.935-.642-1.146.192-.238.4-.147.843.357a6.466,6.466,0,0,0,1.146.935,4.1,4.1,0,0,0,1.7.715,3.711,3.711,0,0,0-.458-1.366,3.827,3.827,0,0,0-1.4-1.476,5.84,5.84,0,0,0-2.694-.495,7.431,7.431,0,0,1-1.723-.174L11.8-224.7Z" transform="translate(0 -19.054)"/>
    <path id="Path_225" data-name="Path 225" d="M29.72-194.8c.037.119.11.449.165.751.1.477.092.55-.055.651a6.076,6.076,0,0,1-2.31.348h-.843l-.1.339a5.07,5.07,0,0,0-.1,1.063,6,6,0,0,1-1.411,3.9,5.721,5.721,0,0,0-1.366,3.831,5.439,5.439,0,0,0,.678,2.749,5.936,5.936,0,0,0,6.681,3.006,8.269,8.269,0,0,0,1.191-.458,6.3,6.3,0,0,0,2.676-2.639,6.042,6.042,0,0,0,.449-4.142,5.961,5.961,0,0,0-1.237-2.4,5.432,5.432,0,0,1-1.338-3.638,3.193,3.193,0,0,0-.944-2.6A2.892,2.892,0,0,0,29.94-195C29.692-195,29.665-194.973,29.72-194.8Z" transform="translate(-10.808 -46.033)"/>
  </g>
</svg>
