<svg xmlns="http://www.w3.org/2000/svg" width="11.535" height="19.858" viewBox="0 0 11.535 19.858">
  <path id="gripfire" d="M35.224,19.751c0-2.956,4.21-4.906,4.21-8.131A5.466,5.466,0,0,0,37.868,8a3.359,3.359,0,0,1,.024.4c0,3.689-5.892,6.164-5.892,10.758,0,1.995,1.29,3.172,2.664,4.338,2.607,1.87,3.128,2.86,3.128,3.469a6.722,6.722,0,0,1-.192.893A2.941,2.941,0,0,0,38.3,26c0-1.186-.869-2.255-1.77-3.465a4.906,4.906,0,0,1-1.306-2.784Zm8.223-1.562a8.831,8.831,0,0,0-3.793-5.243l.16.288a1.6,1.6,0,0,1,.136.685c0,1.79-2.171,4.454-2.267,4.674a1.6,1.6,0,0,0-.128.633,2.57,2.57,0,0,0,.717,1.686c.1,0,2.267-2.219,2.327-3.513a2.731,2.731,0,0,1,.364,1.338c0,1.65-1.674,3.881-1.674,3.881a5.815,5.815,0,0,0,1.422,2.131c.04,0,.088-.056.128-.1a8.143,8.143,0,0,0,2.7-5.479A5.594,5.594,0,0,0,43.447,18.189Z" transform="translate(-32 -8)"/>
</svg>
