<svg xmlns="http://www.w3.org/2000/svg" viewBox="0 0 64 64" id="meal">
  <g>
    <path fill="#fef1da" d="M60.0254,33.9766A3.01,3.01,0,0,0,57.81,33H49.19a3.0307,3.0307,0,0,0-2.9878,3.2715l.321,3.5316.1809,1.99c.0934-.0035,6.2021,1.0193,7.1982,1.0193.6985,0,6.2614-.7093,6.3651-.7052l.1817-1.9987.3488-3.8372A3.0091,3.0091,0,0,0,60.0254,33.9766Z"></path>
    <path fill="#e52828" d="M45.7593,57.3359l-3.3335-5A2.9928,2.9928,0,0,0,39.93,51H10.07a2.9928,2.9928,0,0,0-2.4961,1.3359l-3.3335,5A3.0284,3.0284,0,0,0,6.7368,62H43.2632A3.0283,3.0283,0,0,0,45.7593,57.3359Z"></path>
    <path fill="#fef1da" d="M42.12,39.02A2.9971,2.9971,0,0,0,39.86,38H10.14a2.9971,2.9971,0,0,0-2.26,1.02,3.037,3.037,0,0,0-.72,2.4c.03.19.05.39.09.58h35.5c.04-.19.06-.39.09-.58A3.037,3.037,0,0,0,42.12,39.02Z"></path>
    <path fill="#efd7af" d="M7.25,42a16.5653,16.5653,0,0,0,.45,2,17.9691,17.9691,0,0,0,4.57,7.73c.36.36.74.71,1.13,1.03a17.99,17.99,0,0,0,23.19.01c.4-.33.78-.68,1.14-1.04A17.9691,17.9691,0,0,0,42.3,44a16.5653,16.5653,0,0,0,.45-2Z"></path>
    <path fill="none" d="M56.9308,41.6465l-1.0074.61a3.9019,3.9019,0,0,1-2.0211.5557,3.7348,3.7348,0,0,1-2.6691-1.0752l-.3334-.34a1.2855,1.2855,0,0,0-1.2236-.3145l-1.0047.2569,1.159,12.75a.9954.9954,0,0,0,.9961.91h5.3467a.9954.9954,0,0,0,.9961-.91L58.304,41.6091l-.3383-.0954A1.3281,1.3281,0,0,0,56.9308,41.6465Z"></path>
    <path fill="#3abeff" d="M58.6926,39.6133a4.052,4.052,0,0,0-3.106.4c-1.0387.629-1.924,1.1875-2.9034.0967a3.8564,3.8564,0,0,0-3.6725-.9434l-2.4875.6361,1.3152,14.4684A2.986,2.986,0,0,0,50.8267,57h5.3467a2.986,2.986,0,0,0,2.9883-2.7285L60.449,40.1086Z"></path>
    <circle cx="52" cy="46.313" r="2.313" fill="#3e9fff"></circle>
    <circle cx="53.313" cy="52" r="2.313" fill="#3e9fff"></circle>
    <path fill="#e0c194" d="M25.1035 45.0205a2.3128 2.3128 0 1 0 1.5391 2.8857A2.3183 2.3183 0 0 0 25.1035 45.0205zM17.86 45.6123A2.3121 2.3121 0 1 0 19.4 48.498 2.3173 2.3173 0 0 0 17.86 45.6123zM33.8633 45.6123a2.3121 2.3121 0 1 0 1.54 2.8857A2.3173 2.3173 0 0 0 33.8633 45.6123z"></path>
    <path fill="#fed402" d="M42,16H37.6337a5.99,5.99,0,1,0-11.2847,0H22a1.0006,1.0006,0,0,0,0,2H42A1.0006,1.0006,0,0,0,42,16Z"></path>
    <path fill="#e8b536" d="M32 7a1 1 0 0 1-1-1V3a1 1 0 0 1 2 0V6A1 1 0 0 1 32 7zM38.9395 10.5605a1.011 1.011 0 0 1-.707-1.707l2.1211-2.1211a1 1 0 0 1 1.4141 1.4141l-2.1211 2.1211A.9968.9968 0 0 1 38.9395 10.5605zM25.0605 10.5605a.9968.9968 0 0 1-.707-.293L22.2324 8.1465a1 1 0 0 1 1.4141-1.4141l2.1211 2.1211A1.0111 1.0111 0 0 1 25.0605 10.5605z"></path>
    <path fill="#3abeff" d="M15.6763 10.0576a5.996 5.996 0 0 0-11.4595.3633A3.9991 3.9991 0 0 0 6 18h9a4 4 0 0 0 .6763-7.9424zM58.6763 10.0576a5.996 5.996 0 0 0-11.4595.3633A3.9991 3.9991 0 0 0 49 18h9a4 4 0 0 0 .6763-7.9424z"></path>
    <path fill="#efd7af" d="M23.7651 36a1.01 1.01 0 0 1-.9136-1.4053l1.2529-2.8242a4.045 4.045 0 0 0-.063-2.8145 5.0339 5.0339 0 0 1 .5132-3.8057l1.3291-2.2783A1.0006 1.0006 0 0 1 27.6113 23.88l-1.3291 2.2783a3.8036 3.8036 0 0 0-.0884 3.11 5.0132 5.0132 0 0 1-.2612 3.3125L24.68 35.4053A1 1 0 0 1 23.7651 36zM28.7651 36q-1.0224-.0393-.9136-1.4053l1.2529-2.8242a3.01 3.01 0 0 0 .1567-1.9873 5.7627 5.7627 0 0 1 .2935-4.6328l1.3291-2.2783A1.0006 1.0006 0 0 1 32.6113 23.88l-1.3291 2.2783a3.8036 3.8036 0 0 0-.0884 3.11 5.0132 5.0132 0 0 1-.2612 3.3125L29.68 35.4053A1 1 0 0 1 28.7651 36zM18.7651 36a1.01 1.01 0 0 1-.9136-1.4053l1.2529-2.8242a4.045 4.045 0 0 0-.063-2.8145 5.0339 5.0339 0 0 1 .5132-3.8057l1.3291-2.2783A1.0006 1.0006 0 0 1 22.6113 23.88l-1.3291 2.2783a3.02 3.02 0 0 0-.3081 2.2842 5.96 5.96 0 0 1-.0415 4.1387L19.68 35.4053A1 1 0 0 1 18.7651 36z"></path>
  </g>
</svg>
