<svg xmlns="http://www.w3.org/2000/svg" width="13.791" height="22.066" viewBox="0 0 13.791 22.066">
  <path id="Icon_awesome-mobile-alt" data-name="Icon awesome-mobile-alt" d="M11.723,0H2.069A2.069,2.069,0,0,0,0,2.069V20a2.069,2.069,0,0,0,2.069,2.069h9.654A2.069,2.069,0,0,0,13.791,20V2.069A2.069,2.069,0,0,0,11.723,0ZM6.9,20.687a1.379,1.379,0,1,1,1.379-1.379A1.378,1.378,0,0,1,6.9,20.687Zm4.827-4.655a.519.519,0,0,1-.517.517H2.586a.519.519,0,0,1-.517-.517V2.586a.519.519,0,0,1,.517-.517h8.62a.519.519,0,0,1,.517.517Z" fill="#f5474a"/>
</svg>
