<svg xmlns="http://www.w3.org/2000/svg" enable-background="new 0 0 50 50" viewBox="0 0 50 50" id="cookie">
  <path fill="#686868" d="M42.0257,33.195c-9.3166,5.4341-24.5499,5.4341-33.9468,0c-9.3969-5.408-9.4237-14.2435-0.1069-19.6514
						c9.3433-5.4341,24.5499-5.4341,33.9468,0C51.3158,18.9516,51.369,27.7871,42.0257,33.195z"></path>
  <g>
    <path fill="#3D3D3D" d="M48.3326,23.4362l-0.0093,3.2735c0.0099-3.4861-2.284-6.9776-6.8774-9.6296
							c-9.1278-5.2699-23.9498-5.2695-33.017-0.0002c-4.5056,2.6183-6.761,6.0549-6.7707,9.4966l0.0093-3.2735
							c0.0098-3.4417,2.2652-6.8783,6.7708-9.4966c9.0672-5.2693,23.8892-5.2697,33.017,0.0002
							C46.0486,16.4586,48.3425,19.9501,48.3326,23.4362z"></path>
    <path fill="#4F4D4D" d="M48.9991,23.4247l-0.0093,3.2735c-0.01,3.5398-2.3324,7.0758-6.9739,9.7731
							c-9.3242,5.4186-24.5554,5.4187-33.9393,0.0009C3.3483,33.7423,0.9899,30.156,1,26.5759l0.0093-3.2735
							c-0.0101,3.5801,2.3483,7.1664,7.0766,9.8963c9.3839,5.4178,24.6152,5.4177,33.9393-0.0009
							C46.6667,30.5006,48.9891,26.9646,48.9991,23.4247z"></path>
    <path fill="#787677" d="M41.9307,13.5303c9.3839,5.4178,9.4336,14.2403,0.0946,19.6676
								c-9.3242,5.4186-24.5554,5.4187-33.9393,0.0009c-9.4007-5.4275-9.4336-14.2403-0.1094-19.6589
								C17.3155,8.1126,32.53,8.1028,41.9307,13.5303z M8.5446,32.9322c9.1278,5.2699,23.9498,5.2695,33.0189-0.0009
								c9.0672-5.2693,9.0195-13.8548-0.1083-19.1247s-23.9498-5.2695-33.017-0.0002C-0.6309,19.0768-0.5832,27.6622,8.5446,32.9322
								"></path>
  </g>
  <path fill="#E5AE70" d="M13.5643,25.6702c-1.6807-0.0708-3.3044-0.7993-4.41-2.2129c-0.2703-0.3457-0.5079-0.7266-0.661-1.1489
				c-0.3928-1.083-0.1917-2.3013,0.1168-3.4229c-0.3173,0.2168-0.6143,0.4712-0.8228,0.8081
				c-0.4601,0.7447-1.1236,3.1734-0.5857,4.6563c0.5823,1.606,2.5009,3.2536,5.071,3.3618
				c1.6708,0.0708,3.2688-0.7397,4.8256-1.3184c0.3848-0.1431,0.7746-0.2905,1.1089-0.5425
				c0.5842-0.4404,0.9177-1.1538,1.0807-1.9185c-0.2841,0.1724-0.5889,0.3047-0.8979,0.4194
				C16.8331,24.9304,15.2351,25.741,13.5643,25.6702z"></path>
  <path fill="#F9C895" d="M17.9603,18.9871c-1.4618-1.3975-3.6262-1.3711-5.5634-1.1831
				c-1.2314,0.1191-2.4962,0.2847-3.5804,0.9312c-0.0724,0.0435-0.136,0.1025-0.2063,0.1504
				c-0.3085,1.1216-0.5096,2.3398-0.1168,3.4229c0.1531,0.4224,0.3907,0.8032,0.661,1.1489c1.1055,1.4136,2.7292,2.1421,4.41,2.2129
				c1.6708,0.0708,3.2688-0.7397,4.8256-1.3184c0.309-0.1147,0.6138-0.2471,0.8979-0.4194
				c0.0696-0.3271,0.1174-0.6597,0.1252-0.9902C19.4477,21.4758,18.9725,19.9544,17.9603,18.9871z"></path>
  <path fill="#A45826" d="M8.3539,22.4098c-0.1473-0.2444-0.0988-0.8517,0.0116-1.1424c-0.0442,0.0173-0.0865,0.0392-0.1207,0.0722
				c-0.0367,0.0352-0.0646,0.079-0.0874,0.1247c-0.1283,0.2558-0.1956,0.9443-0.0371,1.2072
				c0.1893,0.3138,0.88,0.1611,1.1447,0.0358c0.1433-0.0682,0.2654-0.1864,0.3355-0.3259c-0.0334,0.0228-0.066,0.0472-0.1019,0.0642
				C9.2339,22.5712,8.5431,22.7239,8.3539,22.4098z"></path>
  <path fill="#C9802A" d="M9.1321,21.4699c-0.182-0.1182-0.3793-0.2367-0.5962-0.2361c-0.0583,0.0003-0.1161,0.0127-0.1704,0.0336
				c-0.1104,0.2907-0.1589,0.898-0.0116,1.1424c0.1892,0.3141,0.88,0.1614,1.1447,0.0358c0.0359-0.017,0.0685-0.0414,0.1019-0.0642
				C9.7982,21.9882,9.4915,21.7028,9.1321,21.4699z"></path>
  <path fill="#A45826" d="M10.8142,25.5103c-0.1473-0.2444-0.0988-0.8517,0.0116-1.1424
				c-0.0442,0.0173-0.0865,0.0392-0.1207,0.0722c-0.0367,0.0352-0.0646,0.079-0.0874,0.1247
				c-0.1283,0.2558-0.1956,0.9443-0.0371,1.2072c0.1893,0.3138,0.88,0.1611,1.1447,0.0358
				c0.1433-0.0682,0.2654-0.1864,0.3355-0.3259c-0.0334,0.0228-0.066,0.0472-0.1019,0.0642
				C11.6942,25.6716,11.0034,25.8244,10.8142,25.5103z"></path>
  <path fill="#C9802A" d="M11.9427,24.8443c-0.1004-0.1095-0.2255-0.1932-0.3502-0.274c-0.182-0.1182-0.3793-0.2367-0.5962-0.2361
				c-0.0583,0.0003-0.1161,0.0127-0.1704,0.0336c-0.1104,0.2907-0.1589,0.898-0.0116,1.1424
				c0.1892,0.3141,0.88,0.1614,1.1447,0.0358c0.0359-0.017,0.0685-0.0413,0.1019-0.0642c0.0377-0.075,0.0646-0.1543,0.0619-0.2398
				C12.118,25.0937,12.0431,24.9539,11.9427,24.8443z"></path>
  <path fill="#A45826" d="M16.7449,24.0328c-0.1473-0.2444-0.0988-0.8517,0.0116-1.1424
				c-0.0442,0.0173-0.0865,0.0392-0.1207,0.0722c-0.0367,0.0352-0.0646,0.079-0.0874,0.1247
				c-0.1283,0.2558-0.1956,0.9443-0.0371,1.2072c0.1893,0.3139,1.2155,0.2371,1.4802-0.2901
				c-0.0334,0.0228-0.066,0.0472-0.1019,0.0642C17.6249,24.1942,16.9341,24.347,16.7449,24.0328z"></path>
  <path fill="#C9802A" d="M17.8733,23.3669c-0.1004-0.1095-0.2255-0.1932-0.3502-0.274c-0.182-0.1182-0.3793-0.2367-0.5962-0.2361
				c-0.0583,0.0003-0.1161,0.0127-0.1704,0.0336c-0.1104,0.2907-0.1589,0.898-0.0116,1.1424
				c0.1907,0.3166,0.9515,0.1736,1.2466-0.0284c0.0377-0.075,0.0646-0.1543,0.0619-0.2398
				C18.0486,23.6162,17.9738,23.4765,17.8733,23.3669z"></path>
  <path fill="#A45826" d="M13.1745,22.7232c-0.1473-0.2444-0.0988-0.8517,0.0116-1.1424
				c-0.0442,0.0173-0.0865,0.0392-0.1207,0.0722c-0.0367,0.0352-0.0646,0.079-0.0874,0.1247
				c-0.1283,0.2558-0.1956,0.9443-0.0371,1.2072c0.1893,0.3138,0.88,0.1611,1.1447,0.0358
				c0.1433-0.0682,0.2654-0.1864,0.3355-0.3259c-0.0334,0.0228-0.066,0.0472-0.1019,0.0642
				C14.0546,22.8846,13.3638,23.0374,13.1745,22.7232z"></path>
  <path fill="#C9802A" d="M14.303,22.0573c-0.1004-0.1095-0.2255-0.1932-0.3502-0.274c-0.182-0.1182-0.3793-0.2367-0.5962-0.2361
				c-0.0583,0.0003-0.1161,0.0127-0.1704,0.0336c-0.1104,0.2907-0.1589,0.898-0.0116,1.1424
				c0.1892,0.3141,0.88,0.1614,1.1447,0.0358c0.0359-0.017,0.0685-0.0413,0.1019-0.0642c0.0377-0.075,0.0646-0.1543,0.0619-0.2398
				C14.4783,22.3067,14.4035,22.1669,14.303,22.0573z"></path>
  <path fill="#A45826" d="M17.3283,20.499c-0.1473-0.2444-0.0988-0.8517,0.0117-1.1424c-0.0442,0.0173-0.0865,0.0392-0.1207,0.0722
				c-0.0367,0.0352-0.0646,0.079-0.0874,0.1247c-0.1283,0.2558-0.1956,0.9443-0.0371,1.2072
				c0.1893,0.3138,0.88,0.1611,1.1447,0.0358c0.1433-0.0682,0.2654-0.1864,0.3355-0.3259c-0.0334,0.0228-0.066,0.0472-0.1019,0.0642
				C18.2084,20.6603,17.5176,20.8131,17.3283,20.499z"></path>
  <path fill="#C9802A" d="M18.4568,19.833c-0.1004-0.1095-0.2255-0.1932-0.3502-0.274c-0.182-0.1182-0.3793-0.2367-0.5962-0.2361
				c-0.0583,0.0003-0.1161,0.0127-0.1704,0.0336c-0.1104,0.2907-0.1589,0.898-0.0117,1.1424
				c0.1892,0.3141,0.88,0.1614,1.1447,0.0358c0.0359-0.017,0.0685-0.0413,0.1019-0.0642c0.0377-0.075,0.0646-0.1543,0.0619-0.2398
				C18.6321,20.0824,18.5573,19.9426,18.4568,19.833z"></path>
  <path fill="#E5AE70" d="M13.4161,25.6433c-0.168-0.7551,1.2779-0.5667,1.3958-1.2222c0.3984-2.0493,1.1217-0.5982,1.6384-2.9365
			c-0.0528,2.2344-0.9802,1.0455-1.4182,2.9927c-0.048,0.2627-0.3016,0.4844-0.5376,0.5347
			C14.2414,25.0928,13.4018,25.1351,13.4161,25.6433z"></path>
  <path fill="#E5AE70" d="M18.6824 22.7297c-1.2231-.4701-1.3932-.7378-1.868-.6294-.8105.1166-1.3319-.5722-1.854-.9341.6598.2271 1.1734.8247 1.8323.6855C17.3184 21.7386 17.9765 22.2129 18.6824 22.7297zM11.0357 23.2527c-.2066-.2944-.261-.6953-.1502-1.0537.2517-.8419 1.2543-.9196 1.8267-1.0532.16-.0273 2.8004-1.1343 2.9442-1.208.6022-.3159 1.1817-.8389 1.2776-1.5649.0019.7422-.5602 1.3735-1.184 1.7329-.2779.1615-2.6222 1.2058-2.9905 1.2622-.3573.0708-.709.1143-1.0323.2231C11.0597 21.7649 10.6855 22.6018 11.0357 23.2527zM9.58 21.1257c-.4481-.8426.1711-1.9263 1.2104-1.9526 1.2565-.0433.7353-.2358 1.3196-.75.598-.4725 1.3322.2573 2.5908.3281-.8278.0602-1.2224-.1117-1.7143-.2241-.8963-.3149-.802.4348-1.2801.7559-.3173.1797-.6411.1069-.9099.1172C9.9517 19.3925 9.2888 20.2474 9.58 21.1257z"></path>
  <g>
    <path fill="#A45826" d="M12.2402,19.7211c-0.1473-0.2444-0.0988-0.8517,0.0116-1.1424c-0.3978,0.1556-0.3939,1.1574-0.2452,1.404
				c0.1893,0.3139,1.2155,0.2371,1.4802-0.2901C13.1901,19.8958,12.4314,20.0385,12.2402,19.7211z"></path>
    <path fill="#C9802A" d="M13.3687,19.0552c-0.1739-0.1897-0.7517-0.6176-1.1168-0.4765c-0.1104,0.2907-0.1589,0.898-0.0116,1.1424
				c0.1907,0.3166,0.9515,0.1736,1.2466-0.0284c0.0377-0.075,0.0646-0.1543,0.0619-0.2398
				C13.544,19.3045,13.4692,19.1647,13.3687,19.0552z"></path>
  </g>
  <g>
    <path fill="#E5AE70" d="M26.5696,21.8418c-2.571-0.1083-4.4954-1.7744-5.071-3.3618c-0.3928-1.083-0.1917-2.3013,0.1168-3.4229
				c-1.5387,1.0513-1.8848,4.1512-1.4084,5.4644c0.1531,0.4224,0.3907,0.8032,0.661,1.1489c1.1056,1.4136,2.7292,2.1421,4.41,2.2129
				c1.6708,0.0708,3.2688-0.7397,4.8256-1.3184c0.3848-0.1431,0.7746-0.2905,1.1089-0.5425
				c0.5842-0.4404,0.9177-1.1538,1.0807-1.9185c-0.2841,0.1724-0.5889,0.3047-0.8979,0.4194
				C29.8384,21.102,28.2403,21.9126,26.5696,21.8418z"></path>
    <path fill="#F9C895" d="M30.9656,15.1587c-1.4618-1.3975-3.6262-1.3711-5.5634-1.1831
				c-1.2314,0.1191-2.4962,0.2847-3.5804,0.9312c-0.0724,0.0435-0.136,0.1025-0.2063,0.1504
				c-0.3085,1.1216-0.5096,2.3398-0.1168,3.4229c0.5823,1.606,2.5009,3.2536,5.071,3.3618
				c1.6708,0.0708,3.2688-0.7397,4.8256-1.3184c0.309-0.1147,0.6138-0.2471,0.8979-0.4194
				c0.0696-0.3271,0.1174-0.6597,0.1252-0.9902C32.453,17.6474,31.9778,16.126,30.9656,15.1587z"></path>
    <path fill="#A45826" d="M21.3591,18.5814c-0.1473-0.2444-0.0988-0.8517,0.0116-1.1424c-0.3978,0.1556-0.3939,1.1574-0.2452,1.404
				c0.1893,0.3139,1.2155,0.2371,1.4802-0.2901C22.309,18.7561,21.5503,18.8988,21.3591,18.5814z"></path>
    <path fill="#C9802A" d="M21.3708,17.439c-0.1104,0.2907-0.1589,0.898-0.0116,1.1424c0.1907,0.3166,0.9515,0.1736,1.2466-0.0284
				C22.9261,17.9156,21.7564,17.2899,21.3708,17.439z"></path>
    <path fill="#A45826" d="M23.8194,21.6819c-0.1473-0.2444-0.0988-0.8517,0.0117-1.1424c-0.3778,0.1478-0.4075,1.1349-0.2452,1.404
				c0.1893,0.3138,0.88,0.1611,1.1447,0.0358c0.1433-0.0682,0.2654-0.1864,0.3355-0.3259c-0.0334,0.0228-0.066,0.0472-0.1019,0.0642
				C24.6995,21.8433,24.0087,21.996,23.8194,21.6819z"></path>
    <path fill="#C9802A" d="M24.9479,21.0159c-0.1004-0.1095-0.2255-0.1932-0.3502-0.274c-0.2381-0.1546-0.5019-0.3048-0.7666-0.2024
				c-0.1104,0.2907-0.1589,0.898-0.0117,1.1424c0.1892,0.3141,0.88,0.1614,1.1447,0.0358c0.0359-0.017,0.0685-0.0414,0.1019-0.0642
				c0.0377-0.075,0.0646-0.1543,0.0619-0.2398C25.1232,21.2653,25.0484,21.1255,24.9479,21.0159z"></path>
    <path fill="#A45826" d="M29.7501,20.2044c-0.1473-0.2444-0.0988-0.8517,0.0116-1.1424
				c-0.0442,0.0173-0.0865,0.0392-0.1207,0.0722c-0.0367,0.0352-0.0646,0.079-0.0874,0.1247
				c-0.1283,0.2558-0.1956,0.9443-0.0371,1.2072c0.1893,0.3138,0.88,0.1611,1.1447,0.0358
				c0.1433-0.0682,0.2654-0.1864,0.3355-0.3259c-0.0334,0.0228-0.066,0.0472-0.1019,0.0642
				C30.6301,20.3658,29.9393,20.5186,29.7501,20.2044z"></path>
    <path fill="#C9802A" d="M29.7617,19.0621c-0.1104,0.2907-0.1589,0.898-0.0116,1.1424c0.1892,0.3141,0.88,0.1614,1.1447,0.0358
				c0.0359-0.017,0.0685-0.0413,0.1019-0.0642c0.0377-0.075,0.0646-0.1543,0.0619-0.2398
				C31.0439,19.4753,30.1581,18.9088,29.7617,19.0621z"></path>
    <path fill="#A45826" d="M26.1798,18.8949c-0.1473-0.2444-0.0988-0.8517,0.0117-1.1424c-0.3778,0.1478-0.4075,1.1349-0.2452,1.404
				c0.1893,0.3138,0.88,0.1611,1.1447,0.0358c0.1433-0.0682,0.2654-0.1864,0.3355-0.3259c-0.0334,0.0228-0.066,0.0472-0.1019,0.0642
				C27.0598,19.0562,26.369,19.209,26.1798,18.8949z"></path>
    <path fill="#C9802A" d="M27.3083,18.2289c-0.1742-0.1899-0.7498-0.6184-1.1168-0.4764c-0.1104,0.2907-0.1589,0.898-0.0117,1.1424
				c0.1892,0.3141,0.88,0.1614,1.1447,0.0358c0.0359-0.017,0.0685-0.0414,0.1019-0.0642c0.0377-0.075,0.0646-0.1543,0.0619-0.2398
				C27.4836,18.4783,27.4087,18.3385,27.3083,18.2289z"></path>
    <path fill="#A45826" d="M30.3336,16.6706c-0.1473-0.2444-0.0988-0.8517,0.0116-1.1424
				c-0.0442,0.0173-0.0865,0.0392-0.1207,0.0722c-0.0367,0.0352-0.0646,0.079-0.0874,0.1247
				c-0.1283,0.2558-0.1956,0.9443-0.0371,1.2072c0.1893,0.3138,0.88,0.1611,1.1447,0.0358
				c0.1433-0.0682,0.2654-0.1864,0.3355-0.3259c-0.0334,0.0228-0.066,0.0472-0.1019,0.0642
				C31.2136,16.832,30.5228,16.9847,30.3336,16.6706z"></path>
    <path fill="#C9802A" d="M31.4621,16.0046c-0.1004-0.1095-0.2255-0.1932-0.3502-0.274c-0.182-0.1182-0.3793-0.2367-0.5962-0.2361
				c-0.0583,0.0003-0.1161,0.0127-0.1704,0.0336c-0.1104,0.2907-0.1589,0.898-0.0116,1.1424
				c0.1892,0.3141,0.88,0.1614,1.1447,0.0358c0.0359-0.017,0.0685-0.0414,0.1019-0.0642c0.0377-0.075,0.0646-0.1543,0.0619-0.2398
				C31.6374,16.254,31.5625,16.1142,31.4621,16.0046z"></path>
    <path fill="#E5AE70" d="M26.4214,21.8149c-0.168-0.7551,1.2779-0.5667,1.3958-1.2222c0.3984-2.0493,1.1217-0.5982,1.6384-2.9365
			c-0.0528,2.2344-0.9802,1.0455-1.4182,2.9927C27.8815,21.5022,26.3999,21.053,26.4214,21.8149z"></path>
    <path fill="#E5AE70" d="M31.6877 18.9014c-1.2231-.4701-1.3932-.7378-1.868-.6294-.8105.1166-1.3319-.5722-1.854-.9341.6598.2271 1.1734.8247 1.8323.6855.3515-.0757.7642.1196 1.0294.2993C31.1214 18.5024 31.4075 18.6963 31.6877 18.9014zM24.0409 19.4243c-.2066-.2944-.261-.6953-.1502-1.0537.3504-1.1722 1.4702-.5687 4.771-2.2612.6022-.3159 1.1817-.8389 1.2776-1.5649.0019.7422-.5602 1.3735-1.184 1.7329-.2779.1615-2.6222 1.2058-2.9905 1.2622-.3573.0708-.709.1143-1.0323.2231C24.065 17.9365 23.6907 18.7734 24.0409 19.4243zM22.5853 17.2974c-.4481-.8426.1711-1.9263 1.2104-1.9526 1.2565-.0433.7353-.2358 1.3196-.75.598-.4725 1.3322.2573 2.5908.3281-.8278.0602-1.2224-.1117-1.7143-.2241-.8963-.3149-.802.4348-1.2801.7559-.5387.305-.9733-.1115-1.6579.3604C22.6093 16.1196 22.4022 16.7451 22.5853 17.2974z"></path>
    <g>
      <path fill="#A45826" d="M25.2455,15.8927c-0.1473-0.2444-0.0988-0.8517,0.0117-1.1424c-0.3978,0.1556-0.3939,1.1574-0.2452,1.404
				c0.1893,0.3138,0.88,0.1611,1.1447,0.0358c0.1433-0.0682,0.2654-0.1864,0.3355-0.3259c-0.0334,0.0228-0.066,0.0472-0.1019,0.0642
				C26.1255,16.0541,25.4347,16.2068,25.2455,15.8927z"></path>
      <path fill="#C9802A" d="M25.2571,14.7503c-0.1104,0.2907-0.1589,0.898-0.0117,1.1424c0.1892,0.3141,0.88,0.1614,1.1447,0.0358
				c0.0359-0.017,0.0685-0.0414,0.1019-0.0642c0.0377-0.075,0.0646-0.1543,0.0619-0.2398
				C26.5382,15.1297,25.6287,14.6066,25.2571,14.7503z"></path>
    </g>
  </g>
  <g>
    <path fill="#E5AE70" d="M39.6395,27.9713c-1.6807-0.0708-3.3044-0.7993-4.41-2.2129c-1.084-1.3865-1.0474-2.7421-0.5442-4.5718
				c-0.3173,0.2168-0.6143,0.4712-0.8228,0.8081c-0.2012,0.3257-0.3197,0.7021-0.4266,1.0767
				c-0.3322,1.1636-0.5701,2.4463-0.1591,3.5796c0.1531,0.4224,0.3907,0.8032,0.661,1.1489c1.1056,1.4136,2.7292,2.1421,4.41,2.2129
				c1.6708,0.0708,3.2688-0.7397,4.8256-1.3184c0.3848-0.1431,0.7746-0.2905,1.1089-0.5425
				c0.5842-0.4404,0.9177-1.1538,1.0807-1.9185c-0.2841,0.1724-0.5889,0.3047-0.8979,0.4194
				C42.9083,27.2316,41.3103,28.0421,39.6395,27.9713z"></path>
    <path fill="#F9C895" d="M44.0355,21.2882c-1.4618-1.3975-3.6262-1.3711-5.5634-1.1831
				c-1.2314,0.1191-2.4962,0.2847-3.5804,0.9312c-0.0724,0.0435-0.136,0.1025-0.2063,0.1504
				c-0.4938,1.7953-0.5511,3.1708,0.5442,4.5718c1.1055,1.4136,2.7292,2.1421,4.41,2.2129
				c1.6708,0.0708,3.2688-0.7397,4.8256-1.3184c0.309-0.1147,0.6138-0.2471,0.8979-0.4194
				c0.0696-0.3271,0.1174-0.6597,0.1252-0.9902C45.5229,23.777,45.0477,22.2555,44.0355,21.2882z"></path>
    <path fill="#A45826" d="M34.4291,24.7109c-0.1473-0.2444-0.0988-0.8517,0.0117-1.1424c-0.3978,0.1556-0.3939,1.1574-0.2452,1.404
				c0.1893,0.3139,1.2155,0.2371,1.4802-0.2901c-0.0334,0.0228-0.066,0.0472-0.1019,0.0642
				C35.3091,24.8723,34.6183,25.0251,34.4291,24.7109z"></path>
    <path fill="#C9802A" d="M35.5576,24.045c-0.1742-0.1899-0.7497-0.6184-1.1168-0.4764c-0.1104,0.2907-0.1589,0.898-0.0117,1.1424
				c0.1892,0.3141,0.88,0.1614,1.1447,0.0358c0.0359-0.017,0.0685-0.0413,0.1019-0.0642c0.0377-0.075,0.0646-0.1543,0.0619-0.2398
				C35.7329,24.2944,35.658,24.1546,35.5576,24.045z"></path>
    <path fill="#A45826" d="M36.8894,27.8114c-0.1473-0.2444-0.0988-0.8517,0.0116-1.1424c-0.0931,0.0364-0.1511,0.083-0.2081,0.1969
				c-0.1283,0.2558-0.1956,0.9443-0.0371,1.2072c0.1893,0.3138,0.88,0.1611,1.1447,0.0358
				c0.1433-0.0682,0.2654-0.1864,0.3355-0.3259c-0.0334,0.0228-0.066,0.0472-0.1019,0.0642
				C37.7694,27.9728,37.0786,28.1255,36.8894,27.8114z"></path>
    <path fill="#C9802A" d="M36.901,26.669c-0.1104,0.2907-0.1589,0.898-0.0116,1.1424c0.1892,0.3141,0.88,0.1614,1.1447,0.0358
				c0.0359-0.017,0.0685-0.0414,0.1019-0.0642c0.0377-0.075,0.0646-0.1543,0.0619-0.2398
				C38.1826,27.0653,37.2821,26.5217,36.901,26.669z"></path>
    <path fill="#A45826" d="M42.82,26.334c-0.1473-0.2444-0.0988-0.8517,0.0117-1.1424c-0.437,0.171-0.7758,2.2328,0.8995,1.4398
				c0.1433-0.0682,0.2654-0.1864,0.3355-0.3259C43.7699,26.5087,43.0112,26.6514,42.82,26.334z"></path>
    <path fill="#C9802A" d="M42.8317,25.1916c-0.1104,0.2907-0.1589,0.898-0.0117,1.1424c0.1907,0.3166,0.9515,0.1736,1.2466-0.0284
				C44.377,25.6882,43.2296,25.0378,42.8317,25.1916z"></path>
    <path fill="#A45826" d="M39.2497,25.0244c-0.1473-0.2444-0.0988-0.8517,0.0117-1.1424c-0.3778,0.1478-0.4075,1.1349-0.2452,1.404
				c0.1893,0.3139,1.2155,0.2371,1.4802-0.2901C40.1996,25.1991,39.4409,25.3418,39.2497,25.0244z"></path>
    <path fill="#C9802A" d="M39.2614,23.882c-0.1104,0.2907-0.1589,0.898-0.0117,1.1424c0.1907,0.3166,0.9515,0.1736,1.2466-0.0284
				C40.7779,24.4358,39.7201,23.7047,39.2614,23.882z"></path>
    <path fill="#A45826" d="M43.4035,22.8001c-0.1473-0.2444-0.0988-0.8517,0.0116-1.1424c-0.3978,0.1556-0.3939,1.1574-0.2452,1.404
				c0.1893,0.3139,1.2155,0.2371,1.4802-0.2901C44.3534,22.9748,43.5947,23.1175,43.4035,22.8001z"></path>
    <path fill="#C9802A" d="M43.4152,21.6577c-0.1104,0.2907-0.1589,0.898-0.0116,1.1424c0.1907,0.3166,0.9515,0.1736,1.2466-0.0284
				c0.0377-0.075,0.0646-0.1543,0.0619-0.2398C44.6963,22.0393,43.7905,21.5126,43.4152,21.6577z"></path>
    <path fill="#E5AE70" d="M39.4913,27.9445c-0.168-0.7551,1.2779-0.5667,1.3958-1.2222c0.3984-2.0493,1.1217-0.5982,1.6384-2.9365
			c-0.0454,1.9226-0.9321,1.5055-1.2397,2.3501c-0.2438,0.4577-0.0414,1.0335-0.7161,1.1772
			C40.3166,27.394,39.477,27.4362,39.4913,27.9445z"></path>
    <path fill="#E5AE70" d="M44.7576 25.0309c-1.2231-.4701-1.3932-.7378-1.868-.6294-.8105.1166-1.3319-.5722-1.854-.9341.6598.2271 1.1734.8247 1.8323.6855C43.3936 24.0398 44.0517 24.5141 44.7576 25.0309zM37.1109 25.5538c-.2066-.2944-.261-.6953-.1502-1.0537.2517-.8419 1.2543-.9196 1.8267-1.0532.3438-.0586.6507-.2466.9741-.3848 1.0744-.5084 3.0484-.8791 3.2477-2.3882.0041 1.638-2.1838 2.1273-3.1496 2.6177-1.7384.7007-1.0943.2763-2.0572.6006C37.1349 24.066 36.7607 24.903 37.1109 25.5538zM35.6552 23.4269c-.2737-.5146-.1481-1.2451.3516-1.6338.6398-.5538 1.2506-.1648 1.6434-.4214.2027-.1084.2752-.4189.5349-.6475.598-.4725 1.3322.2573 2.5908.3281-1.3543.0985-1.9819-.5422-2.4446-.1538-.1858.1479-.2437.48-.5498.6855-.3173.1797-.6411.1069-.9099.1172C36.0269 21.6936 35.364 22.5485 35.6552 23.4269z"></path>
    <g>
      <path fill="#A45826" d="M38.3154,22.0222c-0.1473-0.2444-0.0988-0.8517,0.0116-1.1424c-0.3978,0.1556-0.3939,1.1574-0.2452,1.404
				c0.1893,0.3139,1.2155,0.2371,1.4802-0.2901c-0.0334,0.0228-0.066,0.0472-0.1019,0.0642
				C39.1955,22.1836,38.5047,22.3364,38.3154,22.0222z"></path>
      <path fill="#C9802A" d="M38.3271,20.8799c-0.1104,0.2907-0.1589,0.898-0.0116,1.1424c0.1892,0.3141,0.88,0.1614,1.1447,0.0358
				c0.0359-0.017,0.0685-0.0413,0.1019-0.0642C39.8513,21.4183,38.7744,20.7069,38.3271,20.8799z"></path>
    </g>
  </g>
  <g>
    <path fill="#E5AE70" d="M25.8684,32.9734c-1.6807-0.0708-3.3044-0.7993-4.41-2.2129c-0.2703-0.3457-0.5079-0.7266-0.661-1.1489
				c-0.3928-1.083-0.1917-2.3013,0.1168-3.4229c-1.4242,0.973-1.9493,3.9732-1.4084,5.4644
				c0.1531,0.4224,0.3907,0.8032,0.661,1.1489c1.1056,1.4136,2.7292,2.1421,4.41,2.2129c1.7748,0.0752,5.4409-1.4888,5.9345-1.8608
				c0.5842-0.4404,0.9177-1.1538,1.0807-1.9185C30.9669,31.6149,27.6021,33.0469,25.8684,32.9734z"></path>
    <path fill="#F9C895" d="M30.2644,26.2903c-2.0343-1.9448-7.4368-1.4048-9.3502-0.1016
				c-0.3085,1.1216-0.5096,2.3398-0.1168,3.4229c0.1531,0.4224,0.3907,0.8032,0.661,1.1489c1.1055,1.4136,2.7292,2.1421,4.41,2.2129
				c1.9743,0.0837,5.5506-1.6329,5.7236-1.7378c0.0696-0.3271,0.1174-0.6597,0.1252-0.9902
				C31.7518,28.7791,31.2766,27.2576,30.2644,26.2903z"></path>
    <path fill="#A45826" d="M20.658,29.7131c-0.1473-0.2444-0.0988-0.8517,0.0117-1.1424c-0.0442,0.0173-0.0865,0.0392-0.1207,0.0722
				c-0.0367,0.0352-0.0646,0.079-0.0874,0.1247c-0.1283,0.2558-0.1956,0.9443-0.0371,1.2072
				c0.1893,0.3138,0.88,0.1611,1.1447,0.0358c0.1433-0.0682,0.2654-0.1864,0.3355-0.3259
				C21.6079,29.8878,20.8492,30.0305,20.658,29.7131z"></path>
    <path fill="#C9802A" d="M20.6696,28.5707c-0.1104,0.2907-0.1589,0.898-0.0117,1.1424c0.1907,0.3166,0.9515,0.1736,1.2466-0.0284
				C22.2083,29.0805,21.0882,28.4089,20.6696,28.5707z"></path>
    <path fill="#A45826" d="M23.1183,32.8135c-0.1473-0.2444-0.0988-0.8517,0.0116-1.1424
				c-0.0442,0.0173-0.0865,0.0392-0.1207,0.0722c-0.0367,0.0352-0.0646,0.079-0.0874,0.1247
				c-0.1283,0.2558-0.1956,0.9443-0.0371,1.2072c0.1893,0.3138,0.88,0.1611,1.1447,0.0358
				c0.1433-0.0682,0.2654-0.1864,0.3355-0.3259c-0.0334,0.0228-0.066,0.0472-0.1019,0.0642
				C23.9983,32.9749,23.3075,33.1277,23.1183,32.8135z"></path>
    <path fill="#C9802A" d="M24.2468,32.1476c-0.1004-0.1095-0.2255-0.1932-0.3502-0.274c-0.182-0.1182-0.3793-0.2367-0.5962-0.2361
				c-0.0583,0.0003-0.1161,0.0127-0.1704,0.0336c-0.1104,0.2907-0.1589,0.898-0.0116,1.1424
				c0.1892,0.3141,0.88,0.1614,1.1447,0.0358c0.0359-0.017,0.0685-0.0414,0.1019-0.0642c0.0377-0.075,0.0646-0.1543,0.0619-0.2398
				C24.4221,32.3969,24.3472,32.2572,24.2468,32.1476z"></path>
    <path fill="#A45826" d="M29.0489,31.3361c-0.1473-0.2444-0.0988-0.8517,0.0117-1.1424c-0.3778,0.1478-0.4075,1.1349-0.2452,1.404
				c0.1893,0.3139,1.2155,0.2371,1.4802-0.2901C29.9988,31.5108,29.2401,31.6535,29.0489,31.3361z"></path>
    <path fill="#C9802A" d="M29.0606,30.1937c-0.1104,0.2907-0.1589,0.898-0.0117,1.1424c0.1907,0.3166,0.9515,0.1736,1.2466-0.0284
				C30.5771,30.7475,29.5193,30.0164,29.0606,30.1937z"></path>
    <path fill="#A45826" d="M25.4786,30.0265c-0.1473-0.2444-0.0988-0.8517,0.0116-1.1424
				c-0.0442,0.0173-0.0865,0.0392-0.1207,0.0722c-0.0367,0.0352-0.0646,0.079-0.0874,0.1247
				c-0.1283,0.2558-0.1956,0.9443-0.0371,1.2072c0.1893,0.3138,0.88,0.1611,1.1447,0.0358
				c0.1433-0.0682,0.2654-0.1864,0.3355-0.3259c-0.0334,0.0228-0.066,0.0472-0.1019,0.0642
				C26.3587,30.1879,25.6679,30.3407,25.4786,30.0265z"></path>
    <path fill="#C9802A" d="M26.6071,29.3606c-0.1004-0.1095-0.2255-0.1932-0.3502-0.274c-0.182-0.1182-0.3793-0.2367-0.5962-0.2361
				c-0.0583,0.0003-0.1161,0.0127-0.1704,0.0336c-0.1104,0.2907-0.1589,0.898-0.0116,1.1424
				c0.1892,0.3141,0.88,0.1614,1.1447,0.0358c0.0359-0.017,0.0685-0.0413,0.1019-0.0642c0.0377-0.075,0.0646-0.1543,0.0619-0.2398
				C26.7824,29.6099,26.7076,29.4701,26.6071,29.3606z"></path>
    <path fill="#A45826" d="M29.6324,27.8022c-0.1473-0.2444-0.0988-0.8517,0.0117-1.1424
				c-0.0442,0.0173-0.0865,0.0392-0.1207,0.0722c-0.0367,0.0352-0.0646,0.079-0.0874,0.1247
				c-0.1283,0.2558-0.1956,0.9443-0.0371,1.2072c0.1893,0.3138,0.88,0.1611,1.1447,0.0358
				c0.1433-0.0682,0.2654-0.1864,0.3355-0.3259c-0.0334,0.0228-0.066,0.0472-0.1019,0.0642
				C30.5125,27.9636,29.8217,28.1164,29.6324,27.8022z"></path>
    <path fill="#C9802A" d="M30.7609,27.1363c-0.1004-0.1095-0.2255-0.1932-0.3502-0.274c-0.182-0.1182-0.3793-0.2367-0.5962-0.2361
				c-0.0583,0.0003-0.1161,0.0127-0.1704,0.0336c-0.1104,0.2907-0.1589,0.898-0.0117,1.1424
				c0.1892,0.3141,0.88,0.1614,1.1447,0.0358c0.0359-0.017,0.0685-0.0413,0.1019-0.0642c0.0377-0.075,0.0646-0.1543,0.0619-0.2398
				C30.9362,27.3856,30.8613,27.2459,30.7609,27.1363z"></path>
    <path fill="#E5AE70" d="M25.7202,32.9466c-0.1725-0.775,1.279-0.5728,1.3958-1.2222c0.4352-2.2381,1.0964-0.4838,1.6384-2.9365
			c-0.053,2.2447-0.9773,1.0329-1.4182,2.9927c-0.048,0.2627-0.3016,0.4844-0.5376,0.5347
			C26.5455,32.3961,25.7059,32.4383,25.7202,32.9466z"></path>
    <path fill="#E5AE70" d="M30.9865 30.033c-1.2231-.4701-1.3932-.7378-1.868-.6294-.8105.1166-1.3319-.5722-1.854-.9341.6598.2271 1.1734.8247 1.8323.6855C29.6225 29.0419 30.2806 29.5162 30.9865 30.033zM23.3398 30.556c-.4169-.5941-.2182-1.5097.6223-1.8398.3469-.1494.7134-.1875 1.0542-.2671.16-.0273 2.8004-1.1343 2.9442-1.208.6022-.3159 1.1817-.8389 1.2776-1.5649.0041 1.638-2.1838 2.1273-3.1496 2.6177-1.7384.7007-1.0943.2763-2.0572.6006C23.3638 29.0682 22.9896 29.9051 23.3398 30.556zM21.8841 28.429c-.4481-.8426.1711-1.9263 1.2104-1.9526 1.2565-.0433.7353-.2358 1.3196-.75.598-.4725 1.3322.2573 2.5908.3281-1.3733.0999-1.9768-.5465-2.4446-.1538-.1858.1479-.2437.48-.5498.6855-.5387.305-.9733-.1115-1.6579.3604C21.9081 27.2513 21.701 27.8768 21.8841 28.429z"></path>
    <g>
      <path fill="#A45826" d="M24.5443,27.0243c-0.1473-0.2444-0.0988-0.8517,0.0116-1.1424c-0.3978,0.1556-0.3939,1.1574-0.2452,1.404
				c0.1893,0.3138,0.88,0.1611,1.1447,0.0358c0.1433-0.0682,0.2654-0.1864,0.3355-0.3259c-0.0334,0.0228-0.066,0.0472-0.1019,0.0642
				C25.4244,27.1857,24.7336,27.3385,24.5443,27.0243z"></path>
      <path fill="#C9802A" d="M25.6728,26.3584c-0.1946-0.2123-0.7713-0.6101-1.1168-0.4764c-0.1104,0.2907-0.1589,0.898-0.0116,1.1424
				c0.1892,0.3141,0.88,0.1614,1.1447,0.0358c0.0359-0.017,0.0685-0.0414,0.1019-0.0642c0.0377-0.075,0.0646-0.1543,0.0619-0.2398
				C25.8481,26.6078,25.7733,26.468,25.6728,26.3584z"></path>
    </g>
  </g>
</svg>
