<svg xmlns="http://www.w3.org/2000/svg" width="14.288" height="17.413" viewBox="0 0 14.288 17.413">
  <path id="Icon_material-notifications-none" data-name="Icon material-notifications-none" d="M13.144,21.163a1.791,1.791,0,0,0,1.786-1.786H11.358A1.791,1.791,0,0,0,13.144,21.163ZM18.5,15.805V11.34C18.5,8.6,17.046,6.3,14.483,5.7V5.089a1.339,1.339,0,1,0-2.679,0V5.7C9.251,6.3,7.786,8.59,7.786,11.34v4.465L6,17.591v.893H20.288v-.893Zm-1.786.893H9.572V11.34c0-2.215,1.348-4.018,3.572-4.018s3.572,1.8,3.572,4.018Z" transform="translate(-6 -3.75)"/>
</svg>
