<svg id="shopping_cart_black_24dp" xmlns="http://www.w3.org/2000/svg" width="30.335" height="30.335" viewBox="0 0 30.335 30.335">
  <path id="Path_230" data-name="Path 230" d="M0,0H30.335V30.335H0Z" fill="none"/>
  <path id="Path_231" data-name="Path 231" d="M8.584,22.223a2.528,2.528,0,1,0,2.528,2.528A2.525,2.525,0,0,0,8.584,22.223ZM1,2V4.528H3.528l4.55,9.593-1.706,3.1a2.444,2.444,0,0,0-.316,1.213,2.535,2.535,0,0,0,2.528,2.528H23.751V18.431H9.114a.313.313,0,0,1-.316-.316l.038-.152L9.974,15.9H19.39A2.516,2.516,0,0,0,21.6,14.6l4.525-8.2a1.235,1.235,0,0,0,.152-.607,1.268,1.268,0,0,0-1.264-1.264H6.321L5.133,2H1ZM21.223,22.223a2.528,2.528,0,1,0,2.528,2.528A2.525,2.525,0,0,0,21.223,22.223Z" transform="translate(0.264 0.528)" fill="#fff"/>
</svg>
