<svg xmlns="http://www.w3.org/2000/svg" enable-background="new 0 0 50 50" viewBox="0 0 50 50" id="shutter">
  <path d="M25,1C11.7,1,1,11.7,1,25c0,13.3,10.7,24,24,24s24-10.7,24-24C49,11.7,38.3,1,25,1z M25,46C13.4,46,4,36.6,4,25
			C4,13.4,13.4,4,25,4s21,9.4,21,21C46,36.6,36.6,46,25,46z"></path>
  <path d="M17 39.4c3.2 1.8 7 2.4 10.6 1.8l3.2-6.5C29.5 35.2 36 33 17 39.4zM33 10.6c-3.3-1.9-7.2-2.4-10.6-1.8l-3.2 6.5C20.5 14.8 14 17 33 10.6zM29.5 40.8c3.4-1 6.6-3.1 8.8-6.2L36 27.7C35.4 29.1 38.4 22.9 29.5 40.8zM20.5 9.2c-3.5 1-6.6 3.2-8.8 6.2l2.3 6.9C14.6 21 11.6 27.1 20.5 9.2zM41.2 22.4l-6.5-3.2 2.3 6.7v0l2.4 7.2C41.2 29.6 41.8 25.8 41.2 22.4zM10.6 17c-1.9 3.4-2.4 7.1-1.9 10.6l6.5 3.2C14.8 29.4 17 36 10.6 17zM40.8 20.5c-.9-3.4-3.1-6.6-6.2-8.8L27.7 14C29.1 14.7 22.9 11.6 40.8 20.5zM9.2 29.5c.9 3.4 3.1 6.6 6.2 8.8l6.9-2.3C20.9 35.3 27.1 38.4 9.2 29.5z"></path>
</svg>
