<svg xmlns="http://www.w3.org/2000/svg" viewBox="0 0 64 64" id="DinnerTime">
  <rect width="16" height="17" x="39" y="39" fill="#bdffc8" class="colorbdfdff svgShape"></rect>
  <rect width="16" height="5" x="39" y="34" fill="#167ffc" class="color57a4ff svgShape"></rect>
  <path fill="#fe9526" d="M38,48a1.994,1.994,0,0,0-3.03-1.71A2.582,2.582,0,0,0,35,46a1.994,1.994,0,0,0-3.03-1.71A2.582,2.582,0,0,0,32,44a1.994,1.994,0,0,0-3.03-1.71A2.582,2.582,0,0,0,29,42a2.006,2.006,0,0,0-2-2,2.053,2.053,0,0,0-1.12.34,1.989,1.989,0,0,0-3.76,0A2.053,2.053,0,0,0,21,40a1.991,1.991,0,0,0-1.88,1.34A2.053,2.053,0,0,0,18,41a2.006,2.006,0,0,0-2,2,2.582,2.582,0,0,0,.03.29A1.994,1.994,0,0,0,13,45a1.994,1.994,0,0,0-1.71,3.03A2.582,2.582,0,0,0,11,48a2,2,0,0,0,0,4H38a2,2,0,0,0,0-4Z" class="colorffe477 svgShape"></path>
  <circle cx="32" cy="18" r="15" fill="#ffd6aa" class="colorffdaaa svgShape"></circle>
  <path fill="#d86f00" d="M32,15a3,3,0,1,1-2.27,4.95A2.921,2.921,0,0,1,29,18,3,3,0,0,1,32,15Z" class="colord80027 svgShape"></path>
  <path fill="#53d86a" d="M23.73,48.27a2,2,0,1,1-3.46,2c-.55-.96-1.23-3.91-.27-4.47S23.18,47.31,23.73,48.27Z" class="color7ed63e svgShape"></path>
  <path fill="#569561" d="M41,52a4.025,4.025,0,0,1-1.17,2.83,4.225,4.225,0,0,1-.83.63A3.989,3.989,0,0,1,37,56H11a4,4,0,0,1-4-4Z" class="color957856 svgShape"></path>
  <path fill="#595bd4" d="M61,58.5A2.492,2.492,0,0,1,58.5,61H5.5a2.5,2.5,0,1,1,0-5h53A2.5,2.5,0,0,1,61,58.5Z" class="color898890 svgShape"></path>
  <path fill="#1f1f23" d="M58.5,55H56V34a1,1,0,0,0-1-1H51V29.414l3.707-3.707-1.414-1.414-4,4A1,1,0,0,0,49,29v4H39a1,1,0,0,0-1,1V45.777a2.956,2.956,0,0,0-2.17-.772,3.008,3.008,0,0,0-3-2,3.01,3.01,0,0,0-3-2A3,3,0,0,0,26.3,39.083a2.988,2.988,0,0,0-4.6,0,3.041,3.041,0,0,0-3,1,3,3,0,0,0-3.528,1.922,3.02,3.02,0,0,0-3.041,2.124A3,3,0,0,0,10,47c0,.057,0,.113.005.169A3.006,3.006,0,0,0,8,50a2.966,2.966,0,0,0,.184,1H7a1,1,0,0,0-1,1,4.948,4.948,0,0,0,1.026,3H5.5a3.5,3.5,0,0,0,0,7h53a3.5,3.5,0,0,0,0-7ZM41,51h-.192A2.873,2.873,0,0,0,40,47.788V40h9V51h2V40h3V55H40.974A4.948,4.948,0,0,0,42,52,1,1,0,0,0,41,51ZM54,35v3H51V35Zm-5,0v3H40V35ZM10,50a1,1,0,0,1,1.067-.991l.115.015a1,1,0,0,0,.965-1.508A1,1,0,0,1,13,46a1,1,0,0,0,1-1,1.017,1.017,0,0,1,1.516-.853,1,1,0,0,0,1.507-.976L17,43a1,1,0,0,1,1-1,1.058,1.058,0,0,1,.572.176,1,1,0,0,0,1.493-.509,1.023,1.023,0,0,1,1.507-.491,1,1,0,0,0,1.493-.509.989.989,0,0,1,1.87,0,1,1,0,0,0,1.493.509A1.058,1.058,0,0,1,27,41a1,1,0,0,1,1,.993l-.023.178a1,1,0,0,0,1.507.976A1.017,1.017,0,0,1,31,43.993l-.023.178a1,1,0,0,0,1.507.976A1.016,1.016,0,0,1,34,45.993l-.023.178a1,1,0,0,0,1.507.976A1.016,1.016,0,0,1,37,48a1,1,0,0,0,1,1,1,1,0,0,1,0,2H24.44a3,3,0,0,0,.159-3.232c-.583-1.008-3.31-3.863-5.1-2.83s-.681,4.821-.1,5.83h0c.051.086.122.151.18.231H11A1,1,0,0,1,10,50Zm10.542-3.257a6.2,6.2,0,0,1,2.324,2.025,1,1,0,1,1-1.732,1A6.208,6.208,0,0,1,20.542,46.743ZM8.171,53H39.829A3.006,3.006,0,0,1,37,55H11A3.006,3.006,0,0,1,8.171,53ZM58.5,60H5.5a1.5,1.5,0,0,1,0-3h53a1.5,1.5,0,0,1,0,3Z" class="color231f20 svgShape"></path>
  <path fill="#1f1f23" d="M32,34A16,16,0,1,0,16,18,16.019,16.019,0,0,0,32,34ZM32,4A14,14,0,1,1,18,18,14.015,14.015,0,0,1,32,4Z" class="color231f20 svgShape"></path>
  <path fill="#1f1f23" d="M25.65 24.76l4.068-3.483A3.991 3.991 0 1 0 33 14.142V6H31v8.142A4 4 0 0 0 28 18a3.944 3.944 0 0 0 .422 1.753L24.35 23.24zM32 16a2 2 0 1 1-2 2A2 2 0 0 1 32 16zM26 46h2a3 3 0 0 0-3-3v2A1 1 0 0 1 26 46zM13 49h2a1 1 0 0 1 1-1V46A3 3 0 0 0 13 49z" class="color231f20 svgShape"></path>
</svg>
