<svg xmlns="http://www.w3.org/2000/svg" width="13.789" height="13.789" viewBox="0 0 13.789 13.789">
  <path id="weight-svgrepo-com" d="M9.395,5.132,8.689,7.263m3.9-2.132a5.316,5.316,0,0,1,1.881.162,2.131,2.131,0,0,1,1.154,1.154,5.315,5.315,0,0,1,.162,1.881v4.05a5.3,5.3,0,0,1-.232,2.247,2.131,2.131,0,0,1-.931.931,5.3,5.3,0,0,1-2.247.232H6.41a5.3,5.3,0,0,1-2.247-.232,2.131,2.131,0,0,1-.932-.931A5.3,5.3,0,0,1,3,12.379V8.329a5.316,5.316,0,0,1,.162-1.881A2.132,2.132,0,0,1,4.316,5.294,5.316,5.316,0,0,1,6.2,5.132m1.776,7.816h2.842M8.358,3h2.073a3.755,3.755,0,0,1,1.436.132,1.421,1.421,0,0,1,.772.912,3.755,3.755,0,0,1-.106,1.438,3.383,3.383,0,0,1-.265,1.062,1.421,1.421,0,0,1-.746.632,3.383,3.383,0,0,1-1.091.087H8.358a3.383,3.383,0,0,1-1.091-.087,1.421,1.421,0,0,1-.746-.632,3.383,3.383,0,0,1-.265-1.062A3.755,3.755,0,0,1,6.15,4.044a1.421,1.421,0,0,1,.772-.912A3.755,3.755,0,0,1,8.358,3Z" transform="translate(-2.5 -2.5)" fill="none" stroke="#000" stroke-linecap="round" stroke-linejoin="round" stroke-width="1"/>
</svg>
