<svg xmlns="http://www.w3.org/2000/svg" width="45.636" height="45.636" viewBox="0 0 45.636 45.636">
  <path id="weight-svgrepo-com_1_" data-name="weight-svgrepo-com (1)" d="M39.931,5.7H37.616A17.105,17.105,0,1,1,5.7,14.261,16.984,16.984,0,0,1,8.02,5.7H5.7a5.711,5.711,0,0,0-5.7,5.7V39.931a5.711,5.711,0,0,0,5.7,5.7H39.931a5.711,5.711,0,0,0,5.7-5.7V11.409A5.711,5.711,0,0,0,39.931,5.7ZM22.818,28.522A14.261,14.261,0,1,0,8.557,14.261,14.261,14.261,0,0,0,22.818,28.522ZM22.791,14.98,25.784,8a1.427,1.427,0,0,1,2.624,1.122l-3,7a3.549,3.549,0,1,1-2.616-1.139Z" fill="#ea6a00"/>
</svg>
